G04 Layer: BottomSilkscreenLayer*
G04 EasyEDA v6.5.40, 2024-06-15 17:03:23*
G04 e63031535b224d068feaf967c7116de5,10*
G04 Gerber Generator version 0.2*
G04 Scale: 100 percent, Rotated: No, Reflected: No *
G04 Dimensions in millimeters *
G04 leading zeros omitted , absolute positions ,4 integer and 5 decimal *
%FSLAX45Y45*%
%MOMM*%

%ADD10C,0.1524*%

%LPD*%
D10*
X6298184Y6096000D02*
G01*
X6376161Y6096000D01*
X6391656Y6090920D01*
X6402070Y6080505D01*
X6407150Y6064757D01*
X6407150Y6054344D01*
X6402070Y6038850D01*
X6391656Y6028436D01*
X6376161Y6023355D01*
X6298184Y6023355D01*
X6298184Y5978652D02*
G01*
X6298184Y5921502D01*
X6339840Y5952489D01*
X6339840Y5936995D01*
X6344920Y5926581D01*
X6350000Y5921502D01*
X6365747Y5916168D01*
X6376161Y5916168D01*
X6391656Y5921502D01*
X6402070Y5931915D01*
X6407150Y5947410D01*
X6407150Y5962904D01*
X6402070Y5978652D01*
X6396990Y5983731D01*
X6386575Y5989065D01*
X5511800Y6414515D02*
G01*
X5511800Y6336537D01*
X5506720Y6321044D01*
X5496306Y6310629D01*
X5480558Y6305550D01*
X5470143Y6305550D01*
X5454650Y6310629D01*
X5444236Y6321044D01*
X5439156Y6336537D01*
X5439156Y6414515D01*
X5352795Y6414515D02*
G01*
X5404865Y6341871D01*
X5326888Y6341871D01*
X5352795Y6414515D02*
G01*
X5352795Y6305550D01*
X6807200Y6338315D02*
G01*
X6807200Y6260337D01*
X6802120Y6244844D01*
X6791706Y6234429D01*
X6775958Y6229350D01*
X6765543Y6229350D01*
X6750050Y6234429D01*
X6739636Y6244844D01*
X6734556Y6260337D01*
X6734556Y6338315D01*
X6637781Y6338315D02*
G01*
X6689852Y6338315D01*
X6694931Y6291579D01*
X6689852Y6296660D01*
X6674104Y6301994D01*
X6658609Y6301994D01*
X6643115Y6296660D01*
X6632702Y6286500D01*
X6627368Y6270752D01*
X6627368Y6260337D01*
X6632702Y6244844D01*
X6643115Y6234429D01*
X6658609Y6229350D01*
X6674104Y6229350D01*
X6689852Y6234429D01*
X6694931Y6239510D01*
X6700265Y6249923D01*
X5980684Y5511800D02*
G01*
X6058661Y5511800D01*
X6074156Y5506720D01*
X6084570Y5496305D01*
X6089650Y5480557D01*
X6089650Y5470144D01*
X6084570Y5454650D01*
X6074156Y5444236D01*
X6058661Y5439155D01*
X5980684Y5439155D01*
X5996177Y5342381D02*
G01*
X5985763Y5347715D01*
X5980684Y5363210D01*
X5980684Y5373623D01*
X5985763Y5389118D01*
X6001511Y5399531D01*
X6027420Y5404865D01*
X6053327Y5404865D01*
X6074156Y5399531D01*
X6084570Y5389118D01*
X6089650Y5373623D01*
X6089650Y5368289D01*
X6084570Y5352795D01*
X6074156Y5342381D01*
X6058661Y5337302D01*
X6053327Y5337302D01*
X6037834Y5342381D01*
X6027420Y5352795D01*
X6022340Y5368289D01*
X6022340Y5373623D01*
X6027420Y5389118D01*
X6037834Y5399531D01*
X6053327Y5404865D01*
M02*
