G04 Layer: TopLayer*
G04 EasyEDA v6.5.40, 2024-06-15 17:03:23*
G04 e63031535b224d068feaf967c7116de5,10*
G04 Gerber Generator version 0.2*
G04 Scale: 100 percent, Rotated: No, Reflected: No *
G04 Dimensions in millimeters *
G04 leading zeros omitted , absolute positions ,4 integer and 5 decimal *
%FSLAX45Y45*%
%MOMM*%

%ADD10C,0.2540*%
%ADD11C,1.4000*%
%ADD12C,0.6200*%

%LPD*%
G36*
X6148374Y5194147D02*
G01*
X6104737Y5195620D01*
X6061252Y5199075D01*
X6017971Y5204510D01*
X5974943Y5211876D01*
X5932322Y5221224D01*
X5890158Y5232400D01*
X5848553Y5245557D01*
X5807557Y5260543D01*
X5767273Y5277358D01*
X5727801Y5295950D01*
X5689244Y5316372D01*
X5651601Y5338470D01*
X5615025Y5362244D01*
X5579567Y5387695D01*
X5545277Y5414670D01*
X5512257Y5443169D01*
X5480558Y5473141D01*
X5450230Y5504535D01*
X5421376Y5537250D01*
X5393994Y5571236D01*
X5368188Y5606440D01*
X5344007Y5642762D01*
X5321503Y5680151D01*
X5300675Y5718505D01*
X5281625Y5757773D01*
X5264404Y5797854D01*
X5248960Y5838647D01*
X5235397Y5880150D01*
X5223713Y5922162D01*
X5213959Y5964682D01*
X5206085Y6007608D01*
X5200243Y6050838D01*
X5196281Y6094323D01*
X5194350Y6137910D01*
X5194350Y6181547D01*
X5196332Y6225133D01*
X5200294Y6268618D01*
X5206187Y6311849D01*
X5214061Y6354775D01*
X5223814Y6397294D01*
X5235549Y6439306D01*
X5249113Y6480759D01*
X5264556Y6521602D01*
X5281828Y6561632D01*
X5300929Y6600901D01*
X5321706Y6639255D01*
X5344261Y6676644D01*
X5368442Y6712915D01*
X5394299Y6748119D01*
X5421680Y6782104D01*
X5450535Y6814769D01*
X5480862Y6846163D01*
X5512612Y6876135D01*
X5545632Y6904634D01*
X5579922Y6931609D01*
X5615432Y6957009D01*
X5652008Y6980783D01*
X5689650Y7002881D01*
X5728258Y7023252D01*
X5767730Y7041845D01*
X5807964Y7058659D01*
X5848959Y7073595D01*
X5890564Y7086701D01*
X5932779Y7097928D01*
X5975400Y7107174D01*
X6018428Y7114540D01*
X6061710Y7119924D01*
X6105194Y7123379D01*
X6148832Y7124852D01*
X6192469Y7124344D01*
X6236004Y7121855D01*
X6279438Y7117435D01*
X6322568Y7111034D01*
X6365443Y7102703D01*
X6407810Y7092442D01*
X6449720Y7080250D01*
X6491020Y7066178D01*
X6531660Y7050278D01*
X6571538Y7032548D01*
X6610603Y7013041D01*
X6648703Y6991807D01*
X6685788Y6968845D01*
X6721856Y6944207D01*
X6756704Y6917994D01*
X6790385Y6890258D01*
X6822744Y6860997D01*
X6853783Y6830314D01*
X6883400Y6798259D01*
X6911492Y6764883D01*
X6938111Y6730288D01*
X6963105Y6694525D01*
X6986473Y6657644D01*
X7008114Y6619798D01*
X7028027Y6580987D01*
X7046214Y6541312D01*
X7062571Y6500825D01*
X7077049Y6459677D01*
X7089698Y6417919D01*
X7100417Y6375603D01*
X7109206Y6332880D01*
X7116064Y6289802D01*
X7120991Y6246418D01*
X7123938Y6202883D01*
X7124903Y6159246D01*
X7123938Y6115659D01*
X7120940Y6072124D01*
X7116013Y6028740D01*
X7109155Y5985662D01*
X7100316Y5942939D01*
X7089546Y5900623D01*
X7076897Y5858865D01*
X7062368Y5817717D01*
X7046010Y5777280D01*
X7027824Y5737606D01*
X7007910Y5698794D01*
X6986219Y5660948D01*
X6962851Y5624068D01*
X6937806Y5588355D01*
X6911238Y5553760D01*
X6883095Y5520385D01*
X6853478Y5488330D01*
X6822440Y5457698D01*
X6790029Y5428437D01*
X6756349Y5400700D01*
X6721449Y5374487D01*
X6685432Y5349900D01*
X6648297Y5326989D01*
X6610197Y5305755D01*
X6571132Y5286248D01*
X6531254Y5268518D01*
X6490614Y5252669D01*
X6449314Y5238597D01*
X6407404Y5226456D01*
X6364986Y5216194D01*
X6322161Y5207863D01*
X6278981Y5201513D01*
X6235547Y5197094D01*
X6192012Y5194655D01*
G37*

%LPC*%
G36*
X6402933Y5428843D02*
G01*
X6416040Y5428843D01*
X6428994Y5430621D01*
X6441592Y5434177D01*
X6453581Y5439359D01*
X6464757Y5446166D01*
X6474917Y5454446D01*
X6483858Y5463997D01*
X6491427Y5474665D01*
X6497421Y5486298D01*
X6501790Y5498642D01*
X6504482Y5511444D01*
X6505346Y5524500D01*
X6504482Y5537555D01*
X6501790Y5550357D01*
X6497421Y5562701D01*
X6491427Y5574334D01*
X6483858Y5585002D01*
X6474917Y5594604D01*
X6464757Y5602833D01*
X6453581Y5609640D01*
X6441592Y5614873D01*
X6428994Y5618378D01*
X6416040Y5620156D01*
X6402933Y5620156D01*
X6389979Y5618378D01*
X6377381Y5614873D01*
X6365392Y5609640D01*
X6354216Y5602833D01*
X6344056Y5594604D01*
X6335115Y5585002D01*
X6327546Y5574334D01*
X6321552Y5562701D01*
X6317183Y5550357D01*
X6314490Y5537555D01*
X6313627Y5524500D01*
X6314490Y5511444D01*
X6317183Y5498642D01*
X6321552Y5486298D01*
X6327546Y5474665D01*
X6335115Y5463997D01*
X6344056Y5454446D01*
X6354216Y5446166D01*
X6365392Y5439359D01*
X6377381Y5434177D01*
X6389979Y5430621D01*
G37*
G36*
X5868162Y5438190D02*
G01*
X5868162Y5483148D01*
X5823153Y5483148D01*
X5827572Y5474665D01*
X5835091Y5463997D01*
X5844032Y5454446D01*
X5854192Y5446166D01*
X5865368Y5439359D01*
G37*
G36*
X5950813Y5438190D02*
G01*
X5953607Y5439359D01*
X5964783Y5446166D01*
X5974943Y5454446D01*
X5983884Y5463997D01*
X5991402Y5474665D01*
X5995822Y5483148D01*
X5950813Y5483148D01*
G37*
G36*
X5588000Y5447792D02*
G01*
X5603392Y5448757D01*
X5618530Y5451500D01*
X5633212Y5456072D01*
X5647232Y5462422D01*
X5660440Y5470398D01*
X5672531Y5479897D01*
X5683402Y5490768D01*
X5692902Y5502859D01*
X5700877Y5516067D01*
X5707227Y5530088D01*
X5711799Y5544769D01*
X5714542Y5559907D01*
X5715508Y5575300D01*
X5714542Y5590692D01*
X5711799Y5605830D01*
X5707227Y5620512D01*
X5700877Y5634532D01*
X5692902Y5647740D01*
X5683402Y5659831D01*
X5672531Y5670702D01*
X5660440Y5680202D01*
X5647232Y5688177D01*
X5633212Y5694527D01*
X5618530Y5699099D01*
X5603392Y5701842D01*
X5588000Y5702808D01*
X5572607Y5701842D01*
X5557469Y5699099D01*
X5542788Y5694527D01*
X5528767Y5688177D01*
X5515559Y5680202D01*
X5503468Y5670702D01*
X5492597Y5659831D01*
X5483098Y5647740D01*
X5475122Y5634532D01*
X5468772Y5620512D01*
X5464200Y5605830D01*
X5461457Y5590692D01*
X5460492Y5575300D01*
X5461457Y5559907D01*
X5464200Y5544769D01*
X5468772Y5530088D01*
X5475122Y5516067D01*
X5483098Y5502859D01*
X5492597Y5490768D01*
X5503468Y5479897D01*
X5515559Y5470398D01*
X5528767Y5462422D01*
X5542788Y5456072D01*
X5557469Y5451500D01*
X5572607Y5448757D01*
G37*
G36*
X6731000Y5460492D02*
G01*
X6746392Y5461457D01*
X6761530Y5464200D01*
X6776212Y5468772D01*
X6790232Y5475122D01*
X6803440Y5483098D01*
X6815531Y5492597D01*
X6826402Y5503468D01*
X6835902Y5515559D01*
X6843877Y5528767D01*
X6850227Y5542788D01*
X6854799Y5557469D01*
X6857542Y5572607D01*
X6858508Y5588000D01*
X6857542Y5603392D01*
X6854799Y5618530D01*
X6850227Y5633212D01*
X6843877Y5647232D01*
X6835902Y5660440D01*
X6826402Y5672531D01*
X6815531Y5683402D01*
X6803440Y5692902D01*
X6790232Y5700877D01*
X6776212Y5707227D01*
X6761530Y5711799D01*
X6746392Y5714542D01*
X6731000Y5715508D01*
X6715607Y5714542D01*
X6700469Y5711799D01*
X6685788Y5707227D01*
X6671767Y5700877D01*
X6658559Y5692902D01*
X6646468Y5683402D01*
X6635597Y5672531D01*
X6626098Y5660440D01*
X6618122Y5647232D01*
X6611772Y5633212D01*
X6607200Y5618530D01*
X6604457Y5603392D01*
X6603492Y5588000D01*
X6604457Y5572607D01*
X6607200Y5557469D01*
X6611772Y5542788D01*
X6618122Y5528767D01*
X6626098Y5515559D01*
X6635597Y5503468D01*
X6646468Y5492597D01*
X6658559Y5483098D01*
X6671767Y5475122D01*
X6685788Y5468772D01*
X6700469Y5464200D01*
X6715607Y5461457D01*
G37*
G36*
X5823153Y5565851D02*
G01*
X5868162Y5565851D01*
X5868162Y5610860D01*
X5865368Y5609640D01*
X5854192Y5602833D01*
X5844032Y5594604D01*
X5835091Y5585002D01*
X5827572Y5574334D01*
G37*
G36*
X5950813Y5565851D02*
G01*
X5995822Y5565851D01*
X5991402Y5574334D01*
X5983884Y5585002D01*
X5974943Y5594604D01*
X5964783Y5602833D01*
X5953607Y5609640D01*
X5950813Y5610860D01*
G37*
G36*
X5565851Y5823153D02*
G01*
X5574334Y5827572D01*
X5585002Y5835091D01*
X5594553Y5844032D01*
X5602833Y5854192D01*
X5609640Y5865368D01*
X5610809Y5868162D01*
X5565851Y5868162D01*
G37*
G36*
X6835851Y5823153D02*
G01*
X6844334Y5827572D01*
X6855002Y5835091D01*
X6864553Y5844032D01*
X6872833Y5854192D01*
X6879640Y5865368D01*
X6880809Y5868162D01*
X6835851Y5868162D01*
G37*
G36*
X5483148Y5823153D02*
G01*
X5483148Y5868162D01*
X5438140Y5868162D01*
X5439359Y5865368D01*
X5446166Y5854192D01*
X5454396Y5844032D01*
X5463997Y5835091D01*
X5474665Y5827572D01*
G37*
G36*
X6753148Y5823153D02*
G01*
X6753148Y5868162D01*
X6708140Y5868162D01*
X6709359Y5865368D01*
X6716166Y5854192D01*
X6724396Y5844032D01*
X6733997Y5835091D01*
X6744665Y5827572D01*
G37*
G36*
X6708140Y5950813D02*
G01*
X6753148Y5950813D01*
X6753148Y5995822D01*
X6744665Y5991402D01*
X6733997Y5983884D01*
X6724396Y5974943D01*
X6716166Y5964783D01*
X6709359Y5953607D01*
G37*
G36*
X5438140Y5950813D02*
G01*
X5483148Y5950813D01*
X5483148Y5995822D01*
X5474665Y5991402D01*
X5463997Y5983884D01*
X5454396Y5974943D01*
X5446166Y5964783D01*
X5439359Y5953607D01*
G37*
G36*
X5565851Y5950813D02*
G01*
X5610809Y5950813D01*
X5609640Y5953607D01*
X5602833Y5964783D01*
X5594553Y5974943D01*
X5585002Y5983884D01*
X5574334Y5991402D01*
X5565851Y5995822D01*
G37*
G36*
X6835851Y5950813D02*
G01*
X6880809Y5950813D01*
X6879640Y5953607D01*
X6872833Y5964783D01*
X6864553Y5974943D01*
X6855002Y5983884D01*
X6844334Y5991402D01*
X6835851Y5995822D01*
G37*
G36*
X6402933Y6063843D02*
G01*
X6416040Y6063843D01*
X6428994Y6065621D01*
X6441592Y6069177D01*
X6453581Y6074359D01*
X6464757Y6081166D01*
X6474917Y6089446D01*
X6483858Y6098997D01*
X6491427Y6109665D01*
X6497421Y6121298D01*
X6501790Y6133642D01*
X6504482Y6146444D01*
X6505346Y6159500D01*
X6504482Y6172555D01*
X6501790Y6185357D01*
X6497421Y6197701D01*
X6491427Y6209334D01*
X6483858Y6220002D01*
X6474917Y6229604D01*
X6464757Y6237833D01*
X6453581Y6244640D01*
X6441592Y6249873D01*
X6428994Y6253378D01*
X6416040Y6255156D01*
X6402933Y6255156D01*
X6389979Y6253378D01*
X6377381Y6249873D01*
X6365392Y6244640D01*
X6354216Y6237833D01*
X6344056Y6229604D01*
X6335115Y6220002D01*
X6327546Y6209334D01*
X6321552Y6197701D01*
X6317183Y6185357D01*
X6314490Y6172555D01*
X6313627Y6159500D01*
X6314490Y6146444D01*
X6317183Y6133642D01*
X6321552Y6121298D01*
X6327546Y6109665D01*
X6335115Y6098997D01*
X6344056Y6089446D01*
X6354216Y6081166D01*
X6365392Y6074359D01*
X6377381Y6069177D01*
X6389979Y6065621D01*
G37*
G36*
X5950813Y6073190D02*
G01*
X5953607Y6074359D01*
X5964783Y6081166D01*
X5974943Y6089446D01*
X5983884Y6098997D01*
X5991402Y6109665D01*
X5995822Y6118148D01*
X5950813Y6118148D01*
G37*
G36*
X5868162Y6073190D02*
G01*
X5868162Y6118148D01*
X5823153Y6118148D01*
X5827572Y6109665D01*
X5835091Y6098997D01*
X5844032Y6089446D01*
X5854192Y6081166D01*
X5865368Y6074359D01*
G37*
G36*
X5950813Y6200851D02*
G01*
X5995822Y6200851D01*
X5991402Y6209334D01*
X5983884Y6220002D01*
X5974943Y6229604D01*
X5964783Y6237833D01*
X5953607Y6244640D01*
X5950813Y6245860D01*
G37*
G36*
X5823153Y6200851D02*
G01*
X5868162Y6200851D01*
X5868162Y6245860D01*
X5865368Y6244640D01*
X5854192Y6237833D01*
X5844032Y6229604D01*
X5835091Y6220002D01*
X5827572Y6209334D01*
G37*
G36*
X6794500Y6313627D02*
G01*
X6807555Y6314490D01*
X6820357Y6317183D01*
X6832701Y6321552D01*
X6844334Y6327546D01*
X6855002Y6335115D01*
X6864553Y6344056D01*
X6872833Y6354216D01*
X6879640Y6365392D01*
X6884822Y6377381D01*
X6888378Y6389979D01*
X6890156Y6402933D01*
X6890156Y6416040D01*
X6888378Y6428994D01*
X6884822Y6441592D01*
X6879640Y6453581D01*
X6872833Y6464757D01*
X6864553Y6474917D01*
X6855002Y6483858D01*
X6844334Y6491427D01*
X6832701Y6497421D01*
X6820357Y6501790D01*
X6807555Y6504482D01*
X6794500Y6505346D01*
X6781444Y6504482D01*
X6768642Y6501790D01*
X6756298Y6497421D01*
X6744665Y6491427D01*
X6733997Y6483858D01*
X6724396Y6474917D01*
X6716166Y6464757D01*
X6709359Y6453581D01*
X6704126Y6441592D01*
X6700621Y6428994D01*
X6698843Y6416040D01*
X6698843Y6402933D01*
X6700621Y6389979D01*
X6704126Y6377381D01*
X6709359Y6365392D01*
X6716166Y6354216D01*
X6724396Y6344056D01*
X6733997Y6335115D01*
X6744665Y6327546D01*
X6756298Y6321552D01*
X6768642Y6317183D01*
X6781444Y6314490D01*
G37*
G36*
X5524500Y6313627D02*
G01*
X5537555Y6314490D01*
X5550357Y6317183D01*
X5562701Y6321552D01*
X5574334Y6327546D01*
X5585002Y6335115D01*
X5594553Y6344056D01*
X5602833Y6354216D01*
X5609640Y6365392D01*
X5614822Y6377381D01*
X5618378Y6389979D01*
X5620156Y6402933D01*
X5620156Y6416040D01*
X5618378Y6428994D01*
X5614822Y6441592D01*
X5609640Y6453581D01*
X5602833Y6464757D01*
X5594553Y6474917D01*
X5585002Y6483858D01*
X5574334Y6491427D01*
X5562701Y6497421D01*
X5550357Y6501790D01*
X5537555Y6504482D01*
X5524500Y6505346D01*
X5511444Y6504482D01*
X5498642Y6501790D01*
X5486298Y6497421D01*
X5474665Y6491427D01*
X5463997Y6483858D01*
X5454396Y6474917D01*
X5446166Y6464757D01*
X5439359Y6453581D01*
X5434126Y6441592D01*
X5430621Y6428994D01*
X5428843Y6416040D01*
X5428843Y6402933D01*
X5430621Y6389979D01*
X5434126Y6377381D01*
X5439359Y6365392D01*
X5446166Y6354216D01*
X5454396Y6344056D01*
X5463997Y6335115D01*
X5474665Y6327546D01*
X5486298Y6321552D01*
X5498642Y6317183D01*
X5511444Y6314490D01*
G37*
G36*
X6743700Y6603492D02*
G01*
X6759092Y6604457D01*
X6774230Y6607200D01*
X6788912Y6611772D01*
X6802932Y6618122D01*
X6816140Y6626098D01*
X6828231Y6635597D01*
X6839102Y6646468D01*
X6848602Y6658559D01*
X6856577Y6671767D01*
X6862927Y6685788D01*
X6867499Y6700469D01*
X6870242Y6715607D01*
X6871208Y6731000D01*
X6870242Y6746392D01*
X6867499Y6761530D01*
X6862927Y6776212D01*
X6856577Y6790232D01*
X6848602Y6803440D01*
X6839102Y6815531D01*
X6828231Y6826402D01*
X6816140Y6835902D01*
X6802932Y6843877D01*
X6788912Y6850227D01*
X6774230Y6854799D01*
X6759092Y6857542D01*
X6743700Y6858508D01*
X6728307Y6857542D01*
X6713169Y6854799D01*
X6698488Y6850227D01*
X6684467Y6843877D01*
X6671259Y6835902D01*
X6659168Y6826402D01*
X6648297Y6815531D01*
X6638798Y6803440D01*
X6630822Y6790232D01*
X6624472Y6776212D01*
X6619900Y6761530D01*
X6617157Y6746392D01*
X6616192Y6731000D01*
X6617157Y6715607D01*
X6619900Y6700469D01*
X6624472Y6685788D01*
X6630822Y6671767D01*
X6638798Y6658559D01*
X6648297Y6646468D01*
X6659168Y6635597D01*
X6671259Y6626098D01*
X6684467Y6618122D01*
X6698488Y6611772D01*
X6713169Y6607200D01*
X6728307Y6604457D01*
G37*
G36*
X5588000Y6603492D02*
G01*
X5603392Y6604457D01*
X5618530Y6607200D01*
X5633212Y6611772D01*
X5647232Y6618122D01*
X5660440Y6626098D01*
X5672531Y6635597D01*
X5683402Y6646468D01*
X5692902Y6658559D01*
X5700877Y6671767D01*
X5707227Y6685788D01*
X5711799Y6700469D01*
X5714542Y6715607D01*
X5715508Y6731000D01*
X5714542Y6746392D01*
X5711799Y6761530D01*
X5707227Y6776212D01*
X5700877Y6790232D01*
X5692902Y6803440D01*
X5683402Y6815531D01*
X5672531Y6826402D01*
X5660440Y6835902D01*
X5647232Y6843877D01*
X5633212Y6850227D01*
X5618530Y6854799D01*
X5603392Y6857542D01*
X5588000Y6858508D01*
X5572607Y6857542D01*
X5557469Y6854799D01*
X5542788Y6850227D01*
X5528767Y6843877D01*
X5515559Y6835902D01*
X5503468Y6826402D01*
X5492597Y6815531D01*
X5483098Y6803440D01*
X5475122Y6790232D01*
X5468772Y6776212D01*
X5464200Y6761530D01*
X5461457Y6746392D01*
X5460492Y6731000D01*
X5461457Y6715607D01*
X5464200Y6700469D01*
X5468772Y6685788D01*
X5475122Y6671767D01*
X5483098Y6658559D01*
X5492597Y6646468D01*
X5503468Y6635597D01*
X5515559Y6626098D01*
X5528767Y6618122D01*
X5542788Y6611772D01*
X5557469Y6607200D01*
X5572607Y6604457D01*
G37*
G36*
X6402933Y6698843D02*
G01*
X6416040Y6698843D01*
X6428994Y6700621D01*
X6441592Y6704177D01*
X6453581Y6709359D01*
X6464757Y6716166D01*
X6474917Y6724446D01*
X6483858Y6733997D01*
X6491427Y6744665D01*
X6497421Y6756298D01*
X6501790Y6768642D01*
X6504482Y6781444D01*
X6505346Y6794500D01*
X6504482Y6807555D01*
X6501790Y6820357D01*
X6497421Y6832701D01*
X6491427Y6844334D01*
X6483858Y6855002D01*
X6474917Y6864603D01*
X6464757Y6872833D01*
X6453581Y6879640D01*
X6441592Y6884873D01*
X6428994Y6888378D01*
X6416040Y6890156D01*
X6402933Y6890156D01*
X6389979Y6888378D01*
X6377381Y6884873D01*
X6365392Y6879640D01*
X6354216Y6872833D01*
X6344056Y6864603D01*
X6335115Y6855002D01*
X6327546Y6844334D01*
X6321552Y6832701D01*
X6317183Y6820357D01*
X6314490Y6807555D01*
X6313627Y6794500D01*
X6314490Y6781444D01*
X6317183Y6768642D01*
X6321552Y6756298D01*
X6327546Y6744665D01*
X6335115Y6733997D01*
X6344056Y6724446D01*
X6354216Y6716166D01*
X6365392Y6709359D01*
X6377381Y6704177D01*
X6389979Y6700621D01*
G37*
G36*
X5950813Y6708190D02*
G01*
X5953607Y6709359D01*
X5964783Y6716166D01*
X5974943Y6724446D01*
X5983884Y6733997D01*
X5991402Y6744665D01*
X5995822Y6753148D01*
X5950813Y6753148D01*
G37*
G36*
X5868162Y6708190D02*
G01*
X5868162Y6753148D01*
X5823153Y6753148D01*
X5827572Y6744665D01*
X5835091Y6733997D01*
X5844032Y6724446D01*
X5854192Y6716166D01*
X5865368Y6709359D01*
G37*
G36*
X5950813Y6835851D02*
G01*
X5995822Y6835851D01*
X5991402Y6844334D01*
X5983884Y6855002D01*
X5974943Y6864603D01*
X5964783Y6872833D01*
X5953607Y6879640D01*
X5950813Y6880859D01*
G37*
G36*
X5823153Y6835851D02*
G01*
X5868162Y6835851D01*
X5868162Y6880859D01*
X5865368Y6879640D01*
X5854192Y6872833D01*
X5844032Y6864603D01*
X5835091Y6855002D01*
X5827572Y6844334D01*
G37*

%LPD*%
D10*
X5909500Y6159500D02*
G01*
X6061900Y6007100D01*
X6696900Y6007100D01*
X6794500Y5909500D01*
D11*
G01*
X5909513Y6159500D03*
G01*
X6409512Y6159500D03*
G01*
X5524500Y5909487D03*
G01*
X5524500Y6409486D03*
G01*
X6794500Y5909487D03*
G01*
X6794500Y6409486D03*
G01*
X5909513Y5524500D03*
G01*
X6409512Y5524500D03*
G01*
X5909513Y6794500D03*
G01*
X6409512Y6794500D03*
D12*
G01*
X6578600Y6540500D03*
M02*
