G04 Layer: TopSilkscreenLayer*
G04 EasyEDA v6.5.40, 2024-06-15 17:03:23*
G04 e63031535b224d068feaf967c7116de5,10*
G04 Gerber Generator version 0.2*
G04 Scale: 100 percent, Rotated: No, Reflected: No *
G04 Dimensions in millimeters *
G04 leading zeros omitted , absolute positions ,4 integer and 5 decimal *
%FSLAX45Y45*%
%MOMM*%

%ADD10C,0.1524*%
%ADD11C,0.2540*%

%LPD*%
D10*
X5511800Y5853684D02*
G01*
X5511800Y5931662D01*
X5506720Y5947155D01*
X5496306Y5957570D01*
X5480558Y5962650D01*
X5470143Y5962650D01*
X5454650Y5957570D01*
X5444236Y5947155D01*
X5439156Y5931662D01*
X5439156Y5853684D01*
X5404865Y5874512D02*
G01*
X5394452Y5869178D01*
X5378704Y5853684D01*
X5378704Y5962650D01*
X5967984Y6819900D02*
G01*
X6045961Y6819900D01*
X6061456Y6824979D01*
X6071870Y6835394D01*
X6076950Y6851142D01*
X6076950Y6861555D01*
X6071870Y6877050D01*
X6061456Y6887463D01*
X6045961Y6892544D01*
X5967984Y6892544D01*
X5993891Y6932168D02*
G01*
X5988811Y6932168D01*
X5978397Y6937247D01*
X5973063Y6942581D01*
X5967984Y6952995D01*
X5967984Y6973570D01*
X5973063Y6983984D01*
X5978397Y6989318D01*
X5988811Y6994397D01*
X5999225Y6994397D01*
X6009640Y6989318D01*
X6025134Y6978904D01*
X6076950Y6926834D01*
X6076950Y6999731D01*
X6232131Y6589521D02*
G01*
X6221717Y6599936D01*
X6206223Y6605015D01*
X6185395Y6605015D01*
X6169901Y6599936D01*
X6159487Y6589521D01*
X6159487Y6579108D01*
X6164567Y6568694D01*
X6169901Y6563360D01*
X6180315Y6558279D01*
X6211557Y6547865D01*
X6221717Y6542786D01*
X6227051Y6537452D01*
X6232131Y6527037D01*
X6232131Y6511544D01*
X6221717Y6501129D01*
X6206223Y6496050D01*
X6185395Y6496050D01*
X6169901Y6501129D01*
X6159487Y6511544D01*
X6266421Y6605015D02*
G01*
X6292583Y6496050D01*
X6318491Y6605015D02*
G01*
X6292583Y6496050D01*
X6318491Y6605015D02*
G01*
X6344399Y6496050D01*
X6370307Y6605015D02*
G01*
X6344399Y6496050D01*
X6404597Y6584187D02*
G01*
X6415011Y6589521D01*
X6430759Y6605015D01*
X6430759Y6496050D01*
X5743956Y6516878D02*
G01*
X5754370Y6506463D01*
X5769863Y6501384D01*
X5790691Y6501384D01*
X5806186Y6506463D01*
X5816600Y6516878D01*
X5816600Y6527292D01*
X5811520Y6537705D01*
X5806186Y6543039D01*
X5795772Y6548120D01*
X5764529Y6558534D01*
X5754370Y6563613D01*
X5749036Y6568947D01*
X5743956Y6579362D01*
X5743956Y6594855D01*
X5754370Y6605270D01*
X5769863Y6610350D01*
X5790691Y6610350D01*
X5806186Y6605270D01*
X5816600Y6594855D01*
X5709665Y6501384D02*
G01*
X5683504Y6610350D01*
X5657595Y6501384D02*
G01*
X5683504Y6610350D01*
X5657595Y6501384D02*
G01*
X5631688Y6610350D01*
X5605779Y6501384D02*
G01*
X5631688Y6610350D01*
X5566156Y6527292D02*
G01*
X5566156Y6522212D01*
X5561075Y6511797D01*
X5555741Y6506463D01*
X5545327Y6501384D01*
X5524500Y6501384D01*
X5514340Y6506463D01*
X5509006Y6511797D01*
X5503925Y6522212D01*
X5503925Y6532626D01*
X5509006Y6543039D01*
X5519420Y6558534D01*
X5571490Y6610350D01*
X5498591Y6610350D01*
X6364477Y6232131D02*
G01*
X6354063Y6221717D01*
X6348984Y6206223D01*
X6348984Y6185395D01*
X6354063Y6169901D01*
X6364477Y6159487D01*
X6374891Y6159487D01*
X6385306Y6164567D01*
X6390640Y6169901D01*
X6395720Y6180315D01*
X6406134Y6211557D01*
X6411213Y6221717D01*
X6416547Y6227051D01*
X6426961Y6232131D01*
X6442456Y6232131D01*
X6452870Y6221717D01*
X6457950Y6206223D01*
X6457950Y6185395D01*
X6452870Y6169901D01*
X6442456Y6159487D01*
X6348984Y6266421D02*
G01*
X6457950Y6292583D01*
X6348984Y6318491D02*
G01*
X6457950Y6292583D01*
X6348984Y6318491D02*
G01*
X6457950Y6344399D01*
X6348984Y6370307D02*
G01*
X6457950Y6344399D01*
X6348984Y6415011D02*
G01*
X6348984Y6472161D01*
X6390640Y6441173D01*
X6390640Y6456667D01*
X6395720Y6467081D01*
X6400800Y6472161D01*
X6416547Y6477495D01*
X6426961Y6477495D01*
X6442456Y6472161D01*
X6452870Y6461747D01*
X6457950Y6446253D01*
X6457950Y6430759D01*
X6452870Y6415011D01*
X6447790Y6409931D01*
X6437375Y6404597D01*
X6232131Y5954521D02*
G01*
X6221717Y5964936D01*
X6206223Y5970015D01*
X6185395Y5970015D01*
X6169901Y5964936D01*
X6159487Y5954521D01*
X6159487Y5944107D01*
X6164567Y5933694D01*
X6169901Y5928360D01*
X6180315Y5923279D01*
X6211557Y5912865D01*
X6221717Y5907786D01*
X6227051Y5902452D01*
X6232131Y5892037D01*
X6232131Y5876544D01*
X6221717Y5866129D01*
X6206223Y5861050D01*
X6185395Y5861050D01*
X6169901Y5866129D01*
X6159487Y5876544D01*
X6266421Y5970015D02*
G01*
X6292583Y5861050D01*
X6318491Y5970015D02*
G01*
X6292583Y5861050D01*
X6318491Y5970015D02*
G01*
X6344399Y5861050D01*
X6370307Y5970015D02*
G01*
X6344399Y5861050D01*
X6456667Y5970015D02*
G01*
X6404597Y5897371D01*
X6482575Y5897371D01*
X6456667Y5970015D02*
G01*
X6456667Y5861050D01*
X6232131Y7224521D02*
G01*
X6221717Y7234936D01*
X6206223Y7240015D01*
X6185395Y7240015D01*
X6169901Y7234936D01*
X6159487Y7224521D01*
X6159487Y7214108D01*
X6164567Y7203694D01*
X6169901Y7198360D01*
X6180315Y7193279D01*
X6211557Y7182865D01*
X6221717Y7177786D01*
X6227051Y7172452D01*
X6232131Y7162037D01*
X6232131Y7146544D01*
X6221717Y7136129D01*
X6206223Y7131050D01*
X6185395Y7131050D01*
X6169901Y7136129D01*
X6159487Y7146544D01*
X6266421Y7240015D02*
G01*
X6292583Y7131050D01*
X6318491Y7240015D02*
G01*
X6292583Y7131050D01*
X6318491Y7240015D02*
G01*
X6344399Y7131050D01*
X6370307Y7240015D02*
G01*
X6344399Y7131050D01*
X6467081Y7224521D02*
G01*
X6461747Y7234936D01*
X6446253Y7240015D01*
X6435839Y7240015D01*
X6420345Y7234936D01*
X6409931Y7219187D01*
X6404597Y7193279D01*
X6404597Y7167371D01*
X6409931Y7146544D01*
X6420345Y7136129D01*
X6435839Y7131050D01*
X6441173Y7131050D01*
X6456667Y7136129D01*
X6467081Y7146544D01*
X6472161Y7162037D01*
X6472161Y7167371D01*
X6467081Y7182865D01*
X6456667Y7193279D01*
X6441173Y7198360D01*
X6435839Y7198360D01*
X6420345Y7193279D01*
X6409931Y7182865D01*
X6404597Y7167371D01*
D11*
X5859487Y6075131D02*
G01*
X5859487Y6045321D01*
X5859487Y6273678D02*
G01*
X5859487Y6243868D01*
X6459486Y6075116D02*
G01*
X6459486Y6045321D01*
X6459486Y6273678D02*
G01*
X6459486Y6243883D01*
X5859487Y6459499D02*
G01*
X6459486Y6459499D01*
X6459486Y6273678D01*
X6459486Y6045321D02*
G01*
X6459486Y5859500D01*
X5859487Y5859500D01*
X5859487Y6045321D01*
X5859487Y6273678D02*
G01*
X5859487Y6459499D01*
X5608868Y5859487D02*
G01*
X5638678Y5859487D01*
X5410321Y5859487D02*
G01*
X5440131Y5859487D01*
X5608883Y6459486D02*
G01*
X5638678Y6459486D01*
X5410321Y6459486D02*
G01*
X5440116Y6459486D01*
X5224500Y5859487D02*
G01*
X5224500Y6459486D01*
X5410321Y6459486D01*
X5638678Y6459486D02*
G01*
X5824499Y6459486D01*
X5824499Y5859487D01*
X5638678Y5859487D01*
X5410321Y5859487D02*
G01*
X5224500Y5859487D01*
X6878868Y5859487D02*
G01*
X6908678Y5859487D01*
X6680321Y5859487D02*
G01*
X6710131Y5859487D01*
X6878883Y6459486D02*
G01*
X6908678Y6459486D01*
X6680321Y6459486D02*
G01*
X6710116Y6459486D01*
X6494500Y5859487D02*
G01*
X6494500Y6459486D01*
X6680321Y6459486D01*
X6908678Y6459486D02*
G01*
X7094499Y6459486D01*
X7094499Y5859487D01*
X6908678Y5859487D01*
X6680321Y5859487D02*
G01*
X6494500Y5859487D01*
X5859487Y5440131D02*
G01*
X5859487Y5410321D01*
X5859487Y5638678D02*
G01*
X5859487Y5608868D01*
X6459486Y5440116D02*
G01*
X6459486Y5410321D01*
X6459486Y5638678D02*
G01*
X6459486Y5608883D01*
X5859487Y5824499D02*
G01*
X6459486Y5824499D01*
X6459486Y5638678D01*
X6459486Y5410321D02*
G01*
X6459486Y5224500D01*
X5859487Y5224500D01*
X5859487Y5410321D01*
X5859487Y5638678D02*
G01*
X5859487Y5824499D01*
X5859487Y6710131D02*
G01*
X5859487Y6680321D01*
X5859487Y6908678D02*
G01*
X5859487Y6878868D01*
X6459486Y6710116D02*
G01*
X6459486Y6680321D01*
X6459486Y6908678D02*
G01*
X6459486Y6878883D01*
X5859487Y7094499D02*
G01*
X6459486Y7094499D01*
X6459486Y6908678D01*
X6459486Y6680321D02*
G01*
X6459486Y6494500D01*
X5859487Y6494500D01*
X5859487Y6680321D01*
X5859487Y6908678D02*
G01*
X5859487Y7094499D01*
G75*
G01
X6286500Y6159500D02*
G03X6286500Y6159500I-127000J0D01*
G75*
G01
X6352261Y6349492D02*
G03X6352261Y6349492I-42748J0D01*
G75*
G01
X6062243Y6349492D02*
G03X6062243Y6349492I-42748J0D01*
G75*
G01
X6062243Y5969508D02*
G03X6062243Y5969508I-42748J0D01*
G75*
G01
X6352261Y5969508D02*
G03X6352261Y5969508I-42748J0D01*
G75*
G01
X5651500Y6159475D02*
G03X5651500Y6159475I-127000J0D01*
G75*
G01
X5377256Y6309487D02*
G03X5377256Y6309487I-42748J0D01*
G75*
G01
X5377256Y6019470D02*
G03X5377256Y6019470I-42748J0D01*
G75*
G01
X5757240Y6019470D02*
G03X5757240Y6019470I-42748J0D01*
G75*
G01
X5757240Y6309487D02*
G03X5757240Y6309487I-42748J0D01*
G75*
G01
X6921500Y6159475D02*
G03X6921500Y6159475I-127000J0D01*
G75*
G01
X6647256Y6309487D02*
G03X6647256Y6309487I-42748J0D01*
G75*
G01
X6647256Y6019470D02*
G03X6647256Y6019470I-42748J0D01*
G75*
G01
X7027240Y6019470D02*
G03X7027240Y6019470I-42748J0D01*
G75*
G01
X7027240Y6309487D02*
G03X7027240Y6309487I-42748J0D01*
G75*
G01
X6286500Y5524500D02*
G03X6286500Y5524500I-127000J0D01*
G75*
G01
X6352261Y5714492D02*
G03X6352261Y5714492I-42748J0D01*
G75*
G01
X6062243Y5714492D02*
G03X6062243Y5714492I-42748J0D01*
G75*
G01
X6062243Y5334508D02*
G03X6062243Y5334508I-42748J0D01*
G75*
G01
X6352261Y5334508D02*
G03X6352261Y5334508I-42748J0D01*
G75*
G01
X6286500Y6794500D02*
G03X6286500Y6794500I-127000J0D01*
G75*
G01
X6352261Y6984492D02*
G03X6352261Y6984492I-42748J0D01*
G75*
G01
X6062243Y6984492D02*
G03X6062243Y6984492I-42748J0D01*
G75*
G01
X6062243Y6604508D02*
G03X6062243Y6604508I-42748J0D01*
G75*
G01
X6352261Y6604508D02*
G03X6352261Y6604508I-42748J0D01*
M02*
