M48
METRIC,LZ,000.000
;FILE_FORMAT=3:3
;TYPE=PLATED
;Layer: PTH_Through_Via
;EasyEDA v6.5.40, 2024-06-15 16:39:10
;e63031535b224d068feaf967c7116de5,10
;Gerber Generator version 0.2
;Holesize 1 = 0.310 mm
T01C0.310
%
G05
G90
T01
X107950Y045813
X107696Y059309
X105664Y060334
X096520Y069977
X105918Y046491
X096323Y071247
X076962Y046067
X076962Y055245
X076962Y052959
X081407Y067310
X083566Y065786
X077597Y068445
X088773Y069215
X088782Y067564
X091440Y067691
X093218Y065151
X094107Y073533
X079375Y046863
X096266Y072390
X101727Y072898
X102997Y073533
X097917Y073406
X096647Y073787
X095377Y073787
X095250Y065278
X093980Y067818
X093980Y068834
X084455Y065659
X084201Y069469
X102997Y062992
X101600Y065405
X086106Y067945
X096647Y068834
X097917Y066294
X100457Y066421
X099187Y066294
X099187Y075219
X100457Y075219
X076454Y062230
X076454Y064262
X089027Y063500
X076708Y060452
X076962Y054483
X076962Y053721
X077724Y055245
X077724Y054483
X077724Y053721
X077724Y052959
X076962Y052197
X077724Y052197
X079629Y059055
X087757Y065913
X107950Y055245
X107950Y054483
X107950Y053721
X107950Y052959
X107950Y052197
X083947Y063500
X086487Y063500
X102108Y068961
X099822Y073406
M30
