G04 Layer: BottomLayer*
G04 EasyEDA v6.5.40, 2024-06-15 16:39:10*
G04 e63031535b224d068feaf967c7116de5,10*
G04 Gerber Generator version 0.2*
G04 Scale: 100 percent, Rotated: No, Reflected: No *
G04 Dimensions in millimeters *
G04 leading zeros omitted , absolute positions ,4 integer and 5 decimal *
%FSLAX45Y45*%
%MOMM*%

%AMMACRO1*21,1,$1,$2,0,0,$3*%
%ADD10C,0.2540*%
%ADD11C,1.5000*%
%ADD12MACRO1,4.2X3.8X0.0000*%
%ADD13O,1.1999976X1.9999959999999999*%
%ADD14C,0.6200*%
%ADD15C,0.0104*%

%LPD*%
G36*
X9961321Y7309561D02*
G01*
X9957562Y7310780D01*
X9954564Y7313320D01*
X9952786Y7316774D01*
X9952431Y7320686D01*
X9954310Y7325868D01*
X9956495Y7333081D01*
X9957308Y7341108D01*
X9957308Y7476185D01*
X9958019Y7479995D01*
X9960152Y7483246D01*
X9962946Y7486192D01*
X9968331Y7494168D01*
X9972446Y7503414D01*
X9974376Y7507224D01*
X9977678Y7509916D01*
X9981844Y7510983D01*
X9986060Y7510272D01*
X9989616Y7507884D01*
X9991852Y7504226D01*
X9993884Y7498486D01*
X9998557Y7490053D01*
X10004856Y7482331D01*
X10006533Y7479334D01*
X10007092Y7475931D01*
X10007092Y7324394D01*
X10006330Y7320534D01*
X10004094Y7317231D01*
X10000843Y7315047D01*
X9996932Y7314234D01*
X9988143Y7314234D01*
X9974783Y7312456D01*
X9965232Y7309815D01*
G37*

%LPD*%
G36*
X10008311Y6768490D02*
G01*
X10004145Y6770065D01*
X10001097Y6773316D01*
X9999675Y6777532D01*
X10000234Y6781952D01*
X10002621Y6785711D01*
X10160304Y6943394D01*
X10163606Y6945630D01*
X10167518Y6946392D01*
X10263682Y6946392D01*
X10267442Y6945680D01*
X10270642Y6943598D01*
X10272877Y6940499D01*
X10274706Y6936536D01*
X10281970Y6925157D01*
X10290657Y6914845D01*
X10300665Y6905802D01*
X10312095Y6897979D01*
X10314889Y6895084D01*
X10316362Y6891324D01*
X10316210Y6887260D01*
X10314533Y6883603D01*
X10311536Y6880859D01*
X10306100Y6877659D01*
X10295534Y6869328D01*
X10286136Y6859625D01*
X10278160Y6848805D01*
X10271709Y6836968D01*
X10266832Y6824370D01*
X10263733Y6811264D01*
X10262362Y6797852D01*
X10262819Y6784390D01*
X10263327Y6781444D01*
X10263124Y6777075D01*
X10261041Y6773214D01*
X10257586Y6770573D01*
X10253319Y6769608D01*
X10020808Y6769608D01*
G37*

%LPD*%
G36*
X10462768Y4483608D02*
G01*
X10458856Y4484370D01*
X10455605Y4486605D01*
X10453370Y4489856D01*
X10452608Y4493768D01*
X10452608Y4955032D01*
X10453370Y4958943D01*
X10455605Y4962194D01*
X10458856Y4964430D01*
X10462768Y4965192D01*
X10730890Y4965192D01*
X10737392Y4966004D01*
X10742930Y4968087D01*
X10748060Y4971643D01*
X10751108Y4974640D01*
X10753750Y4978247D01*
X10756239Y4983784D01*
X10757408Y4991252D01*
X10757408Y5752490D01*
X10756595Y5758992D01*
X10754512Y5764530D01*
X10750956Y5769660D01*
X10747959Y5772708D01*
X10744352Y5775350D01*
X10738815Y5777839D01*
X10731347Y5779008D01*
X10475468Y5779008D01*
X10471556Y5779770D01*
X10468305Y5782005D01*
X10466070Y5785256D01*
X10465308Y5789168D01*
X10465308Y6209690D01*
X10464495Y6216192D01*
X10462412Y6221730D01*
X10458856Y6226860D01*
X10455859Y6229908D01*
X10452252Y6232550D01*
X10446715Y6235039D01*
X10439247Y6236208D01*
X10340644Y6236208D01*
X10336530Y6237071D01*
X10333126Y6239560D01*
X10330992Y6243167D01*
X10330535Y6247384D01*
X10331805Y6251397D01*
X10334599Y6254546D01*
X10337292Y6256528D01*
X10343946Y6263487D01*
X10349331Y6271463D01*
X10353344Y6280251D01*
X10355732Y6289598D01*
X10356596Y6299200D01*
X10355732Y6308801D01*
X10353344Y6318148D01*
X10349331Y6326936D01*
X10343946Y6334912D01*
X10337292Y6341872D01*
X10329519Y6347612D01*
X10320883Y6351981D01*
X10311688Y6354775D01*
X10302138Y6356045D01*
X10292486Y6355588D01*
X10283037Y6353556D01*
X10274096Y6350000D01*
X10265867Y6344920D01*
X10258653Y6338570D01*
X10252557Y6331051D01*
X10247884Y6322618D01*
X10244683Y6313525D01*
X10243058Y6304026D01*
X10243058Y6294374D01*
X10244683Y6284874D01*
X10247884Y6275781D01*
X10252557Y6267348D01*
X10258653Y6259830D01*
X10265308Y6253988D01*
X10267746Y6250736D01*
X10268712Y6246774D01*
X10268102Y6242761D01*
X10265918Y6239357D01*
X10262565Y6237020D01*
X10258602Y6236208D01*
X8942070Y6236208D01*
X8938107Y6237020D01*
X8934805Y6239306D01*
X8932621Y6242710D01*
X8931960Y6246723D01*
X8932875Y6250635D01*
X8935262Y6253886D01*
X8938768Y6255969D01*
X8942070Y6257137D01*
X8954109Y6263182D01*
X8965234Y6270802D01*
X8975242Y6279845D01*
X8983929Y6290157D01*
X8991193Y6301536D01*
X8996832Y6313728D01*
X9000845Y6326632D01*
X9003080Y6339890D01*
X9003538Y6353352D01*
X9002166Y6366764D01*
X8999067Y6379870D01*
X8994190Y6392468D01*
X8987739Y6404305D01*
X8979763Y6415125D01*
X8970365Y6424828D01*
X8959799Y6433159D01*
X8948216Y6440017D01*
X8935770Y6445300D01*
X8922816Y6448856D01*
X8909456Y6450634D01*
X8895943Y6450634D01*
X8882583Y6448856D01*
X8869629Y6445300D01*
X8857183Y6440017D01*
X8845600Y6433159D01*
X8835034Y6424828D01*
X8825636Y6415125D01*
X8817660Y6404305D01*
X8811209Y6392468D01*
X8806332Y6379870D01*
X8803233Y6366764D01*
X8801862Y6353352D01*
X8802319Y6339890D01*
X8804554Y6326632D01*
X8808567Y6313728D01*
X8814206Y6301536D01*
X8821470Y6290157D01*
X8830157Y6279845D01*
X8840165Y6270802D01*
X8851290Y6263182D01*
X8863330Y6257137D01*
X8866632Y6255969D01*
X8870137Y6253886D01*
X8872524Y6250635D01*
X8873439Y6246723D01*
X8872778Y6242710D01*
X8870594Y6239306D01*
X8867292Y6237020D01*
X8863330Y6236208D01*
X8688070Y6236208D01*
X8684107Y6237020D01*
X8680805Y6239306D01*
X8678621Y6242710D01*
X8677960Y6246723D01*
X8678875Y6250635D01*
X8681262Y6253886D01*
X8684768Y6255969D01*
X8688070Y6257137D01*
X8700109Y6263182D01*
X8711234Y6270802D01*
X8721242Y6279845D01*
X8729929Y6290157D01*
X8737193Y6301536D01*
X8742832Y6313728D01*
X8746845Y6326632D01*
X8749080Y6339890D01*
X8749538Y6353352D01*
X8748166Y6366764D01*
X8745067Y6379870D01*
X8740190Y6392468D01*
X8733739Y6404305D01*
X8725763Y6415125D01*
X8716365Y6424828D01*
X8705799Y6433159D01*
X8694216Y6440017D01*
X8681770Y6445300D01*
X8668816Y6448856D01*
X8655456Y6450634D01*
X8641943Y6450634D01*
X8628583Y6448856D01*
X8615629Y6445300D01*
X8603183Y6440017D01*
X8591600Y6433159D01*
X8581034Y6424828D01*
X8571636Y6415125D01*
X8563660Y6404305D01*
X8557209Y6392468D01*
X8552332Y6379870D01*
X8549233Y6366764D01*
X8547862Y6353352D01*
X8548319Y6339890D01*
X8550554Y6326632D01*
X8554567Y6313728D01*
X8560206Y6301536D01*
X8567470Y6290157D01*
X8576157Y6279845D01*
X8586165Y6270802D01*
X8597290Y6263182D01*
X8609330Y6257137D01*
X8612632Y6255969D01*
X8616137Y6253886D01*
X8618524Y6250635D01*
X8619439Y6246723D01*
X8618778Y6242710D01*
X8616594Y6239306D01*
X8613292Y6237020D01*
X8609330Y6236208D01*
X8434070Y6236208D01*
X8430107Y6237020D01*
X8426805Y6239306D01*
X8424621Y6242710D01*
X8423960Y6246723D01*
X8424875Y6250635D01*
X8427262Y6253886D01*
X8430768Y6255969D01*
X8434070Y6257137D01*
X8446109Y6263182D01*
X8457234Y6270802D01*
X8467242Y6279845D01*
X8475929Y6290157D01*
X8483193Y6301536D01*
X8488832Y6313728D01*
X8492845Y6326632D01*
X8495080Y6339890D01*
X8495538Y6353352D01*
X8494166Y6366764D01*
X8491067Y6379870D01*
X8486190Y6392468D01*
X8479739Y6404305D01*
X8471763Y6415125D01*
X8462365Y6424828D01*
X8451799Y6433159D01*
X8440216Y6440017D01*
X8427770Y6445300D01*
X8414816Y6448856D01*
X8401456Y6450634D01*
X8387943Y6450634D01*
X8374583Y6448856D01*
X8361629Y6445300D01*
X8349183Y6440017D01*
X8337600Y6433159D01*
X8327034Y6424828D01*
X8317636Y6415125D01*
X8309660Y6404305D01*
X8303209Y6392468D01*
X8298332Y6379870D01*
X8295233Y6366764D01*
X8293862Y6353352D01*
X8294319Y6339890D01*
X8296554Y6326632D01*
X8300567Y6313728D01*
X8306206Y6301536D01*
X8313470Y6290157D01*
X8322157Y6279845D01*
X8332165Y6270802D01*
X8343290Y6263182D01*
X8355330Y6257137D01*
X8358631Y6255969D01*
X8362137Y6253886D01*
X8364524Y6250635D01*
X8365439Y6246723D01*
X8364778Y6242710D01*
X8362594Y6239306D01*
X8359292Y6237020D01*
X8355330Y6236208D01*
X8180070Y6236208D01*
X8177275Y6236766D01*
X8174380Y6236208D01*
X8107019Y6236208D01*
X8104124Y6236766D01*
X8101330Y6236208D01*
X8077809Y6236208D01*
X8071307Y6235395D01*
X8065770Y6233312D01*
X8060639Y6229756D01*
X8057591Y6226759D01*
X8054949Y6223152D01*
X8052460Y6217615D01*
X8051292Y6210147D01*
X8051292Y5801868D01*
X8050530Y5797956D01*
X8048294Y5794705D01*
X8045043Y5792470D01*
X8041131Y5791708D01*
X7579868Y5791708D01*
X7575956Y5792470D01*
X7572705Y5794705D01*
X7570470Y5797956D01*
X7569708Y5801868D01*
X7569708Y5930392D01*
X7570673Y5934659D01*
X7573314Y5938113D01*
X7577175Y5940145D01*
X7581544Y5940399D01*
X7585608Y5938723D01*
X7593990Y5932982D01*
X7601559Y5929172D01*
X7601559Y5975959D01*
X7579868Y5975959D01*
X7575956Y5976721D01*
X7572705Y5978906D01*
X7570470Y5982208D01*
X7569708Y5986119D01*
X7569708Y6053480D01*
X7570470Y6057392D01*
X7572705Y6060694D01*
X7575956Y6062878D01*
X7579868Y6063640D01*
X7601559Y6063640D01*
X7601559Y6110528D01*
X7599883Y6109817D01*
X7588300Y6102959D01*
X7586167Y6101283D01*
X7582103Y6099352D01*
X7577581Y6099352D01*
X7573518Y6101334D01*
X7570724Y6104839D01*
X7569708Y6109258D01*
X7569708Y6133592D01*
X7570673Y6137859D01*
X7573314Y6141313D01*
X7577175Y6143345D01*
X7581544Y6143599D01*
X7585608Y6141923D01*
X7593990Y6136182D01*
X7605522Y6130391D01*
X7608519Y6128054D01*
X7609128Y6127038D01*
X7611211Y6127546D01*
X7615021Y6126988D01*
X7618730Y6125718D01*
X7631938Y6123025D01*
X7645400Y6122111D01*
X7658862Y6123025D01*
X7672070Y6125718D01*
X7675778Y6126988D01*
X7679588Y6127546D01*
X7681671Y6127038D01*
X7682280Y6128054D01*
X7685278Y6130391D01*
X7696809Y6136182D01*
X7707934Y6143802D01*
X7717942Y6152845D01*
X7726629Y6163157D01*
X7733893Y6174536D01*
X7739532Y6186728D01*
X7743545Y6199632D01*
X7745780Y6212890D01*
X7746238Y6226352D01*
X7744866Y6239764D01*
X7741767Y6252870D01*
X7736890Y6265468D01*
X7730439Y6277305D01*
X7722463Y6288125D01*
X7713065Y6297828D01*
X7702499Y6306159D01*
X7690916Y6313017D01*
X7678470Y6318300D01*
X7668056Y6321145D01*
X7664094Y6323279D01*
X7661402Y6326886D01*
X7660589Y6331305D01*
X7661706Y6335623D01*
X7664602Y6339078D01*
X7668717Y6340906D01*
X7672070Y6341618D01*
X7684770Y6346037D01*
X7696809Y6352082D01*
X7707934Y6359702D01*
X7717942Y6368745D01*
X7726629Y6379057D01*
X7733893Y6390436D01*
X7736433Y6395872D01*
X7738973Y6399276D01*
X7742681Y6401358D01*
X7749031Y6403289D01*
X7755737Y6406845D01*
X7761935Y6411976D01*
X8115604Y6765594D01*
X8118906Y6767830D01*
X8122818Y6768592D01*
X8349081Y6768592D01*
X8352993Y6767830D01*
X8356295Y6765594D01*
X8481364Y6640575D01*
X8487562Y6635445D01*
X8494268Y6631889D01*
X8501481Y6629704D01*
X8509508Y6628892D01*
X8788654Y6628892D01*
X8796680Y6629704D01*
X8803894Y6631889D01*
X8810599Y6635445D01*
X8816797Y6640575D01*
X8872880Y6696608D01*
X8876385Y6698894D01*
X8890152Y6700824D01*
X8899347Y6703618D01*
X8907983Y6707987D01*
X8915755Y6713728D01*
X8922410Y6720687D01*
X8927795Y6728663D01*
X8931808Y6737451D01*
X8934196Y6746798D01*
X8935059Y6756400D01*
X8934196Y6766001D01*
X8931808Y6775348D01*
X8927795Y6784136D01*
X8922410Y6792112D01*
X8915755Y6799072D01*
X8907983Y6804812D01*
X8899347Y6809181D01*
X8893352Y6811009D01*
X8889695Y6813042D01*
X8887155Y6816293D01*
X8886139Y6820357D01*
X8886850Y6824421D01*
X8889136Y6827926D01*
X8904224Y6843064D01*
X8909354Y6849262D01*
X8912910Y6855968D01*
X8915095Y6863181D01*
X8915908Y6871208D01*
X8915908Y6875780D01*
X8916619Y6879590D01*
X8918752Y6882841D01*
X8921546Y6885787D01*
X8926931Y6893763D01*
X8930944Y6902551D01*
X8933332Y6911898D01*
X8934196Y6921500D01*
X8933332Y6931101D01*
X8930944Y6940448D01*
X8926931Y6949236D01*
X8921546Y6957212D01*
X8914892Y6964172D01*
X8907119Y6969912D01*
X8898483Y6974281D01*
X8889288Y6977075D01*
X8879738Y6978345D01*
X8870086Y6977888D01*
X8860637Y6975856D01*
X8851696Y6972300D01*
X8843467Y6967220D01*
X8836253Y6960870D01*
X8830157Y6953351D01*
X8825484Y6944918D01*
X8822283Y6935825D01*
X8820658Y6926325D01*
X8820658Y6916674D01*
X8822283Y6907174D01*
X8825484Y6898081D01*
X8830564Y6888988D01*
X8831783Y6884822D01*
X8831224Y6880504D01*
X8828836Y6876846D01*
X8711895Y6759905D01*
X8708593Y6757670D01*
X8704681Y6756908D01*
X8567318Y6756908D01*
X8563406Y6757670D01*
X8560104Y6759905D01*
X8440978Y6879031D01*
X8438845Y6882180D01*
X8437981Y6885889D01*
X8438591Y6889648D01*
X8440572Y6892950D01*
X8443569Y6895287D01*
X8449919Y6898487D01*
X8457692Y6904228D01*
X8464346Y6911187D01*
X8469731Y6919163D01*
X8473744Y6927951D01*
X8476132Y6937298D01*
X8476996Y6946900D01*
X8476132Y6956501D01*
X8473744Y6965848D01*
X8469731Y6974636D01*
X8464346Y6982612D01*
X8461552Y6985558D01*
X8459419Y6988809D01*
X8458708Y6992620D01*
X8458708Y6997192D01*
X8457895Y7005218D01*
X8455710Y7012431D01*
X8452154Y7019137D01*
X8447379Y7024979D01*
X8441537Y7029754D01*
X8434832Y7033310D01*
X8427618Y7035495D01*
X8419592Y7036308D01*
X7943342Y7036308D01*
X7939430Y7037070D01*
X7936179Y7039305D01*
X7933944Y7042556D01*
X7933181Y7046468D01*
X7933181Y7078268D01*
X7933842Y7081824D01*
X7935671Y7084923D01*
X7938465Y7087209D01*
X7941106Y7088631D01*
X7950962Y7095998D01*
X7959598Y7104634D01*
X7966964Y7114489D01*
X7972806Y7125208D01*
X7977124Y7136688D01*
X7979714Y7148677D01*
X7980629Y7161275D01*
X7980629Y7240524D01*
X7979714Y7253122D01*
X7977124Y7265111D01*
X7972806Y7276592D01*
X7966964Y7287310D01*
X7959598Y7297115D01*
X7950962Y7305802D01*
X7941106Y7313168D01*
X7930388Y7319009D01*
X7918907Y7323328D01*
X7906918Y7325918D01*
X7894675Y7326782D01*
X7882483Y7325918D01*
X7870494Y7323328D01*
X7859014Y7319009D01*
X7848244Y7313168D01*
X7838440Y7305802D01*
X7829803Y7297115D01*
X7822438Y7287310D01*
X7816596Y7276592D01*
X7812278Y7265111D01*
X7809687Y7253122D01*
X7808772Y7240524D01*
X7808772Y7161275D01*
X7809687Y7148677D01*
X7812278Y7136688D01*
X7816596Y7125208D01*
X7822438Y7114489D01*
X7829803Y7104634D01*
X7838440Y7095998D01*
X7848244Y7088631D01*
X7850682Y7087362D01*
X7853476Y7085075D01*
X7855305Y7081977D01*
X7855966Y7078421D01*
X7855966Y7015734D01*
X7856778Y7007707D01*
X7858963Y7000494D01*
X7862519Y6993788D01*
X7867650Y6987590D01*
X7884464Y6970775D01*
X7890662Y6965645D01*
X7897368Y6962089D01*
X7904581Y6959904D01*
X7912608Y6959092D01*
X8353298Y6959092D01*
X8357158Y6958330D01*
X8360460Y6956094D01*
X8362645Y6952843D01*
X8363458Y6948931D01*
X8363458Y6942074D01*
X8365083Y6932574D01*
X8368487Y6922871D01*
X8369046Y6919061D01*
X8368182Y6915302D01*
X8365947Y6912152D01*
X8362696Y6910019D01*
X8358936Y6909308D01*
X8103108Y6909308D01*
X8095081Y6908495D01*
X8087868Y6906310D01*
X8081162Y6902754D01*
X8074964Y6897624D01*
X7860995Y6683705D01*
X7857693Y6681470D01*
X7853781Y6680708D01*
X7745018Y6680708D01*
X7741513Y6681368D01*
X7738414Y6683197D01*
X7736128Y6685991D01*
X7730439Y6696405D01*
X7722463Y6707225D01*
X7713065Y6716928D01*
X7702499Y6725259D01*
X7690916Y6732117D01*
X7678470Y6737400D01*
X7665516Y6740956D01*
X7652156Y6742734D01*
X7638643Y6742734D01*
X7625283Y6740956D01*
X7612329Y6737400D01*
X7599883Y6732117D01*
X7588300Y6725259D01*
X7586167Y6723583D01*
X7582103Y6721652D01*
X7577581Y6721652D01*
X7573518Y6723634D01*
X7570724Y6727139D01*
X7569708Y6731558D01*
X7569708Y7393431D01*
X7570470Y7397343D01*
X7572705Y7400594D01*
X7575956Y7402830D01*
X7579868Y7403592D01*
X9206890Y7403592D01*
X9213392Y7404404D01*
X9218930Y7406487D01*
X9224060Y7410043D01*
X9227108Y7413040D01*
X9229750Y7416647D01*
X9232239Y7422184D01*
X9233408Y7429652D01*
X9233408Y7596631D01*
X9234170Y7600543D01*
X9236405Y7603794D01*
X9239656Y7606030D01*
X9243568Y7606792D01*
X10466832Y7606792D01*
X10470743Y7606030D01*
X10473994Y7603794D01*
X10476230Y7600543D01*
X10476992Y7596631D01*
X10476992Y7214768D01*
X10476230Y7210856D01*
X10473944Y7207554D01*
X10470642Y7205319D01*
X10466679Y7204608D01*
X10462768Y7205472D01*
X10459516Y7207758D01*
X10457332Y7211110D01*
X10454690Y7217968D01*
X10448239Y7229805D01*
X10440263Y7240625D01*
X10430865Y7250328D01*
X10420299Y7258659D01*
X10408716Y7265517D01*
X10396270Y7270800D01*
X10383316Y7274356D01*
X10369956Y7276134D01*
X10356443Y7276134D01*
X10343083Y7274356D01*
X10330129Y7270800D01*
X10317683Y7265517D01*
X10306100Y7258659D01*
X10295534Y7250328D01*
X10286136Y7240625D01*
X10278160Y7229805D01*
X10272471Y7219391D01*
X10270185Y7216597D01*
X10267086Y7214768D01*
X10263581Y7214108D01*
X10186924Y7214108D01*
X10182910Y7214920D01*
X10181488Y7215936D01*
X10180777Y7215022D01*
X10177221Y7213142D01*
X10170668Y7211110D01*
X10163962Y7207554D01*
X10157764Y7202424D01*
X9969195Y7013905D01*
X9965893Y7011670D01*
X9961981Y7010908D01*
X9754108Y7010908D01*
X9746081Y7010095D01*
X9738868Y7007910D01*
X9732213Y7004405D01*
X9724898Y6998258D01*
X9720986Y6996226D01*
X9716566Y6996023D01*
X9712502Y6997700D01*
X9709556Y7000951D01*
X9708235Y7005167D01*
X9708032Y7007301D01*
X9705644Y7016648D01*
X9701631Y7025436D01*
X9696246Y7033412D01*
X9689592Y7040372D01*
X9681819Y7046112D01*
X9673183Y7050481D01*
X9663988Y7053275D01*
X9659061Y7053935D01*
X9655048Y7055358D01*
X9651949Y7058304D01*
X9650374Y7062266D01*
X9650526Y7066584D01*
X9652457Y7070394D01*
X9655810Y7073087D01*
X9662109Y7076287D01*
X9669881Y7082028D01*
X9676587Y7088987D01*
X9681972Y7096963D01*
X9685934Y7105751D01*
X9688372Y7115098D01*
X9689185Y7124700D01*
X9688372Y7134301D01*
X9685934Y7143648D01*
X9681972Y7152436D01*
X9676587Y7160412D01*
X9669881Y7167372D01*
X9662109Y7173112D01*
X9659467Y7174484D01*
X9656216Y7177024D01*
X9654286Y7180681D01*
X9653930Y7184745D01*
X9655251Y7188657D01*
X9657994Y7191705D01*
X9664192Y7196328D01*
X9670846Y7203287D01*
X9673031Y7206538D01*
X9675926Y7209332D01*
X9679635Y7210806D01*
X9683597Y7210755D01*
X9687306Y7209180D01*
X9690049Y7206284D01*
X9691471Y7202525D01*
X9693554Y7190231D01*
X9697567Y7177328D01*
X9703206Y7165136D01*
X9710470Y7153757D01*
X9719157Y7143445D01*
X9729165Y7134402D01*
X9740290Y7126782D01*
X9752330Y7120737D01*
X9765030Y7116318D01*
X9778238Y7113625D01*
X9791700Y7112711D01*
X9805162Y7113625D01*
X9818370Y7116318D01*
X9831070Y7120737D01*
X9843109Y7126782D01*
X9854234Y7134402D01*
X9864242Y7143445D01*
X9872929Y7153757D01*
X9880193Y7165136D01*
X9884105Y7173569D01*
X9886340Y7176668D01*
X9889540Y7178700D01*
X9893300Y7179411D01*
X9897059Y7178700D01*
X9900259Y7176668D01*
X9902494Y7173569D01*
X9906406Y7165136D01*
X9913670Y7153757D01*
X9922357Y7143445D01*
X9932365Y7134402D01*
X9943490Y7126782D01*
X9955530Y7120737D01*
X9968230Y7116318D01*
X9981438Y7113625D01*
X9994900Y7112711D01*
X10008362Y7113625D01*
X10021570Y7116318D01*
X10034270Y7120737D01*
X10046309Y7126782D01*
X10057434Y7134402D01*
X10067442Y7143445D01*
X10076129Y7153757D01*
X10083393Y7165136D01*
X10089032Y7177328D01*
X10093045Y7190231D01*
X10095280Y7203490D01*
X10095738Y7216952D01*
X10094366Y7230364D01*
X10091267Y7243470D01*
X10086390Y7256068D01*
X10084612Y7259980D01*
X10084308Y7262520D01*
X10084308Y7476185D01*
X10085019Y7479995D01*
X10087152Y7483246D01*
X10089946Y7486192D01*
X10095331Y7494168D01*
X10099344Y7502956D01*
X10101732Y7512303D01*
X10102596Y7521905D01*
X10101732Y7531506D01*
X10099344Y7540853D01*
X10095331Y7549642D01*
X10089946Y7557617D01*
X10083292Y7564577D01*
X10075519Y7570317D01*
X10066883Y7574686D01*
X10057688Y7577480D01*
X10048138Y7578750D01*
X10038486Y7578293D01*
X10029037Y7576261D01*
X10020096Y7572705D01*
X10011867Y7567625D01*
X10004653Y7561275D01*
X9998557Y7553756D01*
X9993884Y7545324D01*
X9991852Y7539583D01*
X9989616Y7535925D01*
X9986060Y7533538D01*
X9981844Y7532827D01*
X9977678Y7533894D01*
X9974376Y7536586D01*
X9968331Y7549642D01*
X9962946Y7557617D01*
X9956292Y7564577D01*
X9948519Y7570317D01*
X9939883Y7574686D01*
X9930688Y7577480D01*
X9921138Y7578750D01*
X9911486Y7578293D01*
X9902037Y7576261D01*
X9893096Y7572705D01*
X9884867Y7567625D01*
X9877653Y7561275D01*
X9871557Y7553756D01*
X9866884Y7545324D01*
X9863683Y7536230D01*
X9862058Y7526731D01*
X9862058Y7517079D01*
X9863683Y7507579D01*
X9866884Y7498486D01*
X9871557Y7490053D01*
X9877856Y7482331D01*
X9879533Y7479334D01*
X9880092Y7475931D01*
X9880092Y7360818D01*
X9879330Y7356906D01*
X9877094Y7353604D01*
X9865258Y7341768D01*
X9862058Y7339584D01*
X9858349Y7338771D01*
X9854590Y7339380D01*
X9851288Y7341362D01*
X9848951Y7344409D01*
X9847935Y7348067D01*
X9847732Y7350201D01*
X9845344Y7359548D01*
X9841331Y7368336D01*
X9835946Y7376312D01*
X9829292Y7383272D01*
X9821519Y7389012D01*
X9812883Y7393381D01*
X9803688Y7396175D01*
X9794138Y7397445D01*
X9784486Y7396988D01*
X9775037Y7394956D01*
X9766096Y7391400D01*
X9757867Y7386320D01*
X9750653Y7379970D01*
X9744557Y7372451D01*
X9739782Y7363866D01*
X9737242Y7360920D01*
X9733788Y7359091D01*
X9732467Y7358989D01*
X9733838Y7357770D01*
X9735667Y7354011D01*
X9735820Y7349845D01*
X9735058Y7345425D01*
X9735058Y7335774D01*
X9736683Y7326274D01*
X9739884Y7317181D01*
X9742322Y7312863D01*
X9743490Y7309154D01*
X9743236Y7305243D01*
X9741509Y7301738D01*
X9738614Y7299147D01*
X9734600Y7296759D01*
X9724034Y7288428D01*
X9714636Y7278725D01*
X9706660Y7267905D01*
X9700209Y7256068D01*
X9697618Y7251852D01*
X9694062Y7249515D01*
X9689846Y7248906D01*
X9685782Y7249972D01*
X9682530Y7252665D01*
X9680600Y7256475D01*
X9680244Y7257948D01*
X9676231Y7266736D01*
X9670846Y7274712D01*
X9664192Y7281672D01*
X9656419Y7287412D01*
X9647783Y7291781D01*
X9638588Y7294575D01*
X9629038Y7295845D01*
X9619386Y7295388D01*
X9609937Y7293356D01*
X9600996Y7289800D01*
X9592767Y7284720D01*
X9585553Y7278370D01*
X9579457Y7270851D01*
X9574784Y7262418D01*
X9571583Y7253325D01*
X9569958Y7243825D01*
X9569958Y7234174D01*
X9571583Y7224674D01*
X9574784Y7215581D01*
X9579457Y7207148D01*
X9585553Y7199630D01*
X9592767Y7193280D01*
X9600133Y7188758D01*
X9603130Y7185914D01*
X9604756Y7182154D01*
X9604756Y7178040D01*
X9603130Y7174280D01*
X9600133Y7171436D01*
X9598507Y7170420D01*
X9591243Y7164070D01*
X9585198Y7156551D01*
X9580473Y7148118D01*
X9577273Y7139025D01*
X9575647Y7129525D01*
X9575647Y7119874D01*
X9577273Y7110374D01*
X9580473Y7101281D01*
X9585198Y7092848D01*
X9591243Y7085330D01*
X9598507Y7078980D01*
X9606686Y7073900D01*
X9615678Y7070344D01*
X9625584Y7068159D01*
X9629495Y7066432D01*
X9632340Y7063181D01*
X9633559Y7059117D01*
X9633051Y7054850D01*
X9630765Y7051243D01*
X9618167Y7043420D01*
X9610953Y7037070D01*
X9604857Y7029551D01*
X9600184Y7021118D01*
X9596983Y7012025D01*
X9595358Y7002525D01*
X9595358Y6992874D01*
X9596983Y6983374D01*
X9600184Y6974281D01*
X9604857Y6965848D01*
X9610953Y6958330D01*
X9618167Y6951980D01*
X9626396Y6946900D01*
X9628022Y6946239D01*
X9631476Y6944004D01*
X9633712Y6940550D01*
X9634423Y6936486D01*
X9633458Y6932472D01*
X9630968Y6929221D01*
X9623653Y6922770D01*
X9617557Y6915251D01*
X9612884Y6906818D01*
X9609683Y6897725D01*
X9608058Y6888225D01*
X9608058Y6878574D01*
X9609683Y6869074D01*
X9612884Y6859981D01*
X9617557Y6851548D01*
X9623653Y6844030D01*
X9630867Y6837680D01*
X9639096Y6832600D01*
X9648037Y6829044D01*
X9657486Y6827012D01*
X9667138Y6826554D01*
X9676688Y6827824D01*
X9685883Y6830618D01*
X9694519Y6834987D01*
X9702292Y6840728D01*
X9708946Y6847687D01*
X9714331Y6855663D01*
X9718344Y6864451D01*
X9720732Y6873798D01*
X9721443Y6882180D01*
X9722358Y6885584D01*
X9724390Y6888530D01*
X9766604Y6930694D01*
X9769906Y6932930D01*
X9773818Y6933692D01*
X9981692Y6933692D01*
X9989718Y6934504D01*
X9996932Y6936689D01*
X10003637Y6940245D01*
X10009835Y6945375D01*
X10198404Y7133894D01*
X10201706Y7136130D01*
X10205618Y7136892D01*
X10263682Y7136892D01*
X10267442Y7136180D01*
X10270642Y7134098D01*
X10272877Y7130999D01*
X10274706Y7127036D01*
X10281970Y7115657D01*
X10290657Y7105345D01*
X10300665Y7096302D01*
X10312095Y7088479D01*
X10314889Y7085584D01*
X10316362Y7081824D01*
X10316210Y7077760D01*
X10314533Y7074103D01*
X10311536Y7071359D01*
X10306100Y7068159D01*
X10295534Y7059828D01*
X10286136Y7050125D01*
X10278160Y7039305D01*
X10272471Y7028891D01*
X10270185Y7026097D01*
X10267086Y7024268D01*
X10263581Y7023608D01*
X10147808Y7023608D01*
X10139781Y7022795D01*
X10132568Y7020610D01*
X10125862Y7017054D01*
X10119664Y7011924D01*
X9796729Y6688988D01*
X9793630Y6686905D01*
X9789972Y6686042D01*
X9784486Y6685788D01*
X9775037Y6683756D01*
X9766096Y6680200D01*
X9757867Y6675120D01*
X9750653Y6668770D01*
X9744557Y6661251D01*
X9739884Y6652818D01*
X9736683Y6643725D01*
X9735058Y6634225D01*
X9735058Y6624574D01*
X9736683Y6615074D01*
X9739884Y6605981D01*
X9744557Y6597548D01*
X9750653Y6590030D01*
X9757867Y6583680D01*
X9766096Y6578600D01*
X9775037Y6575044D01*
X9784486Y6573012D01*
X9794138Y6572554D01*
X9803688Y6573824D01*
X9812883Y6576618D01*
X9821519Y6580987D01*
X9829292Y6586728D01*
X9835946Y6593687D01*
X9841331Y6601663D01*
X9845446Y6610908D01*
X9847376Y6614718D01*
X9850678Y6617411D01*
X9854844Y6618478D01*
X9859060Y6617766D01*
X9862616Y6615379D01*
X9864852Y6611721D01*
X9866884Y6605981D01*
X9871557Y6597548D01*
X9877653Y6590030D01*
X9884867Y6583680D01*
X9893096Y6578600D01*
X9902037Y6575044D01*
X9911486Y6573012D01*
X9921138Y6572554D01*
X9930688Y6573824D01*
X9939883Y6576618D01*
X9948519Y6580987D01*
X9956292Y6586728D01*
X9962946Y6593687D01*
X9968331Y6601663D01*
X9972344Y6610451D01*
X9974326Y6618224D01*
X9976256Y6622034D01*
X9979609Y6624726D01*
X9983724Y6625793D01*
X9987940Y6625081D01*
X9991496Y6622694D01*
X9998557Y6610248D01*
X10004653Y6602730D01*
X10011867Y6596380D01*
X10020096Y6591300D01*
X10029037Y6587744D01*
X10038486Y6585712D01*
X10048138Y6585254D01*
X10057688Y6586524D01*
X10066883Y6589318D01*
X10075519Y6593687D01*
X10087559Y6602679D01*
X10091521Y6603492D01*
X10118902Y6603492D01*
X10122865Y6602679D01*
X10126218Y6600342D01*
X10128402Y6596938D01*
X10129012Y6592925D01*
X10128046Y6588963D01*
X10125608Y6585712D01*
X10118953Y6579870D01*
X10112857Y6572351D01*
X10108184Y6563918D01*
X10104983Y6554825D01*
X10103358Y6545326D01*
X10103358Y6535674D01*
X10104983Y6526174D01*
X10108184Y6517081D01*
X10112857Y6508648D01*
X10118953Y6501130D01*
X10126167Y6494780D01*
X10134396Y6489700D01*
X10143337Y6486144D01*
X10152786Y6484112D01*
X10162438Y6483654D01*
X10171988Y6484924D01*
X10181183Y6487718D01*
X10189819Y6492087D01*
X10197592Y6497828D01*
X10204246Y6504787D01*
X10209631Y6512763D01*
X10213644Y6521551D01*
X10216032Y6530898D01*
X10216896Y6540500D01*
X10216032Y6550101D01*
X10213644Y6559448D01*
X10209631Y6568236D01*
X10204246Y6576212D01*
X10197592Y6583172D01*
X10194899Y6585153D01*
X10192105Y6588302D01*
X10190835Y6592316D01*
X10191292Y6596532D01*
X10193426Y6600139D01*
X10196830Y6602628D01*
X10200944Y6603492D01*
X10252659Y6603492D01*
X10256164Y6602882D01*
X10259263Y6601053D01*
X10261498Y6598361D01*
X10262717Y6594957D01*
X10265054Y6580581D01*
X10269067Y6567728D01*
X10274706Y6555536D01*
X10281970Y6544157D01*
X10290657Y6533845D01*
X10300665Y6524802D01*
X10311790Y6517182D01*
X10323830Y6511137D01*
X10336530Y6506718D01*
X10349738Y6504025D01*
X10363200Y6503111D01*
X10376662Y6504025D01*
X10389870Y6506718D01*
X10402570Y6511137D01*
X10414609Y6517182D01*
X10425734Y6524802D01*
X10435742Y6533845D01*
X10444429Y6544157D01*
X10451693Y6555536D01*
X10457332Y6567728D01*
X10458653Y6571945D01*
X10460685Y6575602D01*
X10463987Y6578092D01*
X10468051Y6579108D01*
X10472166Y6578346D01*
X10475620Y6576059D01*
X10477855Y6572554D01*
X10479887Y6567170D01*
X10483443Y6562039D01*
X10486440Y6558991D01*
X10490047Y6556349D01*
X10495584Y6553860D01*
X10503052Y6552692D01*
X10873232Y6552692D01*
X10877143Y6551930D01*
X10880394Y6549694D01*
X10882630Y6546443D01*
X10883392Y6542531D01*
X10883392Y5598160D01*
X10882630Y5594299D01*
X10880394Y5590997D01*
X10877143Y5588762D01*
X10873232Y5588000D01*
X10833557Y5588000D01*
X10833557Y5473446D01*
X10873232Y5473446D01*
X10877143Y5472684D01*
X10880394Y5470448D01*
X10882630Y5467197D01*
X10883392Y5463286D01*
X10883392Y5280914D01*
X10882630Y5277002D01*
X10880394Y5273751D01*
X10877143Y5271516D01*
X10873232Y5270754D01*
X10833557Y5270754D01*
X10833557Y5156200D01*
X10873232Y5156200D01*
X10877143Y5155438D01*
X10880394Y5153202D01*
X10882630Y5149900D01*
X10883392Y5146040D01*
X10883392Y4493768D01*
X10882630Y4489856D01*
X10880394Y4486605D01*
X10877143Y4484370D01*
X10873232Y4483608D01*
G37*

%LPC*%
G36*
X10594238Y4592218D02*
G01*
X10603788Y4593488D01*
X10612983Y4596282D01*
X10621619Y4600651D01*
X10629392Y4606391D01*
X10636046Y4613351D01*
X10641431Y4621326D01*
X10645444Y4630115D01*
X10647832Y4639462D01*
X10648696Y4649063D01*
X10647832Y4658664D01*
X10645444Y4668012D01*
X10641431Y4676800D01*
X10636046Y4684776D01*
X10629392Y4691735D01*
X10621619Y4697476D01*
X10612983Y4701844D01*
X10603788Y4704638D01*
X10594238Y4705908D01*
X10584586Y4705451D01*
X10575137Y4703419D01*
X10566196Y4699863D01*
X10557967Y4694783D01*
X10550753Y4688433D01*
X10544657Y4680915D01*
X10539984Y4672482D01*
X10536783Y4663389D01*
X10535158Y4653889D01*
X10535158Y4644237D01*
X10536783Y4634738D01*
X10539984Y4625644D01*
X10544657Y4617212D01*
X10550753Y4609693D01*
X10557967Y4603343D01*
X10566196Y4598263D01*
X10575137Y4594707D01*
X10584586Y4592675D01*
G37*
G36*
X7689240Y5929172D02*
G01*
X7696809Y5932982D01*
X7707934Y5940602D01*
X7717942Y5949645D01*
X7726629Y5959957D01*
X7733893Y5971336D01*
X7736027Y5975959D01*
X7689240Y5975959D01*
G37*
G36*
X10568838Y5976518D02*
G01*
X10578388Y5977788D01*
X10587583Y5980582D01*
X10596219Y5984951D01*
X10603992Y5990691D01*
X10610646Y5997651D01*
X10616031Y6005626D01*
X10620044Y6014415D01*
X10622432Y6023762D01*
X10623296Y6033363D01*
X10622432Y6042964D01*
X10620044Y6052312D01*
X10616031Y6061100D01*
X10610646Y6069076D01*
X10603992Y6076035D01*
X10596219Y6081776D01*
X10587583Y6086144D01*
X10578388Y6088938D01*
X10568838Y6090208D01*
X10559186Y6089751D01*
X10549737Y6087719D01*
X10540796Y6084163D01*
X10532567Y6079083D01*
X10525353Y6072733D01*
X10519257Y6065215D01*
X10514584Y6056782D01*
X10511383Y6047689D01*
X10509758Y6038189D01*
X10509758Y6028537D01*
X10511383Y6019038D01*
X10514584Y6009944D01*
X10519257Y6001512D01*
X10525353Y5993993D01*
X10532567Y5987643D01*
X10540796Y5982563D01*
X10549737Y5979007D01*
X10559186Y5976975D01*
G37*
G36*
X7689240Y6063640D02*
G01*
X7736128Y6063640D01*
X7730439Y6074105D01*
X7722463Y6084925D01*
X7713065Y6094628D01*
X7702499Y6102959D01*
X7690916Y6109817D01*
X7689240Y6110528D01*
G37*
G36*
X8096859Y6259372D02*
G01*
X8096859Y6306159D01*
X8050072Y6306159D01*
X8052206Y6301536D01*
X8059470Y6290157D01*
X8068157Y6279845D01*
X8078165Y6270802D01*
X8089290Y6263182D01*
G37*
G36*
X8184540Y6259372D02*
G01*
X8192109Y6263182D01*
X8203234Y6270802D01*
X8213242Y6279845D01*
X8221929Y6290157D01*
X8229193Y6301536D01*
X8231327Y6306159D01*
X8184540Y6306159D01*
G37*
G36*
X8184540Y6393840D02*
G01*
X8231428Y6393840D01*
X8225739Y6404305D01*
X8217763Y6415125D01*
X8208365Y6424828D01*
X8197799Y6433159D01*
X8186216Y6440017D01*
X8184540Y6440728D01*
G37*
G36*
X8049971Y6393840D02*
G01*
X8096859Y6393840D01*
X8096859Y6440728D01*
X8095183Y6440017D01*
X8083600Y6433159D01*
X8073034Y6424828D01*
X8063636Y6415125D01*
X8055660Y6404305D01*
G37*
G36*
X9527438Y6470954D02*
G01*
X9536988Y6472224D01*
X9546183Y6475018D01*
X9554819Y6479387D01*
X9562592Y6485128D01*
X9569246Y6492087D01*
X9574631Y6500063D01*
X9578644Y6508851D01*
X9581032Y6518198D01*
X9581896Y6527800D01*
X9581032Y6537401D01*
X9578644Y6546748D01*
X9574631Y6555536D01*
X9569246Y6563512D01*
X9562592Y6570472D01*
X9554819Y6576212D01*
X9546183Y6580581D01*
X9536988Y6583375D01*
X9527438Y6584645D01*
X9517786Y6584188D01*
X9508337Y6582156D01*
X9499396Y6578600D01*
X9491167Y6573520D01*
X9483953Y6567170D01*
X9477857Y6559651D01*
X9473184Y6551218D01*
X9469983Y6542125D01*
X9468358Y6532626D01*
X9468358Y6522974D01*
X9469983Y6513474D01*
X9473184Y6504381D01*
X9477857Y6495948D01*
X9483953Y6488430D01*
X9491167Y6482080D01*
X9499396Y6477000D01*
X9508337Y6473444D01*
X9517786Y6471412D01*
G37*
G36*
X8447938Y6509054D02*
G01*
X8457488Y6510324D01*
X8466683Y6513118D01*
X8475319Y6517487D01*
X8483092Y6523228D01*
X8489746Y6530187D01*
X8495131Y6538163D01*
X8499144Y6546951D01*
X8501532Y6556298D01*
X8502396Y6565900D01*
X8501532Y6575501D01*
X8499144Y6584848D01*
X8495131Y6593636D01*
X8489746Y6601612D01*
X8483092Y6608572D01*
X8475319Y6614312D01*
X8466683Y6618681D01*
X8457488Y6621475D01*
X8447938Y6622745D01*
X8438286Y6622288D01*
X8428837Y6620256D01*
X8419896Y6616700D01*
X8411667Y6611620D01*
X8404453Y6605270D01*
X8398357Y6597751D01*
X8393684Y6589318D01*
X8390483Y6580225D01*
X8388858Y6570725D01*
X8388858Y6561074D01*
X8390483Y6551574D01*
X8393684Y6542481D01*
X8398357Y6534048D01*
X8404453Y6526530D01*
X8411667Y6520180D01*
X8419896Y6515100D01*
X8428837Y6511544D01*
X8438286Y6509512D01*
G37*
G36*
X9400438Y6724954D02*
G01*
X9409988Y6726224D01*
X9419183Y6729018D01*
X9427819Y6733387D01*
X9435592Y6739128D01*
X9442246Y6746087D01*
X9447631Y6754063D01*
X9451644Y6762851D01*
X9454032Y6772198D01*
X9454896Y6781800D01*
X9454032Y6791401D01*
X9451644Y6800748D01*
X9447631Y6809536D01*
X9442246Y6817512D01*
X9434982Y6825132D01*
X9432899Y6828383D01*
X9432137Y6833057D01*
X9432899Y6836816D01*
X9434982Y6840067D01*
X9442246Y6847687D01*
X9447631Y6855663D01*
X9451644Y6864451D01*
X9454032Y6873798D01*
X9454896Y6883400D01*
X9454032Y6893001D01*
X9451644Y6902348D01*
X9447631Y6911136D01*
X9442246Y6919112D01*
X9435592Y6926072D01*
X9427819Y6931812D01*
X9419183Y6936181D01*
X9409988Y6938975D01*
X9400438Y6940245D01*
X9390786Y6939788D01*
X9381337Y6937756D01*
X9372396Y6934200D01*
X9364167Y6929120D01*
X9356953Y6922770D01*
X9350857Y6915251D01*
X9346184Y6906818D01*
X9342983Y6897725D01*
X9341358Y6888225D01*
X9341358Y6878574D01*
X9342983Y6869074D01*
X9346184Y6859981D01*
X9350857Y6851548D01*
X9356953Y6844030D01*
X9361271Y6840220D01*
X9363811Y6836765D01*
X9364726Y6832600D01*
X9363811Y6828434D01*
X9361271Y6824980D01*
X9356953Y6821170D01*
X9350857Y6813651D01*
X9346184Y6805218D01*
X9342983Y6796125D01*
X9341358Y6786625D01*
X9341358Y6776974D01*
X9342983Y6767474D01*
X9346184Y6758381D01*
X9350857Y6749948D01*
X9356953Y6742430D01*
X9364167Y6736080D01*
X9372396Y6731000D01*
X9381337Y6727444D01*
X9390786Y6725412D01*
G37*
G36*
X7762138Y6787692D02*
G01*
X7771688Y6788962D01*
X7780883Y6791756D01*
X7789519Y6796125D01*
X7797292Y6801866D01*
X7803946Y6808825D01*
X7809331Y6816801D01*
X7813344Y6825589D01*
X7815732Y6834936D01*
X7816596Y6844538D01*
X7815732Y6854139D01*
X7813344Y6863486D01*
X7809331Y6872274D01*
X7803946Y6880250D01*
X7797292Y6887209D01*
X7789519Y6892950D01*
X7780883Y6897319D01*
X7771688Y6900113D01*
X7762138Y6901383D01*
X7752486Y6900925D01*
X7743037Y6898894D01*
X7734096Y6895338D01*
X7725867Y6890258D01*
X7718653Y6883908D01*
X7712557Y6876389D01*
X7707884Y6867956D01*
X7704683Y6858863D01*
X7703058Y6849364D01*
X7703058Y6839712D01*
X7704683Y6830212D01*
X7707884Y6821119D01*
X7712557Y6812686D01*
X7718653Y6805168D01*
X7725867Y6798818D01*
X7734096Y6793738D01*
X7743037Y6790181D01*
X7752486Y6788150D01*
G37*
G36*
X8694724Y7075017D02*
G01*
X8706916Y7075881D01*
X8718905Y7078472D01*
X8730386Y7082790D01*
X8741156Y7088631D01*
X8750960Y7095998D01*
X8759596Y7104634D01*
X8766962Y7114489D01*
X8772804Y7125208D01*
X8777122Y7136688D01*
X8779713Y7148677D01*
X8780627Y7161275D01*
X8780627Y7240524D01*
X8779713Y7253122D01*
X8777122Y7265111D01*
X8772804Y7276592D01*
X8766962Y7287310D01*
X8759596Y7297115D01*
X8750960Y7305802D01*
X8741156Y7313168D01*
X8730386Y7319009D01*
X8718905Y7323328D01*
X8706916Y7325918D01*
X8694724Y7326782D01*
X8682482Y7325918D01*
X8670493Y7323328D01*
X8659012Y7319009D01*
X8648293Y7313168D01*
X8638438Y7305802D01*
X8629802Y7297115D01*
X8622436Y7287310D01*
X8616594Y7276592D01*
X8612276Y7265111D01*
X8609685Y7253122D01*
X8608771Y7240524D01*
X8608771Y7161275D01*
X8609685Y7148677D01*
X8612276Y7136688D01*
X8616594Y7125208D01*
X8622436Y7114489D01*
X8629802Y7104634D01*
X8638438Y7095998D01*
X8648293Y7088631D01*
X8659012Y7082790D01*
X8670493Y7078472D01*
X8682482Y7075881D01*
G37*
G36*
X8094675Y7075017D02*
G01*
X8106918Y7075881D01*
X8118906Y7078472D01*
X8130387Y7082790D01*
X8141106Y7088631D01*
X8150961Y7095998D01*
X8159597Y7104634D01*
X8166963Y7114489D01*
X8172805Y7125208D01*
X8177123Y7136688D01*
X8179714Y7148677D01*
X8180628Y7161275D01*
X8180628Y7240524D01*
X8179714Y7253122D01*
X8177123Y7265111D01*
X8172805Y7276592D01*
X8166963Y7287310D01*
X8159597Y7297115D01*
X8150961Y7305802D01*
X8141106Y7313168D01*
X8130387Y7319009D01*
X8118906Y7323328D01*
X8106918Y7325918D01*
X8094675Y7326782D01*
X8082483Y7325918D01*
X8070494Y7323328D01*
X8059013Y7319009D01*
X8048244Y7313168D01*
X8038439Y7305802D01*
X8029803Y7297115D01*
X8022437Y7287310D01*
X8016595Y7276592D01*
X8012277Y7265111D01*
X8009686Y7253122D01*
X8008772Y7240524D01*
X8008772Y7161275D01*
X8009686Y7148677D01*
X8012277Y7136688D01*
X8016595Y7125208D01*
X8022437Y7114489D01*
X8029803Y7104634D01*
X8038439Y7095998D01*
X8048244Y7088631D01*
X8059013Y7082790D01*
X8070494Y7078472D01*
X8082483Y7075881D01*
G37*
G36*
X8294725Y7075017D02*
G01*
X8306917Y7075881D01*
X8318906Y7078472D01*
X8330387Y7082790D01*
X8341156Y7088631D01*
X8350961Y7095998D01*
X8359597Y7104634D01*
X8366963Y7114489D01*
X8372805Y7125208D01*
X8377123Y7136688D01*
X8379714Y7148677D01*
X8380628Y7161275D01*
X8380628Y7240524D01*
X8379714Y7253122D01*
X8377123Y7265111D01*
X8372805Y7276592D01*
X8366963Y7287310D01*
X8359597Y7297115D01*
X8350961Y7305802D01*
X8341156Y7313168D01*
X8330387Y7319009D01*
X8318906Y7323328D01*
X8306917Y7325918D01*
X8294725Y7326782D01*
X8282482Y7325918D01*
X8270494Y7323328D01*
X8259013Y7319009D01*
X8248294Y7313168D01*
X8238439Y7305802D01*
X8229803Y7297115D01*
X8222437Y7287310D01*
X8216595Y7276592D01*
X8212277Y7265111D01*
X8209686Y7253122D01*
X8208772Y7240524D01*
X8208772Y7161275D01*
X8209686Y7148677D01*
X8212277Y7136688D01*
X8216595Y7125208D01*
X8222437Y7114489D01*
X8229803Y7104634D01*
X8238439Y7095998D01*
X8248294Y7088631D01*
X8259013Y7082790D01*
X8270494Y7078472D01*
X8282482Y7075881D01*
G37*
G36*
X8494725Y7075017D02*
G01*
X8506917Y7075881D01*
X8518906Y7078472D01*
X8530386Y7082790D01*
X8541156Y7088631D01*
X8550960Y7095998D01*
X8559596Y7104634D01*
X8566962Y7114489D01*
X8572804Y7125208D01*
X8577122Y7136688D01*
X8579713Y7148677D01*
X8580628Y7161275D01*
X8580628Y7240524D01*
X8579713Y7253122D01*
X8577122Y7265111D01*
X8572804Y7276592D01*
X8566962Y7287310D01*
X8559596Y7297115D01*
X8550960Y7305802D01*
X8541156Y7313168D01*
X8530386Y7319009D01*
X8518906Y7323328D01*
X8506917Y7325918D01*
X8494725Y7326782D01*
X8482482Y7325918D01*
X8470493Y7323328D01*
X8459012Y7319009D01*
X8448294Y7313168D01*
X8438438Y7305802D01*
X8429802Y7297115D01*
X8422436Y7287310D01*
X8416594Y7276592D01*
X8412276Y7265111D01*
X8409686Y7253122D01*
X8408771Y7240524D01*
X8408771Y7161275D01*
X8409686Y7148677D01*
X8412276Y7136688D01*
X8416594Y7125208D01*
X8422436Y7114489D01*
X8429802Y7104634D01*
X8438438Y7095998D01*
X8448294Y7088631D01*
X8459012Y7082790D01*
X8470493Y7078472D01*
X8482482Y7075881D01*
G37*
G36*
X8858351Y7083145D02*
G01*
X8858351Y7144562D01*
X8810599Y7144562D01*
X8812276Y7136688D01*
X8816594Y7125208D01*
X8822436Y7114489D01*
X8829802Y7104634D01*
X8838438Y7095998D01*
X8848293Y7088631D01*
G37*
G36*
X8931046Y7083145D02*
G01*
X8941155Y7088631D01*
X8950960Y7095998D01*
X8959596Y7104634D01*
X8966962Y7114489D01*
X8972804Y7125208D01*
X8977122Y7136688D01*
X8978798Y7144562D01*
X8931046Y7144562D01*
G37*
G36*
X10179710Y7231227D02*
G01*
X10180370Y7232040D01*
X10183977Y7233970D01*
X10193883Y7237018D01*
X10202519Y7241387D01*
X10210292Y7247128D01*
X10216946Y7254087D01*
X10222331Y7262063D01*
X10226344Y7270851D01*
X10228732Y7280198D01*
X10229596Y7289800D01*
X10228732Y7299401D01*
X10226344Y7308748D01*
X10222331Y7317536D01*
X10216946Y7325512D01*
X10210292Y7332472D01*
X10202519Y7338212D01*
X10193883Y7342581D01*
X10184688Y7345375D01*
X10175138Y7346645D01*
X10165486Y7346188D01*
X10156037Y7344156D01*
X10147096Y7340600D01*
X10138867Y7335520D01*
X10131653Y7329170D01*
X10125557Y7321651D01*
X10120884Y7313218D01*
X10117683Y7304125D01*
X10116058Y7294625D01*
X10116058Y7284974D01*
X10117683Y7275474D01*
X10120884Y7266381D01*
X10125557Y7257948D01*
X10131653Y7250430D01*
X10138867Y7244080D01*
X10147096Y7239000D01*
X10156037Y7235444D01*
X10165486Y7233412D01*
X10174732Y7233005D01*
X10178643Y7232040D01*
G37*
G36*
X8931046Y7257237D02*
G01*
X8978798Y7257237D01*
X8977122Y7265111D01*
X8972804Y7276592D01*
X8966962Y7287310D01*
X8959596Y7297115D01*
X8950960Y7305802D01*
X8941155Y7313168D01*
X8931046Y7318654D01*
G37*
G36*
X8810599Y7257237D02*
G01*
X8858351Y7257237D01*
X8858351Y7318654D01*
X8848293Y7313168D01*
X8838438Y7305802D01*
X8829802Y7297115D01*
X8822436Y7287310D01*
X8816594Y7276592D01*
X8812276Y7265111D01*
G37*
G36*
X10302138Y7296454D02*
G01*
X10311688Y7297724D01*
X10320883Y7300518D01*
X10329519Y7304887D01*
X10337292Y7310628D01*
X10343946Y7317587D01*
X10349331Y7325563D01*
X10353344Y7334351D01*
X10355732Y7343698D01*
X10356596Y7353300D01*
X10355732Y7362901D01*
X10353344Y7372248D01*
X10349331Y7381036D01*
X10343946Y7389012D01*
X10337292Y7395972D01*
X10329519Y7401712D01*
X10320883Y7406081D01*
X10311688Y7408875D01*
X10302138Y7410145D01*
X10292486Y7409688D01*
X10283037Y7407656D01*
X10274096Y7404100D01*
X10265867Y7399020D01*
X10258653Y7392670D01*
X10252557Y7385151D01*
X10247884Y7376718D01*
X10244683Y7367625D01*
X10243058Y7358125D01*
X10243058Y7348474D01*
X10244683Y7338974D01*
X10247884Y7329881D01*
X10252557Y7321448D01*
X10258653Y7313930D01*
X10265867Y7307580D01*
X10274096Y7302500D01*
X10283037Y7298944D01*
X10292486Y7296912D01*
G37*
G36*
X9540138Y7321854D02*
G01*
X9549688Y7323124D01*
X9558883Y7325918D01*
X9567519Y7330287D01*
X9575292Y7336028D01*
X9581946Y7342987D01*
X9587331Y7350963D01*
X9591446Y7360208D01*
X9593376Y7364018D01*
X9596678Y7366711D01*
X9600844Y7367778D01*
X9605060Y7367066D01*
X9608616Y7364679D01*
X9610852Y7361021D01*
X9612884Y7355281D01*
X9617557Y7346848D01*
X9623653Y7339330D01*
X9630867Y7332980D01*
X9639096Y7327900D01*
X9648037Y7324344D01*
X9657486Y7322312D01*
X9667138Y7321854D01*
X9676688Y7323124D01*
X9685883Y7325918D01*
X9694519Y7330287D01*
X9702292Y7336028D01*
X9708946Y7342987D01*
X9714331Y7350963D01*
X9716516Y7355789D01*
X9718954Y7359142D01*
X9722561Y7361224D01*
X9724237Y7361428D01*
X9723120Y7362342D01*
X9721240Y7365796D01*
X9720783Y7369708D01*
X9721596Y7378700D01*
X9720732Y7388301D01*
X9718344Y7397648D01*
X9714331Y7406436D01*
X9708946Y7414412D01*
X9702292Y7421372D01*
X9694519Y7427112D01*
X9685883Y7431481D01*
X9676688Y7434275D01*
X9667138Y7435545D01*
X9657486Y7435088D01*
X9648037Y7433056D01*
X9639096Y7429500D01*
X9630867Y7424420D01*
X9623653Y7418070D01*
X9617557Y7410551D01*
X9612884Y7402118D01*
X9610852Y7396378D01*
X9608616Y7392720D01*
X9605060Y7390333D01*
X9600844Y7389622D01*
X9596678Y7390688D01*
X9593376Y7393381D01*
X9587331Y7406436D01*
X9581946Y7414412D01*
X9575292Y7421372D01*
X9567519Y7427112D01*
X9558883Y7431481D01*
X9549688Y7434275D01*
X9540138Y7435545D01*
X9530486Y7435088D01*
X9521037Y7433056D01*
X9512096Y7429500D01*
X9503867Y7424420D01*
X9496653Y7418070D01*
X9490557Y7410551D01*
X9485884Y7402118D01*
X9482683Y7393025D01*
X9481058Y7383525D01*
X9481058Y7373874D01*
X9482683Y7364374D01*
X9485884Y7355281D01*
X9490557Y7346848D01*
X9496653Y7339330D01*
X9503867Y7332980D01*
X9512096Y7327900D01*
X9521037Y7324344D01*
X9530486Y7322312D01*
G37*

%LPD*%
G36*
X7579868Y4470908D02*
G01*
X7575956Y4471670D01*
X7572705Y4473905D01*
X7570470Y4477156D01*
X7569708Y4481068D01*
X7569708Y5742432D01*
X7570470Y5746343D01*
X7572705Y5749594D01*
X7575956Y5751830D01*
X7579868Y5752592D01*
X7799882Y5752592D01*
X7803845Y5751779D01*
X7807198Y5749493D01*
X7809382Y5746089D01*
X7810042Y5742127D01*
X7809992Y4991709D01*
X7810804Y4985207D01*
X7812887Y4979670D01*
X7816443Y4974539D01*
X7819440Y4971491D01*
X7823047Y4968849D01*
X7828584Y4966360D01*
X7836052Y4965192D01*
X8028431Y4965192D01*
X8032343Y4964430D01*
X8035594Y4962194D01*
X8037830Y4958943D01*
X8038592Y4955032D01*
X8038592Y4481068D01*
X8037830Y4477156D01*
X8035594Y4473905D01*
X8032343Y4471670D01*
X8028431Y4470908D01*
G37*

%LPC*%
G36*
X7698638Y4549851D02*
G01*
X7708188Y4551070D01*
X7717383Y4553915D01*
X7726019Y4558233D01*
X7733792Y4563973D01*
X7740446Y4570933D01*
X7745831Y4578959D01*
X7749844Y4587748D01*
X7752232Y4597044D01*
X7753096Y4606645D01*
X7752232Y4616297D01*
X7749844Y4625594D01*
X7745831Y4634382D01*
X7740446Y4642408D01*
X7733792Y4649368D01*
X7726019Y4655108D01*
X7717383Y4659426D01*
X7708188Y4662271D01*
X7698638Y4663490D01*
X7688986Y4663084D01*
X7679537Y4661052D01*
X7670596Y4657445D01*
X7662367Y4652416D01*
X7655153Y4646015D01*
X7649057Y4638497D01*
X7644384Y4630115D01*
X7641183Y4621022D01*
X7639558Y4611471D01*
X7639558Y4601870D01*
X7641183Y4592320D01*
X7644384Y4583226D01*
X7649057Y4574844D01*
X7655153Y4567326D01*
X7662367Y4560925D01*
X7670596Y4555896D01*
X7679537Y4552289D01*
X7688986Y4550257D01*
G37*
G36*
X7939938Y4629454D02*
G01*
X7949488Y4630724D01*
X7958683Y4633518D01*
X7967319Y4637887D01*
X7975092Y4643628D01*
X7981746Y4650587D01*
X7987131Y4658563D01*
X7991144Y4667351D01*
X7993532Y4676698D01*
X7994396Y4686300D01*
X7993532Y4695901D01*
X7991144Y4705248D01*
X7987131Y4714036D01*
X7981746Y4722012D01*
X7975092Y4728972D01*
X7967319Y4734712D01*
X7958683Y4739081D01*
X7949488Y4741875D01*
X7939938Y4743145D01*
X7930286Y4742688D01*
X7920837Y4740656D01*
X7911896Y4737100D01*
X7903667Y4732020D01*
X7896453Y4725670D01*
X7890357Y4718151D01*
X7885684Y4709718D01*
X7882483Y4700625D01*
X7880858Y4691126D01*
X7880858Y4681474D01*
X7882483Y4671974D01*
X7885684Y4662881D01*
X7890357Y4654448D01*
X7896453Y4646930D01*
X7903667Y4640580D01*
X7911896Y4635500D01*
X7920837Y4631944D01*
X7930286Y4629912D01*
G37*

%LPD*%
D10*
X10795000Y4581270D02*
G01*
X10795000Y5130800D01*
X10795000Y5448300D01*
X10795000Y5448300D02*
G01*
X10795000Y5575300D01*
X10820400Y5600700D01*
X10820400Y5880100D01*
X10769600Y5930900D01*
X8140700Y6350000D02*
G01*
X8140700Y6731000D01*
X8140700Y6350000D02*
G01*
X8140700Y6362700D01*
X8356600Y6578600D01*
X8894699Y7200900D02*
G01*
X9118600Y7200900D01*
X9118600Y6794500D01*
X9144000Y6769100D01*
X9118600Y7200900D02*
G01*
X9258300Y7200900D01*
X9410700Y7353300D01*
X8610600Y6794500D02*
G01*
X8610600Y6845300D01*
X8894823Y7129523D01*
X8894823Y7200900D01*
X10769600Y5930900D02*
G01*
X10655300Y6045200D01*
X10655300Y6362700D01*
X10617200Y6400800D01*
X9525000Y6400800D01*
X9410700Y6515100D01*
X9321800Y6515100D01*
X10045700Y6642100D02*
G01*
X10325100Y6642100D01*
X10363200Y6604000D01*
X9791700Y6629400D02*
G01*
X10147300Y6985000D01*
X10363200Y6985000D01*
X9664700Y6883400D02*
G01*
X9753600Y6972300D01*
X9982200Y6972300D01*
X10185400Y7175500D01*
X10363200Y7175500D01*
X9918700Y7521905D02*
G01*
X9918700Y7340600D01*
X9791700Y7213600D01*
X9994900Y7213600D02*
G01*
X10045700Y7213600D01*
X10045700Y7521955D01*
X8420100Y6946900D02*
G01*
X8420100Y6997700D01*
X7912100Y6997700D01*
X7894574Y7015226D01*
X7894574Y7200900D01*
X7645400Y6438900D02*
G01*
X7734300Y6438900D01*
X8102600Y6807200D01*
X8369300Y6807200D01*
X8509000Y6667500D01*
X8789161Y6667500D01*
X8878061Y6756400D01*
X8877300Y6921500D02*
G01*
X8877300Y6870700D01*
X8724900Y6718300D01*
X8547100Y6718300D01*
X8394700Y6870700D01*
X8102600Y6870700D01*
X7874000Y6642100D01*
X7645400Y6642100D01*
X7645400Y6019800D02*
G01*
X7645400Y6032500D01*
X7962900Y6350000D01*
X8140700Y6350000D01*
X9918700Y6629400D02*
G01*
X10020300Y6731000D01*
X10363200Y6731000D01*
X10363200Y6794500D01*
D11*
G01*
X10363200Y7175500D03*
G01*
X10363200Y6985000D03*
G01*
X10363200Y6794500D03*
G01*
X10363200Y6604000D03*
G01*
X8394700Y6350000D03*
G01*
X8648700Y6350000D03*
G01*
X8902700Y6350000D03*
G01*
X8140700Y6350000D03*
G01*
X9791700Y7213600D03*
G01*
X9994900Y7213600D03*
G01*
X7645400Y6019800D03*
G01*
X7645400Y6223000D03*
G01*
X7645400Y6438900D03*
G01*
X7645400Y6642100D03*
D12*
G01*
X10722203Y5372100D03*
G01*
X7845196Y5372100D03*
D13*
G01*
X8894699Y7200900D03*
G01*
X8694699Y7200900D03*
G01*
X8494699Y7200900D03*
G01*
X8294700Y7200900D03*
G01*
X8094700Y7200900D03*
G01*
X7894700Y7200900D03*
D14*
G01*
X10795000Y4581270D03*
G01*
X10769600Y5930900D03*
G01*
X10566400Y6033363D03*
G01*
X9652000Y6997700D03*
G01*
X10591800Y4649063D03*
G01*
X9632315Y7124700D03*
G01*
X7696200Y4606670D03*
G01*
X7696200Y5524500D03*
G01*
X7696200Y5295900D03*
G01*
X8140700Y6731000D03*
G01*
X8356600Y6578600D03*
G01*
X7759700Y6844537D03*
G01*
X8877300Y6921500D03*
G01*
X8878163Y6756400D03*
G01*
X9144000Y6769100D03*
G01*
X9321800Y6515100D03*
G01*
X9410700Y7353300D03*
G01*
X7937500Y4686300D03*
G01*
X9626600Y7239000D03*
G01*
X10172700Y7289800D03*
G01*
X10299700Y7353300D03*
G01*
X9791700Y7340600D03*
G01*
X9664700Y7378700D03*
G01*
X9537700Y7378700D03*
G01*
X9525000Y6527800D03*
G01*
X9398000Y6781800D03*
G01*
X9398000Y6883400D03*
G01*
X8445500Y6565900D03*
G01*
X8420100Y6946900D03*
G01*
X10299700Y6299200D03*
G01*
X10160000Y6540500D03*
G01*
X8610600Y6794500D03*
G01*
X9664700Y6883400D03*
G01*
X9791700Y6629400D03*
G01*
X10045700Y6642100D03*
G01*
X9918700Y6629400D03*
G01*
X9918700Y7521905D03*
G01*
X10045700Y7521905D03*
G01*
X7645400Y6223000D03*
G01*
X7645400Y6426200D03*
G01*
X8902700Y6350000D03*
G01*
X7670800Y6045200D03*
G01*
X7696200Y5448300D03*
G01*
X7696200Y5372100D03*
G01*
X7772400Y5524500D03*
G01*
X7772400Y5448300D03*
G01*
X7772400Y5372100D03*
G01*
X7772400Y5295900D03*
G01*
X7696200Y5219700D03*
G01*
X7772400Y5219700D03*
G01*
X7962900Y5905500D03*
G01*
X8775700Y6591300D03*
G01*
X10795000Y5524500D03*
G01*
X10795000Y5448300D03*
G01*
X10795000Y5372100D03*
G01*
X10795000Y5295900D03*
G01*
X10795000Y5219700D03*
G01*
X8394700Y6350000D03*
G01*
X8648700Y6350000D03*
G01*
X10210800Y6896100D03*
G01*
X9982200Y7340600D03*
M02*
