G04 Layer: TopLayer*
G04 EasyEDA v6.5.40, 2024-06-15 16:39:10*
G04 e63031535b224d068feaf967c7116de5,10*
G04 Gerber Generator version 0.2*
G04 Scale: 100 percent, Rotated: No, Reflected: No *
G04 Dimensions in millimeters *
G04 leading zeros omitted , absolute positions ,4 integer and 5 decimal *
%FSLAX45Y45*%
%MOMM*%

%AMMACRO1*21,1,$1,$2,0,0,$3*%
%ADD10C,0.2540*%
%ADD11MACRO1,1.728X1.485X0.0000*%
%ADD12R,1.7280X1.4850*%
%ADD13R,1.3995X1.0000*%
%ADD14MACRO1,0.864X0.8065X0.0000*%
%ADD15R,0.8640X0.8065*%
%ADD16MACRO1,0.864X0.8065X90.0000*%
%ADD17R,1.3800X2.0000*%
%ADD18R,0.8000X1.8000*%
%ADD19R,1.0000X1.0000*%
%ADD20R,0.2800X0.6750*%
%ADD21R,0.6750X0.2800*%
%ADD22O,1.1999976X1.9999959999999999*%
%ADD23C,0.6200*%
%ADD24C,0.0142*%

%LPD*%
G36*
X8263178Y6528307D02*
G01*
X8259267Y6529070D01*
X8255965Y6531305D01*
X8253780Y6534556D01*
X8253018Y6538468D01*
X8253018Y6663334D01*
X8253780Y6667246D01*
X8255965Y6670548D01*
X8302752Y6717334D01*
X8306053Y6719519D01*
X8309965Y6720281D01*
X8328659Y6720281D01*
X8328659Y6738975D01*
X8329422Y6742887D01*
X8331606Y6746189D01*
X8360664Y6775196D01*
X8363966Y6777431D01*
X8367877Y6778193D01*
X8374380Y6778193D01*
X8378291Y6777431D01*
X8381593Y6775196D01*
X8383778Y6771944D01*
X8384540Y6768033D01*
X8384540Y6720281D01*
X8425688Y6720281D01*
X8425688Y6733540D01*
X8424976Y6739839D01*
X8423097Y6745325D01*
X8419998Y6750202D01*
X8415934Y6754317D01*
X8411006Y6757365D01*
X8404961Y6759498D01*
X8401405Y6761632D01*
X8398967Y6765036D01*
X8398154Y6769100D01*
X8398967Y6773164D01*
X8401405Y6776567D01*
X8404961Y6778701D01*
X8411006Y6780834D01*
X8415934Y6783882D01*
X8419998Y6787997D01*
X8423097Y6792874D01*
X8425281Y6799122D01*
X8427415Y6802678D01*
X8430818Y6805066D01*
X8434882Y6805930D01*
X8466378Y6805930D01*
X8469833Y6805320D01*
X8476183Y6804609D01*
X8542528Y6804609D01*
X8548878Y6805320D01*
X8554516Y6807301D01*
X8557869Y6807860D01*
X8568994Y6807962D01*
X8568283Y6814261D01*
X8567064Y6819493D01*
X8568283Y6824776D01*
X8568994Y6831075D01*
X8568994Y6850888D01*
X8569807Y6854799D01*
X8571992Y6858101D01*
X8575294Y6860286D01*
X8579154Y6861048D01*
X8599017Y6861048D01*
X8605367Y6861759D01*
X8610600Y6862978D01*
X8615832Y6861759D01*
X8622182Y6861048D01*
X8642045Y6861048D01*
X8645906Y6860286D01*
X8649208Y6858101D01*
X8651392Y6854799D01*
X8652205Y6850888D01*
X8652205Y6831075D01*
X8652916Y6824776D01*
X8654135Y6819493D01*
X8652916Y6814261D01*
X8652205Y6807962D01*
X8652205Y6781088D01*
X8652916Y6774738D01*
X8654135Y6769506D01*
X8652916Y6764274D01*
X8652205Y6757924D01*
X8652205Y6738112D01*
X8651392Y6734251D01*
X8649208Y6730949D01*
X8645906Y6728764D01*
X8642045Y6727952D01*
X8622182Y6727952D01*
X8615832Y6727240D01*
X8610600Y6726021D01*
X8605367Y6727240D01*
X8599017Y6727952D01*
X8579154Y6727952D01*
X8575141Y6728815D01*
X8571788Y6731152D01*
X8529828Y6731152D01*
X8526932Y6729018D01*
X8523427Y6728002D01*
X8515807Y6727240D01*
X8510371Y6725361D01*
X8505494Y6722262D01*
X8503462Y6720230D01*
X8500160Y6718046D01*
X8496300Y6717284D01*
X8492388Y6718046D01*
X8489086Y6720230D01*
X8486902Y6723532D01*
X8486140Y6727444D01*
X8486140Y6731152D01*
X8449716Y6731152D01*
X8450427Y6724751D01*
X8452307Y6719316D01*
X8455406Y6714388D01*
X8459470Y6710324D01*
X8464397Y6707225D01*
X8469833Y6705295D01*
X8476183Y6704584D01*
X8485530Y6704584D01*
X8489442Y6703822D01*
X8492693Y6701637D01*
X8494928Y6698335D01*
X8495690Y6694424D01*
X8495690Y6635140D01*
X8497011Y6625437D01*
X8497011Y6618478D01*
X8495995Y6614109D01*
X8493252Y6610603D01*
X8489289Y6608622D01*
X8484870Y6608470D01*
X8480806Y6610299D01*
X8475319Y6614312D01*
X8466683Y6618681D01*
X8457488Y6621475D01*
X8447938Y6622745D01*
X8438286Y6622288D01*
X8429548Y6620408D01*
X8425281Y6620408D01*
X8421370Y6622186D01*
X8418525Y6625386D01*
X8417255Y6629450D01*
X8417814Y6633667D01*
X8423097Y6642252D01*
X8424976Y6647688D01*
X8425688Y6654038D01*
X8425688Y6667246D01*
X8384540Y6667246D01*
X8384540Y6627520D01*
X8399221Y6627520D01*
X8402167Y6627875D01*
X8406384Y6627469D01*
X8410092Y6625336D01*
X8412581Y6621881D01*
X8413445Y6617716D01*
X8412530Y6613550D01*
X8409990Y6610146D01*
X8404453Y6605270D01*
X8398357Y6597751D01*
X8393684Y6589318D01*
X8390483Y6580225D01*
X8388858Y6570725D01*
X8388858Y6561074D01*
X8390483Y6551574D01*
X8393887Y6541871D01*
X8394446Y6538061D01*
X8393582Y6534302D01*
X8391347Y6531152D01*
X8388096Y6529019D01*
X8384336Y6528307D01*
G37*

%LPC*%
G36*
X8313978Y6627520D02*
G01*
X8328659Y6627520D01*
X8328659Y6667246D01*
X8287512Y6667246D01*
X8287512Y6654038D01*
X8288223Y6647688D01*
X8290102Y6642252D01*
X8293201Y6637324D01*
X8297265Y6633260D01*
X8302193Y6630162D01*
X8307628Y6628231D01*
G37*
G36*
X8532571Y6757873D02*
G01*
X8568994Y6757873D01*
X8568283Y6764274D01*
X8567064Y6769506D01*
X8568283Y6774738D01*
X8568994Y6781139D01*
X8532571Y6781139D01*
G37*
G36*
X8449716Y6757873D02*
G01*
X8486140Y6757873D01*
X8486140Y6781139D01*
X8449716Y6781139D01*
X8450427Y6774738D01*
X8451646Y6769506D01*
X8450427Y6764274D01*
G37*

%LPD*%
G36*
X8902700Y6408826D02*
G01*
X8898788Y6409588D01*
X8895537Y6411772D01*
X8790635Y6516624D01*
X8784437Y6521754D01*
X8777732Y6525310D01*
X8770518Y6527495D01*
X8762492Y6528307D01*
X8584387Y6528307D01*
X8580475Y6529070D01*
X8577173Y6531305D01*
X8574989Y6534556D01*
X8574227Y6538468D01*
X8574227Y6598513D01*
X8574989Y6602374D01*
X8577173Y6605676D01*
X8580475Y6607860D01*
X8584387Y6608673D01*
X8599017Y6608673D01*
X8605367Y6609384D01*
X8610600Y6610603D01*
X8615832Y6609384D01*
X8622182Y6608673D01*
X8649055Y6608673D01*
X8655354Y6609384D01*
X8660587Y6610603D01*
X8665870Y6609384D01*
X8672169Y6608673D01*
X8699042Y6608673D01*
X8705342Y6609384D01*
X8710828Y6611264D01*
X8715705Y6614363D01*
X8719820Y6618427D01*
X8722868Y6623354D01*
X8724798Y6628790D01*
X8725509Y6635140D01*
X8725509Y6694424D01*
X8726271Y6698335D01*
X8728506Y6701637D01*
X8731758Y6703822D01*
X8735669Y6704584D01*
X8745016Y6704584D01*
X8751366Y6705295D01*
X8756802Y6707225D01*
X8761730Y6710324D01*
X8765794Y6714388D01*
X8768892Y6719316D01*
X8770670Y6724497D01*
X8772652Y6727850D01*
X8775700Y6730187D01*
X8779459Y6731253D01*
X8783320Y6730796D01*
X8786723Y6728968D01*
X8792362Y6724345D01*
X8799068Y6720789D01*
X8805164Y6718909D01*
X8808669Y6717080D01*
X8811158Y6714083D01*
X8812326Y6710324D01*
X8812631Y6707428D01*
X8814562Y6701993D01*
X8817660Y6697065D01*
X8821724Y6693001D01*
X8826652Y6689902D01*
X8832088Y6688023D01*
X8838438Y6687312D01*
X8917940Y6687312D01*
X8924239Y6688023D01*
X8929725Y6689902D01*
X8934602Y6693001D01*
X8938717Y6697065D01*
X8941765Y6701993D01*
X8943898Y6708038D01*
X8946032Y6711594D01*
X8949436Y6714032D01*
X8953500Y6714845D01*
X8957564Y6714032D01*
X8960967Y6711594D01*
X8963101Y6708038D01*
X8965234Y6701993D01*
X8968282Y6697065D01*
X8972397Y6693001D01*
X8977274Y6689902D01*
X8983421Y6687769D01*
X8986977Y6685635D01*
X8989364Y6682231D01*
X8990228Y6678168D01*
X8990228Y6496354D01*
X8989466Y6492443D01*
X8987231Y6489141D01*
X8909862Y6411772D01*
X8906611Y6409588D01*
G37*

%LPD*%
G36*
X7716520Y6210300D02*
G01*
X7712811Y6211163D01*
X7709712Y6213297D01*
X7705090Y6217869D01*
X7703058Y6220815D01*
X7702143Y6224219D01*
X7701432Y6232601D01*
X7699044Y6241948D01*
X7695031Y6250736D01*
X7689646Y6258712D01*
X7682992Y6265672D01*
X7675219Y6271412D01*
X7666583Y6275781D01*
X7657388Y6278575D01*
X7647838Y6279845D01*
X7638186Y6279388D01*
X7628737Y6277356D01*
X7619796Y6273800D01*
X7611567Y6268720D01*
X7604353Y6262370D01*
X7598257Y6254851D01*
X7593584Y6246418D01*
X7590383Y6237325D01*
X7589875Y6234531D01*
X7588300Y6230569D01*
X7585202Y6227572D01*
X7581138Y6226149D01*
X7576870Y6226505D01*
X7573162Y6228638D01*
X7570622Y6232042D01*
X7569708Y6236258D01*
X7569708Y6412941D01*
X7570622Y6417157D01*
X7573162Y6420561D01*
X7576870Y6422694D01*
X7581138Y6423050D01*
X7585202Y6421628D01*
X7588300Y6418630D01*
X7589875Y6414668D01*
X7590383Y6411874D01*
X7593584Y6402781D01*
X7598257Y6394348D01*
X7604353Y6386830D01*
X7611567Y6380480D01*
X7619796Y6375400D01*
X7628737Y6371844D01*
X7638186Y6369812D01*
X7647838Y6369354D01*
X7657388Y6370624D01*
X7666583Y6373418D01*
X7675219Y6377787D01*
X7682992Y6383528D01*
X7689646Y6390487D01*
X7695031Y6398463D01*
X7699044Y6407251D01*
X7701432Y6416598D01*
X7702296Y6426200D01*
X7701432Y6435801D01*
X7699044Y6445148D01*
X7695031Y6453936D01*
X7689646Y6461912D01*
X7682992Y6468872D01*
X7675219Y6474612D01*
X7666583Y6478981D01*
X7657388Y6481775D01*
X7647838Y6483045D01*
X7638186Y6482588D01*
X7628737Y6480556D01*
X7619796Y6477000D01*
X7611567Y6471920D01*
X7604353Y6465570D01*
X7598257Y6458051D01*
X7593584Y6449618D01*
X7590383Y6440525D01*
X7589875Y6437731D01*
X7588300Y6433769D01*
X7585202Y6430772D01*
X7581138Y6429349D01*
X7576870Y6429705D01*
X7573162Y6431838D01*
X7570622Y6435242D01*
X7569708Y6439458D01*
X7569708Y7393431D01*
X7570470Y7397343D01*
X7572705Y7400594D01*
X7575956Y7402830D01*
X7579868Y7403592D01*
X9206890Y7403592D01*
X9213392Y7404404D01*
X9218930Y7406487D01*
X9224060Y7410043D01*
X9227108Y7413040D01*
X9229750Y7416647D01*
X9232239Y7422184D01*
X9233408Y7429652D01*
X9233408Y7596631D01*
X9234170Y7600543D01*
X9236405Y7603794D01*
X9239656Y7606030D01*
X9243568Y7606792D01*
X9334652Y7606792D01*
X9338513Y7606030D01*
X9341815Y7603794D01*
X9343999Y7600543D01*
X9344812Y7596631D01*
X9344812Y7573264D01*
X9384334Y7573264D01*
X9384334Y7596631D01*
X9385147Y7600543D01*
X9387332Y7603794D01*
X9390634Y7606030D01*
X9394494Y7606792D01*
X9426905Y7606792D01*
X9430766Y7606030D01*
X9434068Y7603794D01*
X9436303Y7600543D01*
X9437065Y7596631D01*
X9437065Y7573264D01*
X9461652Y7573264D01*
X9465513Y7572451D01*
X9468815Y7570266D01*
X9470999Y7566964D01*
X9471812Y7563103D01*
X9471812Y7480706D01*
X9470999Y7476845D01*
X9468815Y7473543D01*
X9465513Y7471308D01*
X9461652Y7470546D01*
X9437065Y7470546D01*
X9437065Y7405979D01*
X9450120Y7405979D01*
X9456470Y7406690D01*
X9461906Y7408621D01*
X9470339Y7414158D01*
X9474200Y7414920D01*
X9478060Y7414209D01*
X9481362Y7412024D01*
X9482683Y7410754D01*
X9484868Y7407605D01*
X9485731Y7403896D01*
X9485172Y7400086D01*
X9482683Y7393025D01*
X9481058Y7383525D01*
X9481058Y7373874D01*
X9482683Y7364374D01*
X9485884Y7355281D01*
X9486646Y7353858D01*
X9487916Y7349642D01*
X9487306Y7345273D01*
X9484868Y7341616D01*
X9481159Y7339330D01*
X9476486Y7337704D01*
X9471609Y7334605D01*
X9467494Y7330490D01*
X9464395Y7325614D01*
X9462516Y7320127D01*
X9461804Y7313828D01*
X9461804Y7214971D01*
X9462516Y7208621D01*
X9464040Y7204252D01*
X9464598Y7200900D01*
X9464040Y7197547D01*
X9462516Y7193127D01*
X9461804Y7186828D01*
X9461804Y7087971D01*
X9462516Y7081621D01*
X9464040Y7077252D01*
X9464598Y7073900D01*
X9464040Y7070547D01*
X9462516Y7066127D01*
X9461804Y7059828D01*
X9461804Y6960971D01*
X9462516Y6954621D01*
X9464040Y6950252D01*
X9464598Y6946900D01*
X9464040Y6943547D01*
X9462516Y6939229D01*
X9461754Y6931202D01*
X9460738Y6927596D01*
X9458452Y6924649D01*
X9455302Y6922668D01*
X9451644Y6922008D01*
X9443821Y6922008D01*
X9439859Y6922820D01*
X9427819Y6931812D01*
X9419183Y6936181D01*
X9409988Y6938975D01*
X9400438Y6940245D01*
X9390786Y6939788D01*
X9381337Y6937756D01*
X9372396Y6934200D01*
X9364167Y6929120D01*
X9356953Y6922770D01*
X9350857Y6915251D01*
X9346184Y6906818D01*
X9342983Y6897725D01*
X9341358Y6888225D01*
X9341358Y6878574D01*
X9342983Y6869074D01*
X9346184Y6859981D01*
X9350857Y6851548D01*
X9356953Y6844030D01*
X9361271Y6840220D01*
X9363811Y6836765D01*
X9364726Y6832600D01*
X9363811Y6828434D01*
X9361271Y6824980D01*
X9356953Y6821170D01*
X9350857Y6813651D01*
X9346184Y6805218D01*
X9342983Y6796125D01*
X9341358Y6786625D01*
X9341358Y6776974D01*
X9342983Y6767474D01*
X9346184Y6758381D01*
X9350857Y6749948D01*
X9356953Y6742430D01*
X9364167Y6736080D01*
X9372396Y6731000D01*
X9381337Y6727444D01*
X9390786Y6725412D01*
X9400438Y6724954D01*
X9409988Y6726224D01*
X9419183Y6729018D01*
X9427819Y6733387D01*
X9439859Y6742379D01*
X9443821Y6743192D01*
X9451644Y6743192D01*
X9455505Y6742430D01*
X9458807Y6740194D01*
X9461042Y6736943D01*
X9461804Y6733031D01*
X9461804Y6706971D01*
X9462516Y6700621D01*
X9464040Y6696252D01*
X9464598Y6692900D01*
X9464040Y6689547D01*
X9462516Y6685127D01*
X9461804Y6678828D01*
X9461804Y6579971D01*
X9462516Y6573621D01*
X9464395Y6568186D01*
X9467494Y6563258D01*
X9470288Y6560464D01*
X9472422Y6557314D01*
X9473285Y6553657D01*
X9472726Y6549898D01*
X9469983Y6542125D01*
X9468358Y6532626D01*
X9468358Y6522974D01*
X9469983Y6513474D01*
X9473184Y6504381D01*
X9476384Y6498640D01*
X9477654Y6494373D01*
X9476994Y6489954D01*
X9474504Y6486296D01*
X9470694Y6484010D01*
X9466275Y6483553D01*
X9456470Y6487109D01*
X9450120Y6487820D01*
X9437065Y6487820D01*
X9437065Y6423253D01*
X9461652Y6423253D01*
X9465513Y6422491D01*
X9468815Y6420256D01*
X9470999Y6416954D01*
X9471812Y6413093D01*
X9471812Y6330696D01*
X9470999Y6326835D01*
X9468815Y6323533D01*
X9465513Y6321298D01*
X9461652Y6320536D01*
X9437065Y6320536D01*
X9437065Y6297168D01*
X9436303Y6293256D01*
X9434068Y6290005D01*
X9430766Y6287770D01*
X9426905Y6287008D01*
X9394494Y6287008D01*
X9390634Y6287770D01*
X9387332Y6290005D01*
X9385147Y6293256D01*
X9384334Y6297168D01*
X9384334Y6320536D01*
X9344812Y6320536D01*
X9344812Y6297168D01*
X9343999Y6293256D01*
X9341815Y6290005D01*
X9338513Y6287770D01*
X9334652Y6287008D01*
X9316618Y6287008D01*
X9312706Y6287770D01*
X9309404Y6290005D01*
X9202470Y6396939D01*
X9200692Y6399377D01*
X9199676Y6402222D01*
X9199575Y6405270D01*
X9200388Y6412738D01*
X9200388Y6492240D01*
X9199676Y6498539D01*
X9197797Y6504025D01*
X9194698Y6508902D01*
X9190634Y6513017D01*
X9185706Y6516065D01*
X9179661Y6518198D01*
X9176105Y6520332D01*
X9173667Y6523735D01*
X9172854Y6527800D01*
X9173667Y6531864D01*
X9176105Y6535267D01*
X9179661Y6537401D01*
X9185706Y6539534D01*
X9190634Y6542582D01*
X9194698Y6546697D01*
X9197797Y6551574D01*
X9199676Y6557060D01*
X9200388Y6563359D01*
X9200388Y6576618D01*
X9159240Y6576618D01*
X9159240Y6528866D01*
X9158478Y6524955D01*
X9156293Y6521704D01*
X9152991Y6519468D01*
X9149080Y6518706D01*
X9113520Y6518706D01*
X9109608Y6519468D01*
X9106306Y6521704D01*
X9104122Y6524955D01*
X9103360Y6528866D01*
X9103360Y6576618D01*
X9077604Y6576618D01*
X9073692Y6577380D01*
X9070441Y6579565D01*
X9068206Y6582867D01*
X9067444Y6586778D01*
X9067444Y6619494D01*
X9068206Y6623354D01*
X9070441Y6626656D01*
X9073692Y6628841D01*
X9077604Y6629653D01*
X9103360Y6629653D01*
X9103360Y6669379D01*
X9088678Y6669379D01*
X9079331Y6668160D01*
X9075064Y6668363D01*
X9071203Y6670294D01*
X9068511Y6673646D01*
X9067444Y6677761D01*
X9068206Y6681978D01*
X9070594Y6685534D01*
X9074251Y6687769D01*
X9080347Y6689902D01*
X9085275Y6693001D01*
X9089339Y6697065D01*
X9092438Y6701993D01*
X9094368Y6707428D01*
X9095079Y6713778D01*
X9095079Y6799021D01*
X9094368Y6805371D01*
X9092438Y6810806D01*
X9089339Y6815734D01*
X9085275Y6819798D01*
X9080347Y6822897D01*
X9074251Y6825030D01*
X9070695Y6827164D01*
X9068308Y6830568D01*
X9067444Y6834631D01*
X9067444Y6843268D01*
X9068308Y6847331D01*
X9070695Y6850735D01*
X9074251Y6852869D01*
X9080347Y6855002D01*
X9085275Y6858101D01*
X9089339Y6862165D01*
X9092438Y6867093D01*
X9094368Y6872528D01*
X9095079Y6878878D01*
X9095079Y6964121D01*
X9094368Y6970471D01*
X9092438Y6975906D01*
X9089339Y6980834D01*
X9085275Y6984898D01*
X9080347Y6987997D01*
X9074912Y6989876D01*
X9068562Y6990588D01*
X8989060Y6990588D01*
X8982760Y6989876D01*
X8977274Y6987997D01*
X8972397Y6984898D01*
X8968282Y6980834D01*
X8965234Y6975906D01*
X8963101Y6969861D01*
X8960967Y6966305D01*
X8957564Y6963867D01*
X8953500Y6963054D01*
X8949436Y6963867D01*
X8946032Y6966305D01*
X8943898Y6969861D01*
X8941765Y6975906D01*
X8938717Y6980834D01*
X8934602Y6984898D01*
X8929725Y6987997D01*
X8924239Y6989876D01*
X8917940Y6990588D01*
X8838438Y6990588D01*
X8832088Y6989876D01*
X8826652Y6987997D01*
X8821724Y6984898D01*
X8817660Y6980834D01*
X8814562Y6975906D01*
X8812631Y6970471D01*
X8811920Y6964121D01*
X8811920Y6901434D01*
X8811158Y6897573D01*
X8808974Y6894271D01*
X8800795Y6886092D01*
X8797493Y6883857D01*
X8793581Y6883095D01*
X8754821Y6883095D01*
X8751366Y6883704D01*
X8745016Y6884416D01*
X8735669Y6884416D01*
X8731758Y6885178D01*
X8728506Y6887413D01*
X8726271Y6890715D01*
X8725509Y6894575D01*
X8725509Y6953910D01*
X8724798Y6960209D01*
X8722868Y6965696D01*
X8719820Y6970572D01*
X8715705Y6974687D01*
X8710828Y6977735D01*
X8705342Y6979666D01*
X8699042Y6980377D01*
X8672169Y6980377D01*
X8665870Y6979666D01*
X8660587Y6978446D01*
X8655354Y6979666D01*
X8649055Y6980377D01*
X8622182Y6980377D01*
X8615832Y6979666D01*
X8610600Y6978446D01*
X8605367Y6979666D01*
X8599017Y6980377D01*
X8572144Y6980377D01*
X8565845Y6979666D01*
X8560612Y6978446D01*
X8555329Y6979666D01*
X8549030Y6980377D01*
X8522157Y6980377D01*
X8515858Y6979666D01*
X8510371Y6977735D01*
X8505494Y6974687D01*
X8501380Y6970572D01*
X8498332Y6965696D01*
X8496401Y6960209D01*
X8496147Y6957771D01*
X8494928Y6953961D01*
X8492286Y6950913D01*
X8488730Y6949084D01*
X8484768Y6948830D01*
X8480958Y6950100D01*
X8477961Y6952742D01*
X8476183Y6956348D01*
X8473744Y6965848D01*
X8469731Y6974636D01*
X8464346Y6982612D01*
X8457692Y6989572D01*
X8449919Y6995312D01*
X8441283Y6999681D01*
X8432088Y7002475D01*
X8422538Y7003745D01*
X8412886Y7003288D01*
X8403437Y7001256D01*
X8394496Y6997700D01*
X8386267Y6992620D01*
X8379053Y6986270D01*
X8372957Y6978751D01*
X8368284Y6970318D01*
X8365083Y6961225D01*
X8363458Y6951725D01*
X8363458Y6942074D01*
X8365083Y6932574D01*
X8368030Y6924192D01*
X8368588Y6920382D01*
X8367674Y6916623D01*
X8365490Y6913473D01*
X8362238Y6911390D01*
X8358428Y6910679D01*
X8313978Y6910679D01*
X8307628Y6909968D01*
X8302193Y6908038D01*
X8297265Y6904939D01*
X8293201Y6900875D01*
X8290102Y6895947D01*
X8288223Y6890512D01*
X8287512Y6884162D01*
X8287512Y6815429D01*
X8286699Y6811568D01*
X8284514Y6808266D01*
X8189264Y6712966D01*
X8185962Y6710781D01*
X8182051Y6710019D01*
X8054848Y6710019D01*
X8048548Y6709308D01*
X8043062Y6707378D01*
X8038185Y6704330D01*
X8034070Y6700215D01*
X8031022Y6695338D01*
X8029092Y6689852D01*
X8028381Y6683552D01*
X8028381Y6536181D01*
X8029803Y6525412D01*
X8028686Y6521450D01*
X8026095Y6518249D01*
X8024164Y6516624D01*
X7732775Y6225235D01*
X7727645Y6219037D01*
X7725867Y6215684D01*
X7723479Y6212738D01*
X7720228Y6210858D01*
G37*

%LPC*%
G36*
X9344812Y6423253D02*
G01*
X9384334Y6423253D01*
X9384334Y6487820D01*
X9371279Y6487820D01*
X9364929Y6487109D01*
X9359493Y6485178D01*
X9354616Y6482080D01*
X9350502Y6478016D01*
X9347403Y6473088D01*
X9345523Y6467652D01*
X9344812Y6461353D01*
G37*
G36*
X7691272Y6573266D02*
G01*
X7828127Y6573266D01*
X7834426Y6574028D01*
X7839913Y6575907D01*
X7844790Y6579006D01*
X7848904Y6583070D01*
X7852003Y6587998D01*
X7853883Y6593433D01*
X7854594Y6599783D01*
X7854594Y6798614D01*
X7853883Y6804964D01*
X7852003Y6810400D01*
X7848904Y6815328D01*
X7844790Y6819392D01*
X7839913Y6822490D01*
X7834426Y6824370D01*
X7828127Y6825081D01*
X7825994Y6825081D01*
X7821879Y6825945D01*
X7818475Y6828383D01*
X7816342Y6831990D01*
X7815834Y6836105D01*
X7816596Y6844538D01*
X7815732Y6854139D01*
X7813344Y6863486D01*
X7809331Y6872274D01*
X7803946Y6880250D01*
X7797292Y6887209D01*
X7789519Y6892950D01*
X7780883Y6897319D01*
X7771688Y6900113D01*
X7762138Y6901383D01*
X7752486Y6900925D01*
X7743037Y6898894D01*
X7734096Y6895338D01*
X7725867Y6890258D01*
X7718653Y6883908D01*
X7712557Y6876389D01*
X7707884Y6867956D01*
X7704683Y6858863D01*
X7703058Y6849364D01*
X7703058Y6839712D01*
X7703515Y6836968D01*
X7703312Y6832600D01*
X7701280Y6828739D01*
X7697774Y6826046D01*
X7693507Y6825081D01*
X7691272Y6825081D01*
X7684973Y6824370D01*
X7679486Y6822490D01*
X7674609Y6819392D01*
X7670495Y6815328D01*
X7667396Y6810400D01*
X7665516Y6804964D01*
X7664805Y6798614D01*
X7664805Y6599783D01*
X7665516Y6593433D01*
X7667396Y6587998D01*
X7670495Y6583070D01*
X7674609Y6579006D01*
X7679486Y6575907D01*
X7684973Y6574028D01*
G37*
G36*
X9159240Y6629653D02*
G01*
X9200388Y6629653D01*
X9200388Y6642862D01*
X9199676Y6649212D01*
X9197797Y6654647D01*
X9194698Y6659575D01*
X9190634Y6663639D01*
X9185706Y6666738D01*
X9180271Y6668668D01*
X9173921Y6669379D01*
X9159240Y6669379D01*
G37*
G36*
X8054848Y6828180D02*
G01*
X8091170Y6828180D01*
X8091170Y6884873D01*
X8028381Y6884873D01*
X8028381Y6854647D01*
X8029092Y6848348D01*
X8031022Y6842861D01*
X8034070Y6837984D01*
X8038185Y6833870D01*
X8043062Y6830822D01*
X8048548Y6828891D01*
G37*
G36*
X8190230Y6828180D02*
G01*
X8226552Y6828180D01*
X8232851Y6828891D01*
X8238337Y6830822D01*
X8243214Y6833870D01*
X8247329Y6837984D01*
X8250377Y6842861D01*
X8252307Y6848348D01*
X8253018Y6854647D01*
X8253018Y6884873D01*
X8190230Y6884873D01*
G37*
G36*
X8028381Y6971842D02*
G01*
X8091170Y6971842D01*
X8091170Y7028484D01*
X8054848Y7028484D01*
X8048548Y7027773D01*
X8043062Y7025894D01*
X8038185Y7022795D01*
X8034070Y7018731D01*
X8031022Y7013803D01*
X8029092Y7008368D01*
X8028381Y7002018D01*
G37*
G36*
X8190230Y6971842D02*
G01*
X8253018Y6971842D01*
X8253018Y7002018D01*
X8252307Y7008368D01*
X8250377Y7013803D01*
X8247329Y7018731D01*
X8243214Y7022795D01*
X8238337Y7025894D01*
X8232851Y7027773D01*
X8226552Y7028484D01*
X8190230Y7028484D01*
G37*
G36*
X8694724Y7075017D02*
G01*
X8706916Y7075881D01*
X8718905Y7078472D01*
X8730386Y7082790D01*
X8741156Y7088631D01*
X8750960Y7095998D01*
X8759596Y7104634D01*
X8766962Y7114489D01*
X8772804Y7125208D01*
X8777122Y7136688D01*
X8779713Y7148677D01*
X8780627Y7161275D01*
X8780627Y7240524D01*
X8779713Y7253122D01*
X8777122Y7265111D01*
X8772804Y7276592D01*
X8766962Y7287310D01*
X8759596Y7297115D01*
X8750960Y7305802D01*
X8741156Y7313168D01*
X8730386Y7319009D01*
X8718905Y7323328D01*
X8706916Y7325918D01*
X8694724Y7326782D01*
X8682482Y7325918D01*
X8670493Y7323328D01*
X8659012Y7319009D01*
X8648293Y7313168D01*
X8638438Y7305802D01*
X8629802Y7297115D01*
X8622436Y7287310D01*
X8616594Y7276592D01*
X8612276Y7265111D01*
X8609685Y7253122D01*
X8608771Y7240524D01*
X8608771Y7161275D01*
X8609685Y7148677D01*
X8612276Y7136688D01*
X8616594Y7125208D01*
X8622436Y7114489D01*
X8629802Y7104634D01*
X8638438Y7095998D01*
X8648293Y7088631D01*
X8659012Y7082790D01*
X8670493Y7078472D01*
X8682482Y7075881D01*
G37*
G36*
X7894675Y7075017D02*
G01*
X7906918Y7075881D01*
X7918907Y7078472D01*
X7930388Y7082790D01*
X7941106Y7088631D01*
X7950962Y7095998D01*
X7959598Y7104634D01*
X7966964Y7114489D01*
X7972806Y7125208D01*
X7977124Y7136688D01*
X7979714Y7148677D01*
X7980629Y7161275D01*
X7980629Y7240524D01*
X7979714Y7253122D01*
X7977124Y7265111D01*
X7972806Y7276592D01*
X7966964Y7287310D01*
X7959598Y7297115D01*
X7950962Y7305802D01*
X7941106Y7313168D01*
X7930388Y7319009D01*
X7918907Y7323328D01*
X7906918Y7325918D01*
X7894675Y7326782D01*
X7882483Y7325918D01*
X7870494Y7323328D01*
X7859014Y7319009D01*
X7848244Y7313168D01*
X7838440Y7305802D01*
X7829803Y7297115D01*
X7822438Y7287310D01*
X7816596Y7276592D01*
X7812278Y7265111D01*
X7809687Y7253122D01*
X7808772Y7240524D01*
X7808772Y7161275D01*
X7809687Y7148677D01*
X7812278Y7136688D01*
X7816596Y7125208D01*
X7822438Y7114489D01*
X7829803Y7104634D01*
X7838440Y7095998D01*
X7848244Y7088631D01*
X7859014Y7082790D01*
X7870494Y7078472D01*
X7882483Y7075881D01*
G37*
G36*
X8494725Y7075017D02*
G01*
X8506917Y7075881D01*
X8518906Y7078472D01*
X8530386Y7082790D01*
X8541156Y7088631D01*
X8550960Y7095998D01*
X8559596Y7104634D01*
X8566962Y7114489D01*
X8572804Y7125208D01*
X8577122Y7136688D01*
X8579713Y7148677D01*
X8580628Y7161275D01*
X8580628Y7240524D01*
X8579713Y7253122D01*
X8577122Y7265111D01*
X8572804Y7276592D01*
X8566962Y7287310D01*
X8559596Y7297115D01*
X8550960Y7305802D01*
X8541156Y7313168D01*
X8530386Y7319009D01*
X8518906Y7323328D01*
X8506917Y7325918D01*
X8494725Y7326782D01*
X8482482Y7325918D01*
X8470493Y7323328D01*
X8459012Y7319009D01*
X8448294Y7313168D01*
X8438438Y7305802D01*
X8429802Y7297115D01*
X8422436Y7287310D01*
X8416594Y7276592D01*
X8412276Y7265111D01*
X8409686Y7253122D01*
X8408771Y7240524D01*
X8408771Y7161275D01*
X8409686Y7148677D01*
X8412276Y7136688D01*
X8416594Y7125208D01*
X8422436Y7114489D01*
X8429802Y7104634D01*
X8438438Y7095998D01*
X8448294Y7088631D01*
X8459012Y7082790D01*
X8470493Y7078472D01*
X8482482Y7075881D01*
G37*
G36*
X8094675Y7075017D02*
G01*
X8106918Y7075881D01*
X8118906Y7078472D01*
X8130387Y7082790D01*
X8141106Y7088631D01*
X8150961Y7095998D01*
X8159597Y7104634D01*
X8166963Y7114489D01*
X8172805Y7125208D01*
X8177123Y7136688D01*
X8179714Y7148677D01*
X8180628Y7161275D01*
X8180628Y7240524D01*
X8179714Y7253122D01*
X8177123Y7265111D01*
X8172805Y7276592D01*
X8166963Y7287310D01*
X8159597Y7297115D01*
X8150961Y7305802D01*
X8141106Y7313168D01*
X8130387Y7319009D01*
X8118906Y7323328D01*
X8106918Y7325918D01*
X8094675Y7326782D01*
X8082483Y7325918D01*
X8070494Y7323328D01*
X8059013Y7319009D01*
X8048244Y7313168D01*
X8038439Y7305802D01*
X8029803Y7297115D01*
X8022437Y7287310D01*
X8016595Y7276592D01*
X8012277Y7265111D01*
X8009686Y7253122D01*
X8008772Y7240524D01*
X8008772Y7161275D01*
X8009686Y7148677D01*
X8012277Y7136688D01*
X8016595Y7125208D01*
X8022437Y7114489D01*
X8029803Y7104634D01*
X8038439Y7095998D01*
X8048244Y7088631D01*
X8059013Y7082790D01*
X8070494Y7078472D01*
X8082483Y7075881D01*
G37*
G36*
X8294725Y7075017D02*
G01*
X8306917Y7075881D01*
X8318906Y7078472D01*
X8330387Y7082790D01*
X8341156Y7088631D01*
X8350961Y7095998D01*
X8359597Y7104634D01*
X8366963Y7114489D01*
X8372805Y7125208D01*
X8377123Y7136688D01*
X8379714Y7148677D01*
X8380628Y7161275D01*
X8380628Y7240524D01*
X8379714Y7253122D01*
X8377123Y7265111D01*
X8372805Y7276592D01*
X8366963Y7287310D01*
X8359597Y7297115D01*
X8350961Y7305802D01*
X8341156Y7313168D01*
X8330387Y7319009D01*
X8318906Y7323328D01*
X8306917Y7325918D01*
X8294725Y7326782D01*
X8282482Y7325918D01*
X8270494Y7323328D01*
X8259013Y7319009D01*
X8248294Y7313168D01*
X8238439Y7305802D01*
X8229803Y7297115D01*
X8222437Y7287310D01*
X8216595Y7276592D01*
X8212277Y7265111D01*
X8209686Y7253122D01*
X8208772Y7240524D01*
X8208772Y7161275D01*
X8209686Y7148677D01*
X8212277Y7136688D01*
X8216595Y7125208D01*
X8222437Y7114489D01*
X8229803Y7104634D01*
X8238439Y7095998D01*
X8248294Y7088631D01*
X8259013Y7082790D01*
X8270494Y7078472D01*
X8282482Y7075881D01*
G37*
G36*
X8858351Y7083145D02*
G01*
X8858351Y7144562D01*
X8810599Y7144562D01*
X8812276Y7136688D01*
X8816594Y7125208D01*
X8822436Y7114489D01*
X8829802Y7104634D01*
X8838438Y7095998D01*
X8848293Y7088631D01*
G37*
G36*
X8931046Y7083145D02*
G01*
X8941155Y7088631D01*
X8950960Y7095998D01*
X8959596Y7104634D01*
X8966962Y7114489D01*
X8972804Y7125208D01*
X8977122Y7136688D01*
X8978798Y7144562D01*
X8931046Y7144562D01*
G37*
G36*
X8810599Y7257237D02*
G01*
X8858351Y7257237D01*
X8858351Y7318654D01*
X8848293Y7313168D01*
X8838438Y7305802D01*
X8829802Y7297115D01*
X8822436Y7287310D01*
X8816594Y7276592D01*
X8812276Y7265111D01*
G37*
G36*
X8931046Y7257237D02*
G01*
X8978798Y7257237D01*
X8977122Y7265111D01*
X8972804Y7276592D01*
X8966962Y7287310D01*
X8959596Y7297115D01*
X8950960Y7305802D01*
X8941155Y7313168D01*
X8931046Y7318654D01*
G37*
G36*
X9371279Y7405979D02*
G01*
X9384334Y7405979D01*
X9384334Y7470546D01*
X9344812Y7470546D01*
X9344812Y7432446D01*
X9345523Y7426147D01*
X9347403Y7420711D01*
X9350502Y7415784D01*
X9354616Y7411720D01*
X9359493Y7408621D01*
X9364929Y7406690D01*
G37*

%LPD*%
G36*
X7856677Y5766308D02*
G01*
X7852460Y5767222D01*
X7848955Y5769813D01*
X7846923Y5773623D01*
X7846618Y5777890D01*
X7848092Y5781954D01*
X7852003Y5788050D01*
X7853883Y5793435D01*
X7854594Y5799785D01*
X7854594Y5998616D01*
X7853883Y6004966D01*
X7852003Y6010402D01*
X7848904Y6015329D01*
X7844790Y6019393D01*
X7839913Y6022492D01*
X7834426Y6024372D01*
X7828127Y6025083D01*
X7808468Y6025083D01*
X7804556Y6025896D01*
X7801305Y6028080D01*
X7799070Y6031382D01*
X7798308Y6035243D01*
X7798308Y6177381D01*
X7799070Y6181293D01*
X7801305Y6184595D01*
X8064804Y6448094D01*
X8068106Y6450330D01*
X8072018Y6451092D01*
X8742781Y6451092D01*
X8746693Y6450330D01*
X8749995Y6448094D01*
X8843060Y6355029D01*
X8845245Y6351727D01*
X8846058Y6347866D01*
X8846058Y6345174D01*
X8847683Y6335674D01*
X8850884Y6326581D01*
X8855557Y6318148D01*
X8861653Y6310630D01*
X8868867Y6304280D01*
X8877096Y6299200D01*
X8886037Y6295644D01*
X8895486Y6293612D01*
X8905138Y6293154D01*
X8914688Y6294424D01*
X8923883Y6297218D01*
X8932519Y6301587D01*
X8940292Y6307328D01*
X8946946Y6314287D01*
X8952331Y6322263D01*
X8956344Y6331051D01*
X8958732Y6340398D01*
X8959443Y6348780D01*
X8960358Y6352184D01*
X8962390Y6355130D01*
X9023553Y6416243D01*
X9027160Y6418580D01*
X9031427Y6419189D01*
X9035542Y6418021D01*
X9037777Y6416852D01*
X9044940Y6414668D01*
X9054033Y6413804D01*
X9057741Y6412738D01*
X9060738Y6410350D01*
X9062669Y6407048D01*
X9064802Y6400952D01*
X9067901Y6396024D01*
X9071965Y6391960D01*
X9076893Y6388862D01*
X9082328Y6386931D01*
X9088678Y6386220D01*
X9099753Y6386220D01*
X9103614Y6385458D01*
X9106916Y6383274D01*
X9236659Y6253530D01*
X9238843Y6250279D01*
X9239605Y6246368D01*
X9238843Y6242456D01*
X9236659Y6239205D01*
X9233357Y6236970D01*
X9229445Y6236208D01*
X8077809Y6236208D01*
X8071307Y6235395D01*
X8065770Y6233312D01*
X8060639Y6229756D01*
X8057591Y6226759D01*
X8054949Y6223152D01*
X8052460Y6217615D01*
X8051292Y6210147D01*
X8051292Y5776468D01*
X8050530Y5772556D01*
X8048294Y5769305D01*
X8045043Y5767070D01*
X8041131Y5766308D01*
G37*

%LPC*%
G36*
X8651138Y6293154D02*
G01*
X8660688Y6294424D01*
X8669883Y6297218D01*
X8678519Y6301587D01*
X8686292Y6307328D01*
X8692946Y6314287D01*
X8698331Y6322263D01*
X8702344Y6331051D01*
X8704732Y6340398D01*
X8705596Y6350000D01*
X8704732Y6359601D01*
X8702344Y6368948D01*
X8698331Y6377736D01*
X8692946Y6385712D01*
X8686292Y6392672D01*
X8678519Y6398412D01*
X8669883Y6402781D01*
X8660688Y6405575D01*
X8651138Y6406845D01*
X8641486Y6406388D01*
X8632037Y6404356D01*
X8623096Y6400800D01*
X8614867Y6395720D01*
X8607653Y6389370D01*
X8601557Y6381851D01*
X8596884Y6373418D01*
X8593683Y6364325D01*
X8592058Y6354826D01*
X8592058Y6345174D01*
X8593683Y6335674D01*
X8596884Y6326581D01*
X8601557Y6318148D01*
X8607653Y6310630D01*
X8614867Y6304280D01*
X8623096Y6299200D01*
X8632037Y6295644D01*
X8641486Y6293612D01*
G37*
G36*
X8397138Y6293154D02*
G01*
X8406688Y6294424D01*
X8415883Y6297218D01*
X8424519Y6301587D01*
X8432292Y6307328D01*
X8438946Y6314287D01*
X8444331Y6322263D01*
X8448344Y6331051D01*
X8450732Y6340398D01*
X8451596Y6350000D01*
X8450732Y6359601D01*
X8448344Y6368948D01*
X8444331Y6377736D01*
X8438946Y6385712D01*
X8432292Y6392672D01*
X8424519Y6398412D01*
X8415883Y6402781D01*
X8406688Y6405575D01*
X8397138Y6406845D01*
X8387486Y6406388D01*
X8378037Y6404356D01*
X8369096Y6400800D01*
X8360867Y6395720D01*
X8353653Y6389370D01*
X8347557Y6381851D01*
X8342884Y6373418D01*
X8339683Y6364325D01*
X8338058Y6354826D01*
X8338058Y6345174D01*
X8339683Y6335674D01*
X8342884Y6326581D01*
X8347557Y6318148D01*
X8353653Y6310630D01*
X8360867Y6304280D01*
X8369096Y6299200D01*
X8378037Y6295644D01*
X8387486Y6293612D01*
G37*

%LPD*%
G36*
X10462768Y4483608D02*
G01*
X10458856Y4484370D01*
X10455605Y4486605D01*
X10453370Y4489856D01*
X10452608Y4493768D01*
X10452608Y4955032D01*
X10453370Y4958943D01*
X10455605Y4962194D01*
X10458856Y4964430D01*
X10462768Y4965192D01*
X10730890Y4965192D01*
X10737392Y4966004D01*
X10742930Y4968087D01*
X10748060Y4971643D01*
X10751108Y4974640D01*
X10753750Y4978247D01*
X10756239Y4983784D01*
X10757408Y4991252D01*
X10757408Y5752490D01*
X10756595Y5758992D01*
X10754512Y5764530D01*
X10750956Y5769660D01*
X10747959Y5772708D01*
X10744352Y5775350D01*
X10738815Y5777839D01*
X10731347Y5779008D01*
X10475468Y5779008D01*
X10471556Y5779770D01*
X10468305Y5782005D01*
X10466070Y5785256D01*
X10465308Y5789168D01*
X10465308Y6209690D01*
X10464495Y6216192D01*
X10462412Y6221730D01*
X10458856Y6226860D01*
X10455859Y6229908D01*
X10452252Y6232550D01*
X10446715Y6235039D01*
X10442244Y6235852D01*
X10438282Y6237478D01*
X10435386Y6240576D01*
X10434015Y6244590D01*
X10434370Y6248857D01*
X10436453Y6252565D01*
X10439908Y6255105D01*
X10444073Y6255969D01*
X10466120Y6255969D01*
X10472470Y6256680D01*
X10477906Y6258610D01*
X10482834Y6261709D01*
X10486898Y6265773D01*
X10489996Y6270701D01*
X10491876Y6276136D01*
X10492638Y6282486D01*
X10492638Y6461353D01*
X10491876Y6467652D01*
X10489996Y6473088D01*
X10486898Y6478016D01*
X10482834Y6482080D01*
X10477906Y6485178D01*
X10472115Y6487210D01*
X10468559Y6489344D01*
X10466171Y6492748D01*
X10465308Y6496812D01*
X10465308Y6501892D01*
X10464495Y6509918D01*
X10462310Y6517131D01*
X10458754Y6523837D01*
X10453624Y6530035D01*
X10416235Y6567424D01*
X10410037Y6572554D01*
X10403332Y6576110D01*
X10396118Y6578295D01*
X10388092Y6579108D01*
X10205821Y6579108D01*
X10201859Y6579920D01*
X10189819Y6588912D01*
X10181183Y6593281D01*
X10171988Y6596075D01*
X10162438Y6597345D01*
X10152786Y6596888D01*
X10143337Y6594856D01*
X10134396Y6591300D01*
X10126167Y6586220D01*
X10118953Y6579870D01*
X10112857Y6572351D01*
X10108184Y6563918D01*
X10104983Y6554825D01*
X10104475Y6552031D01*
X10102900Y6548069D01*
X10099802Y6545072D01*
X10095738Y6543649D01*
X10091470Y6544005D01*
X10087762Y6546138D01*
X10085222Y6549542D01*
X10084308Y6553758D01*
X10084308Y6596380D01*
X10085019Y6600190D01*
X10087152Y6603441D01*
X10089946Y6606387D01*
X10095331Y6614363D01*
X10099344Y6623151D01*
X10101732Y6632498D01*
X10102596Y6642100D01*
X10101732Y6651701D01*
X10099344Y6661048D01*
X10095331Y6669836D01*
X10089946Y6677812D01*
X10083292Y6684772D01*
X10075519Y6690512D01*
X10066883Y6694881D01*
X10057688Y6697675D01*
X10048138Y6698945D01*
X10038486Y6698488D01*
X10029037Y6696456D01*
X10020096Y6692900D01*
X10011867Y6687820D01*
X10004653Y6681470D01*
X9998557Y6673951D01*
X9993884Y6665518D01*
X9990683Y6656425D01*
X9990226Y6653834D01*
X9988600Y6649872D01*
X9985552Y6646925D01*
X9981488Y6645503D01*
X9977221Y6645859D01*
X9973513Y6647942D01*
X9970973Y6651396D01*
X9968331Y6657136D01*
X9962946Y6665112D01*
X9956292Y6672072D01*
X9948519Y6677812D01*
X9939883Y6682181D01*
X9930688Y6684975D01*
X9921138Y6686245D01*
X9911486Y6685788D01*
X9902037Y6683756D01*
X9893096Y6680200D01*
X9884867Y6675120D01*
X9877653Y6668770D01*
X9871557Y6661251D01*
X9866884Y6652818D01*
X9864852Y6647078D01*
X9862616Y6643420D01*
X9859060Y6641033D01*
X9854844Y6640322D01*
X9850678Y6641388D01*
X9847376Y6644081D01*
X9841331Y6657136D01*
X9835946Y6665112D01*
X9829292Y6672072D01*
X9821519Y6677812D01*
X9812883Y6682181D01*
X9803688Y6684975D01*
X9794138Y6686245D01*
X9784486Y6685788D01*
X9775037Y6683756D01*
X9766096Y6680200D01*
X9757867Y6675120D01*
X9750653Y6668770D01*
X9744557Y6661251D01*
X9739884Y6652818D01*
X9736683Y6643725D01*
X9735058Y6634225D01*
X9735058Y6624574D01*
X9736683Y6615074D01*
X9739884Y6605981D01*
X9744557Y6597548D01*
X9750856Y6589826D01*
X9752533Y6586829D01*
X9753092Y6583425D01*
X9753092Y6496812D01*
X9752228Y6492748D01*
X9749840Y6489344D01*
X9746284Y6487210D01*
X9740493Y6485178D01*
X9732111Y6479692D01*
X9728200Y6478930D01*
X9724339Y6479692D01*
X9715906Y6485178D01*
X9710115Y6487210D01*
X9706559Y6489344D01*
X9704171Y6492748D01*
X9703308Y6496812D01*
X9703308Y6837680D01*
X9704019Y6841490D01*
X9706152Y6844741D01*
X9708946Y6847687D01*
X9714331Y6855663D01*
X9718344Y6864451D01*
X9720732Y6873798D01*
X9721596Y6883400D01*
X9720732Y6893001D01*
X9718344Y6902348D01*
X9714331Y6911136D01*
X9708946Y6919112D01*
X9702292Y6926072D01*
X9694519Y6931812D01*
X9687661Y6935266D01*
X9684461Y6937857D01*
X9682530Y6941464D01*
X9682175Y6945579D01*
X9683445Y6949440D01*
X9686188Y6952538D01*
X9689592Y6955028D01*
X9696246Y6961987D01*
X9701631Y6969963D01*
X9705644Y6978751D01*
X9708032Y6988098D01*
X9708896Y6997700D01*
X9708032Y7007301D01*
X9705644Y7016648D01*
X9701631Y7025436D01*
X9696246Y7033412D01*
X9689592Y7040372D01*
X9681819Y7046112D01*
X9673183Y7050481D01*
X9663988Y7053275D01*
X9659061Y7053935D01*
X9655048Y7055358D01*
X9651949Y7058304D01*
X9650374Y7062266D01*
X9650526Y7066584D01*
X9652457Y7070394D01*
X9655810Y7073087D01*
X9662109Y7076287D01*
X9669881Y7082028D01*
X9676587Y7088987D01*
X9681972Y7096963D01*
X9685934Y7105751D01*
X9688372Y7115098D01*
X9689185Y7124700D01*
X9688372Y7134301D01*
X9685934Y7143648D01*
X9681972Y7152436D01*
X9676587Y7160412D01*
X9669881Y7167372D01*
X9662109Y7173112D01*
X9659467Y7174484D01*
X9656216Y7177024D01*
X9654286Y7180681D01*
X9653930Y7184745D01*
X9655251Y7188657D01*
X9657994Y7191705D01*
X9664192Y7196328D01*
X9670846Y7203287D01*
X9676231Y7211263D01*
X9680244Y7220051D01*
X9682632Y7229398D01*
X9683496Y7239000D01*
X9682632Y7248601D01*
X9680244Y7257948D01*
X9676231Y7266736D01*
X9670846Y7274712D01*
X9664192Y7281672D01*
X9656419Y7287412D01*
X9647783Y7291781D01*
X9638588Y7294575D01*
X9629038Y7295845D01*
X9624212Y7295591D01*
X9620199Y7296251D01*
X9616744Y7298436D01*
X9614408Y7301788D01*
X9613595Y7305751D01*
X9613595Y7313828D01*
X9612884Y7320127D01*
X9611207Y7324953D01*
X9610699Y7329322D01*
X9612071Y7333538D01*
X9615119Y7336739D01*
X9619234Y7338364D01*
X9623653Y7338059D01*
X9627514Y7335926D01*
X9630867Y7332980D01*
X9639096Y7327900D01*
X9648037Y7324344D01*
X9657486Y7322312D01*
X9667138Y7321854D01*
X9676688Y7323124D01*
X9685883Y7325918D01*
X9694519Y7330287D01*
X9702292Y7336028D01*
X9708946Y7342987D01*
X9714331Y7350963D01*
X9716516Y7355789D01*
X9718954Y7359142D01*
X9722561Y7361224D01*
X9724237Y7361428D01*
X9723120Y7362342D01*
X9721240Y7365796D01*
X9720783Y7369708D01*
X9721596Y7378700D01*
X9720732Y7388301D01*
X9718344Y7397648D01*
X9717582Y7399274D01*
X9716668Y7403287D01*
X9717430Y7407351D01*
X9719716Y7410754D01*
X9721037Y7412024D01*
X9724339Y7414158D01*
X9728200Y7414920D01*
X9732060Y7414158D01*
X9740493Y7408621D01*
X9746284Y7406589D01*
X9749840Y7404455D01*
X9752228Y7401052D01*
X9753092Y7396988D01*
X9753092Y7386574D01*
X9752533Y7383170D01*
X9750856Y7380173D01*
X9744557Y7372451D01*
X9739782Y7363866D01*
X9737242Y7360920D01*
X9733788Y7359091D01*
X9732467Y7358989D01*
X9733838Y7357770D01*
X9735667Y7354011D01*
X9735820Y7349845D01*
X9735058Y7345425D01*
X9735058Y7335774D01*
X9736683Y7326274D01*
X9739884Y7317181D01*
X9744557Y7308748D01*
X9750653Y7301230D01*
X9757867Y7294880D01*
X9766096Y7289800D01*
X9775037Y7286244D01*
X9784486Y7284212D01*
X9794138Y7283754D01*
X9803688Y7285024D01*
X9812883Y7287818D01*
X9821519Y7292187D01*
X9829292Y7297928D01*
X9835946Y7304887D01*
X9841331Y7312863D01*
X9845344Y7321651D01*
X9847732Y7330998D01*
X9848596Y7340600D01*
X9847732Y7350201D01*
X9845344Y7359548D01*
X9841331Y7368336D01*
X9835946Y7376312D01*
X9833152Y7379258D01*
X9831019Y7382509D01*
X9830308Y7386320D01*
X9830308Y7396988D01*
X9831171Y7401052D01*
X9833559Y7404455D01*
X9837115Y7406589D01*
X9842906Y7408621D01*
X9851339Y7414107D01*
X9855200Y7414869D01*
X9859111Y7414107D01*
X9867493Y7408621D01*
X9872929Y7406690D01*
X9879279Y7405979D01*
X9958120Y7405979D01*
X9964470Y7406690D01*
X9969906Y7408621D01*
X9978339Y7414107D01*
X9982200Y7414869D01*
X9986111Y7414107D01*
X9994493Y7408621D01*
X9999929Y7406690D01*
X10006279Y7405979D01*
X10085120Y7405979D01*
X10091470Y7406690D01*
X10096906Y7408621D01*
X10105339Y7414107D01*
X10109200Y7414869D01*
X10113111Y7414107D01*
X10121493Y7408621D01*
X10127284Y7406589D01*
X10130840Y7404455D01*
X10133228Y7401052D01*
X10134092Y7396988D01*
X10134092Y7335774D01*
X10133533Y7332370D01*
X10131856Y7329373D01*
X10125557Y7321651D01*
X10120884Y7313218D01*
X10117683Y7304125D01*
X10116058Y7294625D01*
X10116058Y7284974D01*
X10117683Y7275474D01*
X10120884Y7266381D01*
X10125557Y7257948D01*
X10131653Y7250430D01*
X10138867Y7244080D01*
X10147096Y7239000D01*
X10156037Y7235444D01*
X10165486Y7233412D01*
X10175138Y7232954D01*
X10184688Y7234224D01*
X10193883Y7237018D01*
X10202519Y7241387D01*
X10210292Y7247128D01*
X10216946Y7254087D01*
X10222331Y7262063D01*
X10226344Y7270851D01*
X10228732Y7280198D01*
X10229596Y7289800D01*
X10228732Y7299401D01*
X10226344Y7308748D01*
X10222331Y7317536D01*
X10216946Y7325512D01*
X10214152Y7328458D01*
X10212019Y7331709D01*
X10211308Y7335520D01*
X10211308Y7396988D01*
X10212171Y7401052D01*
X10214559Y7404455D01*
X10218115Y7406589D01*
X10223906Y7408621D01*
X10232339Y7414107D01*
X10236200Y7414869D01*
X10240111Y7414107D01*
X10248493Y7408621D01*
X10252862Y7407097D01*
X10256215Y7405166D01*
X10258552Y7402068D01*
X10259618Y7398359D01*
X10259212Y7394549D01*
X10257383Y7391095D01*
X10252557Y7385151D01*
X10247884Y7376718D01*
X10244683Y7367625D01*
X10243058Y7358125D01*
X10243058Y7348474D01*
X10244683Y7338974D01*
X10247884Y7329881D01*
X10252557Y7321448D01*
X10258653Y7313930D01*
X10265867Y7307580D01*
X10274096Y7302500D01*
X10283037Y7298944D01*
X10292486Y7296912D01*
X10302138Y7296454D01*
X10311688Y7297724D01*
X10320883Y7300518D01*
X10329519Y7304887D01*
X10337292Y7310628D01*
X10343946Y7317587D01*
X10349331Y7325563D01*
X10353344Y7334351D01*
X10355732Y7343698D01*
X10356596Y7353300D01*
X10355732Y7362901D01*
X10353344Y7372248D01*
X10349331Y7381036D01*
X10343946Y7389012D01*
X10342575Y7390485D01*
X10340390Y7393889D01*
X10339730Y7397851D01*
X10340695Y7401763D01*
X10343083Y7405014D01*
X10346537Y7407097D01*
X10350906Y7408621D01*
X10359339Y7414107D01*
X10363200Y7414869D01*
X10367111Y7414107D01*
X10375493Y7408621D01*
X10380929Y7406690D01*
X10387279Y7405979D01*
X10400334Y7405979D01*
X10400334Y7470546D01*
X10375798Y7470546D01*
X10371886Y7471308D01*
X10368584Y7473543D01*
X10366400Y7476845D01*
X10365638Y7480706D01*
X10365638Y7563103D01*
X10366400Y7566964D01*
X10368584Y7570266D01*
X10371886Y7572451D01*
X10375798Y7573264D01*
X10400334Y7573264D01*
X10400334Y7596631D01*
X10401147Y7600543D01*
X10403332Y7603794D01*
X10406634Y7606030D01*
X10410494Y7606792D01*
X10442905Y7606792D01*
X10446766Y7606030D01*
X10450068Y7603794D01*
X10452303Y7600543D01*
X10453065Y7596631D01*
X10453065Y7573264D01*
X10466832Y7573264D01*
X10470743Y7572451D01*
X10473994Y7570266D01*
X10476230Y7566964D01*
X10476992Y7563103D01*
X10476992Y7480706D01*
X10476230Y7476845D01*
X10473994Y7473543D01*
X10470743Y7471308D01*
X10466832Y7470546D01*
X10453065Y7470546D01*
X10453065Y7405979D01*
X10466832Y7406030D01*
X10470692Y7405217D01*
X10473994Y7403033D01*
X10476230Y7399731D01*
X10476992Y7395870D01*
X10476992Y6579209D01*
X10477804Y6572707D01*
X10479887Y6567170D01*
X10483443Y6562039D01*
X10486440Y6558991D01*
X10490047Y6556349D01*
X10495584Y6553860D01*
X10503052Y6552692D01*
X10873232Y6552692D01*
X10877143Y6551930D01*
X10880394Y6549694D01*
X10882630Y6546443D01*
X10883392Y6542531D01*
X10883392Y4876393D01*
X10882477Y4872228D01*
X10879988Y4868824D01*
X10876280Y4866741D01*
X10872012Y4866335D01*
X10864392Y4867249D01*
X10725607Y4867249D01*
X10719257Y4866538D01*
X10713821Y4864608D01*
X10708894Y4861509D01*
X10704830Y4857445D01*
X10701731Y4852517D01*
X10699851Y4847132D01*
X10699089Y4839106D01*
X10698022Y4835550D01*
X10695787Y4832553D01*
X10692638Y4830622D01*
X10688980Y4829911D01*
X10671048Y4829911D01*
X10667441Y4830622D01*
X10664291Y4832502D01*
X10662056Y4835448D01*
X10660989Y4838954D01*
X10660176Y4845812D01*
X10658297Y4851247D01*
X10655198Y4856175D01*
X10651134Y4860239D01*
X10646206Y4863338D01*
X10640771Y4865268D01*
X10634421Y4865979D01*
X10549178Y4865979D01*
X10542828Y4865268D01*
X10537393Y4863338D01*
X10532465Y4860239D01*
X10528401Y4856175D01*
X10525302Y4851247D01*
X10523423Y4845812D01*
X10522712Y4839462D01*
X10522712Y4759960D01*
X10523423Y4753660D01*
X10525302Y4748174D01*
X10528401Y4743297D01*
X10532465Y4739182D01*
X10537393Y4736134D01*
X10543438Y4734001D01*
X10546994Y4731867D01*
X10549432Y4728464D01*
X10550245Y4724400D01*
X10549432Y4720336D01*
X10546994Y4716932D01*
X10543438Y4714798D01*
X10537393Y4712665D01*
X10532465Y4709617D01*
X10528401Y4705502D01*
X10525302Y4700625D01*
X10523423Y4695139D01*
X10522712Y4688840D01*
X10522712Y4609338D01*
X10523423Y4602988D01*
X10525302Y4597552D01*
X10528401Y4592624D01*
X10532465Y4588560D01*
X10537393Y4585462D01*
X10542828Y4583531D01*
X10549178Y4582820D01*
X10634421Y4582820D01*
X10640771Y4583531D01*
X10646206Y4585462D01*
X10651134Y4588560D01*
X10655198Y4592624D01*
X10658297Y4597552D01*
X10660176Y4602988D01*
X10660888Y4609338D01*
X10660888Y4688840D01*
X10660176Y4695139D01*
X10658297Y4700625D01*
X10655198Y4705502D01*
X10651134Y4709617D01*
X10646206Y4712665D01*
X10640161Y4714798D01*
X10636605Y4716932D01*
X10634167Y4720336D01*
X10633354Y4724400D01*
X10634167Y4728464D01*
X10636605Y4731867D01*
X10640161Y4734001D01*
X10646206Y4736134D01*
X10651134Y4739182D01*
X10655198Y4743297D01*
X10658144Y4747971D01*
X10660430Y4750511D01*
X10663377Y4752136D01*
X10666730Y4752695D01*
X10688980Y4752695D01*
X10692638Y4752035D01*
X10695787Y4750104D01*
X10698022Y4747107D01*
X10699089Y4743551D01*
X10699851Y4735525D01*
X10701731Y4730140D01*
X10704830Y4725212D01*
X10708894Y4721148D01*
X10713821Y4718050D01*
X10719257Y4716119D01*
X10725607Y4715408D01*
X10864392Y4715408D01*
X10872012Y4716322D01*
X10876280Y4715916D01*
X10879988Y4713833D01*
X10882477Y4710430D01*
X10883392Y4706264D01*
X10883392Y4666335D01*
X10882477Y4662170D01*
X10879988Y4658766D01*
X10876280Y4656683D01*
X10872012Y4656277D01*
X10864392Y4657191D01*
X10836351Y4657191D01*
X10836351Y4612640D01*
X10873232Y4612640D01*
X10877143Y4611827D01*
X10880394Y4609642D01*
X10882630Y4606340D01*
X10883392Y4602480D01*
X10883392Y4560062D01*
X10882630Y4556201D01*
X10880394Y4552899D01*
X10877143Y4550714D01*
X10873232Y4549902D01*
X10836351Y4549902D01*
X10836351Y4505350D01*
X10864392Y4505350D01*
X10872012Y4506264D01*
X10876280Y4505858D01*
X10879988Y4503775D01*
X10882477Y4500372D01*
X10883392Y4496206D01*
X10883392Y4493768D01*
X10882630Y4489856D01*
X10880394Y4486605D01*
X10877143Y4484370D01*
X10873232Y4483608D01*
G37*

%LPC*%
G36*
X10725607Y4505350D02*
G01*
X10753648Y4505350D01*
X10753648Y4549902D01*
X10699140Y4549902D01*
X10699140Y4531817D01*
X10699851Y4525518D01*
X10701731Y4520082D01*
X10704830Y4515154D01*
X10708894Y4511090D01*
X10713821Y4507992D01*
X10719257Y4506061D01*
G37*
G36*
X10699140Y4612640D02*
G01*
X10753648Y4612640D01*
X10753648Y4657191D01*
X10725607Y4657191D01*
X10719257Y4656480D01*
X10713821Y4654550D01*
X10708894Y4651451D01*
X10704830Y4647387D01*
X10701731Y4642459D01*
X10699851Y4637024D01*
X10699140Y4630724D01*
G37*
G36*
X10798251Y5864250D02*
G01*
X10826292Y5864250D01*
X10832642Y5864961D01*
X10838078Y5866892D01*
X10843006Y5869990D01*
X10847070Y5874054D01*
X10850168Y5878982D01*
X10852048Y5884418D01*
X10852810Y5890717D01*
X10852810Y5908802D01*
X10798251Y5908802D01*
G37*
G36*
X10687507Y5864250D02*
G01*
X10715548Y5864250D01*
X10715548Y5908802D01*
X10661040Y5908802D01*
X10661040Y5890717D01*
X10661751Y5884418D01*
X10663631Y5878982D01*
X10666730Y5874054D01*
X10670794Y5869990D01*
X10675721Y5866892D01*
X10681157Y5864961D01*
G37*
G36*
X10523778Y5967120D02*
G01*
X10609021Y5967120D01*
X10615371Y5967831D01*
X10620806Y5969762D01*
X10625734Y5972860D01*
X10629798Y5976924D01*
X10632897Y5981852D01*
X10634776Y5987288D01*
X10635488Y5993638D01*
X10635488Y6073140D01*
X10634776Y6079439D01*
X10632897Y6084925D01*
X10629798Y6089802D01*
X10625734Y6093917D01*
X10620806Y6096965D01*
X10614761Y6099098D01*
X10611205Y6101232D01*
X10608767Y6104636D01*
X10607954Y6108700D01*
X10608767Y6112764D01*
X10611205Y6116167D01*
X10614761Y6118301D01*
X10620806Y6120434D01*
X10625734Y6123482D01*
X10629798Y6127597D01*
X10632897Y6132474D01*
X10635030Y6138621D01*
X10637164Y6142177D01*
X10640568Y6144564D01*
X10644632Y6145428D01*
X10650880Y6145428D01*
X10654741Y6144666D01*
X10658043Y6142431D01*
X10660227Y6139180D01*
X10661040Y6135268D01*
X10661040Y6100775D01*
X10661751Y6094476D01*
X10663631Y6089040D01*
X10666730Y6084112D01*
X10670794Y6080048D01*
X10675721Y6076950D01*
X10681157Y6075019D01*
X10687507Y6074308D01*
X10826292Y6074308D01*
X10832642Y6075019D01*
X10838078Y6076950D01*
X10843006Y6080048D01*
X10847070Y6084112D01*
X10850168Y6089040D01*
X10852048Y6094476D01*
X10852810Y6100775D01*
X10852810Y6199682D01*
X10852048Y6205982D01*
X10850168Y6211417D01*
X10847070Y6216345D01*
X10843006Y6220409D01*
X10838078Y6223508D01*
X10832642Y6225438D01*
X10826292Y6226149D01*
X10687507Y6226149D01*
X10681157Y6225438D01*
X10674858Y6223203D01*
X10671505Y6222644D01*
X10644632Y6222644D01*
X10640568Y6223508D01*
X10637164Y6225895D01*
X10635030Y6229451D01*
X10632897Y6235547D01*
X10629798Y6240475D01*
X10625734Y6244539D01*
X10620806Y6247638D01*
X10615371Y6249568D01*
X10609021Y6250279D01*
X10523778Y6250279D01*
X10517428Y6249568D01*
X10511993Y6247638D01*
X10507065Y6244539D01*
X10503001Y6240475D01*
X10499902Y6235547D01*
X10498023Y6230112D01*
X10497312Y6223762D01*
X10497312Y6144260D01*
X10498023Y6137960D01*
X10499902Y6132474D01*
X10503001Y6127597D01*
X10507065Y6123482D01*
X10511993Y6120434D01*
X10518038Y6118301D01*
X10521594Y6116167D01*
X10524032Y6112764D01*
X10524845Y6108700D01*
X10524032Y6104636D01*
X10521594Y6101232D01*
X10518038Y6099098D01*
X10511993Y6096965D01*
X10507065Y6093917D01*
X10503001Y6089802D01*
X10499902Y6084925D01*
X10498023Y6079439D01*
X10497312Y6073140D01*
X10497312Y5993638D01*
X10498023Y5987288D01*
X10499902Y5981852D01*
X10503001Y5976924D01*
X10507065Y5972860D01*
X10511993Y5969762D01*
X10517428Y5967831D01*
G37*
G36*
X10661040Y5971540D02*
G01*
X10715548Y5971540D01*
X10715548Y6016091D01*
X10687507Y6016091D01*
X10681157Y6015380D01*
X10675721Y6013450D01*
X10670794Y6010351D01*
X10666730Y6006287D01*
X10663631Y6001359D01*
X10661751Y5995924D01*
X10661040Y5989624D01*
G37*
G36*
X10798251Y5971540D02*
G01*
X10852810Y5971540D01*
X10852810Y5989624D01*
X10852048Y5995924D01*
X10850168Y6001359D01*
X10847070Y6006287D01*
X10843006Y6010351D01*
X10838078Y6013450D01*
X10832642Y6015380D01*
X10826292Y6016091D01*
X10798251Y6016091D01*
G37*

%LPD*%
G36*
X7579868Y4470908D02*
G01*
X7575956Y4471670D01*
X7572705Y4473905D01*
X7570470Y4477156D01*
X7569708Y4481068D01*
X7569708Y6209741D01*
X7570622Y6213957D01*
X7573162Y6217361D01*
X7576870Y6219494D01*
X7581138Y6219850D01*
X7585202Y6218428D01*
X7588300Y6215430D01*
X7589875Y6211468D01*
X7590383Y6208674D01*
X7593584Y6199581D01*
X7598257Y6191148D01*
X7604353Y6183630D01*
X7611567Y6177280D01*
X7619796Y6172200D01*
X7628737Y6168644D01*
X7638186Y6166612D01*
X7643672Y6166358D01*
X7647330Y6165494D01*
X7650429Y6163411D01*
X7698587Y6115202D01*
X7704836Y6110071D01*
X7711490Y6106515D01*
X7713878Y6105804D01*
X7717637Y6103721D01*
X7720177Y6100267D01*
X7721092Y6096101D01*
X7721092Y6035243D01*
X7720330Y6031382D01*
X7718094Y6028080D01*
X7714843Y6025896D01*
X7710931Y6025083D01*
X7691272Y6025083D01*
X7684973Y6024372D01*
X7679486Y6022492D01*
X7674609Y6019393D01*
X7670495Y6015329D01*
X7667396Y6010402D01*
X7665516Y6004966D01*
X7664805Y5998616D01*
X7664805Y5799785D01*
X7665516Y5793435D01*
X7667396Y5787999D01*
X7670495Y5783072D01*
X7674609Y5779008D01*
X7679486Y5775909D01*
X7684973Y5774029D01*
X7691272Y5773267D01*
X7710931Y5773267D01*
X7714843Y5772505D01*
X7718094Y5770321D01*
X7720330Y5767019D01*
X7721092Y5763107D01*
X7721092Y5608218D01*
X7720330Y5604306D01*
X7718094Y5601004D01*
X7701229Y5584088D01*
X7698130Y5582005D01*
X7694472Y5581142D01*
X7688986Y5580888D01*
X7679537Y5578856D01*
X7670596Y5575300D01*
X7662367Y5570220D01*
X7655153Y5563870D01*
X7649057Y5556351D01*
X7644384Y5547918D01*
X7641183Y5538825D01*
X7639558Y5529326D01*
X7639558Y5519674D01*
X7641183Y5510174D01*
X7644384Y5501081D01*
X7649514Y5491886D01*
X7650480Y5489498D01*
X7650784Y5485841D01*
X7650480Y5483301D01*
X7649514Y5480913D01*
X7644384Y5471718D01*
X7641183Y5462625D01*
X7639558Y5453126D01*
X7639558Y5443474D01*
X7641183Y5433974D01*
X7644384Y5424881D01*
X7649514Y5415686D01*
X7650480Y5413298D01*
X7650784Y5409641D01*
X7650480Y5407101D01*
X7649514Y5404713D01*
X7644384Y5395518D01*
X7641183Y5386425D01*
X7639558Y5376926D01*
X7639558Y5367274D01*
X7641183Y5357774D01*
X7644384Y5348681D01*
X7649514Y5339486D01*
X7650480Y5337098D01*
X7650784Y5333441D01*
X7650480Y5330901D01*
X7649514Y5328513D01*
X7644384Y5319318D01*
X7641183Y5310225D01*
X7639558Y5300726D01*
X7639558Y5291074D01*
X7641183Y5281574D01*
X7644384Y5272481D01*
X7649514Y5263286D01*
X7650480Y5260898D01*
X7650784Y5257241D01*
X7650480Y5254701D01*
X7649514Y5252313D01*
X7644384Y5243118D01*
X7641183Y5234025D01*
X7639558Y5224526D01*
X7639558Y5214874D01*
X7641183Y5205374D01*
X7644384Y5196281D01*
X7649057Y5187848D01*
X7655153Y5180330D01*
X7662367Y5173980D01*
X7670596Y5168900D01*
X7679537Y5165344D01*
X7688986Y5163312D01*
X7698638Y5162854D01*
X7708188Y5164124D01*
X7717383Y5166918D01*
X7726019Y5171287D01*
X7728203Y5172862D01*
X7731810Y5174589D01*
X7735824Y5174742D01*
X7739583Y5173370D01*
X7746796Y5168900D01*
X7755737Y5165344D01*
X7765186Y5163312D01*
X7774838Y5162854D01*
X7784388Y5164124D01*
X7793583Y5166918D01*
X7795259Y5167782D01*
X7799222Y5168849D01*
X7803286Y5168239D01*
X7806791Y5166106D01*
X7809179Y5162702D01*
X7809992Y5158689D01*
X7809992Y4991709D01*
X7810804Y4985207D01*
X7812887Y4979670D01*
X7816443Y4974539D01*
X7819440Y4971491D01*
X7823047Y4968849D01*
X7828584Y4966360D01*
X7836052Y4965192D01*
X8028431Y4965192D01*
X8032343Y4964430D01*
X8035594Y4962194D01*
X8037830Y4958943D01*
X8038592Y4955032D01*
X8038592Y4481068D01*
X8037830Y4477156D01*
X8035594Y4473905D01*
X8032343Y4471670D01*
X8028431Y4470908D01*
G37*

%LPC*%
G36*
X7737551Y4530750D02*
G01*
X7765592Y4530750D01*
X7771942Y4531461D01*
X7777378Y4533392D01*
X7782306Y4536490D01*
X7786370Y4540554D01*
X7789468Y4545482D01*
X7791348Y4550918D01*
X7792110Y4557217D01*
X7792110Y4575302D01*
X7737551Y4575302D01*
G37*
G36*
X7626807Y4530750D02*
G01*
X7654848Y4530750D01*
X7654848Y4575302D01*
X7600340Y4575302D01*
X7600340Y4557217D01*
X7601051Y4550918D01*
X7602931Y4545482D01*
X7606030Y4540554D01*
X7610094Y4536490D01*
X7615021Y4533392D01*
X7620457Y4531461D01*
G37*
G36*
X7939938Y4629454D02*
G01*
X7949488Y4630724D01*
X7957616Y4633214D01*
X7960614Y4633620D01*
X7980121Y4633620D01*
X7986471Y4634331D01*
X7991906Y4636262D01*
X7996834Y4639360D01*
X8000898Y4643424D01*
X8003997Y4648352D01*
X8005876Y4653788D01*
X8006588Y4660138D01*
X8006588Y4739640D01*
X8005876Y4745939D01*
X8003997Y4751425D01*
X8000898Y4756302D01*
X7996834Y4760417D01*
X7991906Y4763465D01*
X7985861Y4765598D01*
X7982305Y4767732D01*
X7979867Y4771136D01*
X7979054Y4775200D01*
X7979867Y4779264D01*
X7982305Y4782667D01*
X7985861Y4784801D01*
X7991906Y4786934D01*
X7996834Y4789982D01*
X8000898Y4794097D01*
X8003997Y4798974D01*
X8005876Y4804460D01*
X8006588Y4810760D01*
X8006588Y4890262D01*
X8005876Y4896612D01*
X8003997Y4902047D01*
X8000898Y4906975D01*
X7996834Y4911039D01*
X7991906Y4914138D01*
X7986471Y4916068D01*
X7980121Y4916779D01*
X7894878Y4916779D01*
X7888528Y4916068D01*
X7883093Y4914138D01*
X7878165Y4911039D01*
X7874101Y4906975D01*
X7871002Y4902047D01*
X7868869Y4895951D01*
X7866735Y4892395D01*
X7863331Y4890008D01*
X7859268Y4889144D01*
X7781594Y4889144D01*
X7778242Y4889703D01*
X7771942Y4891938D01*
X7765592Y4892649D01*
X7626807Y4892649D01*
X7620457Y4891938D01*
X7615021Y4890008D01*
X7610094Y4886909D01*
X7606030Y4882845D01*
X7602931Y4877917D01*
X7601051Y4872482D01*
X7600340Y4866182D01*
X7600340Y4767275D01*
X7601051Y4760976D01*
X7602931Y4755540D01*
X7606030Y4750612D01*
X7610094Y4746548D01*
X7615021Y4743450D01*
X7620457Y4741519D01*
X7626807Y4740808D01*
X7765592Y4740808D01*
X7771942Y4741519D01*
X7777378Y4743450D01*
X7782306Y4746548D01*
X7786370Y4750612D01*
X7789468Y4755540D01*
X7791348Y4760976D01*
X7792110Y4767275D01*
X7792110Y4801768D01*
X7792872Y4805680D01*
X7795056Y4808931D01*
X7798358Y4811166D01*
X7802270Y4811928D01*
X7859268Y4811928D01*
X7863331Y4811064D01*
X7866735Y4808677D01*
X7868869Y4805121D01*
X7871002Y4798974D01*
X7874101Y4794097D01*
X7878165Y4789982D01*
X7883093Y4786934D01*
X7889138Y4784801D01*
X7892694Y4782667D01*
X7895132Y4779264D01*
X7895945Y4775200D01*
X7895132Y4771136D01*
X7892694Y4767732D01*
X7889138Y4765598D01*
X7883093Y4763465D01*
X7878165Y4760417D01*
X7874101Y4756302D01*
X7871002Y4751425D01*
X7869123Y4745939D01*
X7868412Y4739640D01*
X7868412Y4660138D01*
X7869123Y4653788D01*
X7871002Y4648352D01*
X7874101Y4643424D01*
X7878165Y4639360D01*
X7883093Y4636262D01*
X7888528Y4634331D01*
X7894878Y4633620D01*
X7914589Y4633620D01*
X7918399Y4632909D01*
X7920837Y4631944D01*
X7930286Y4629912D01*
G37*
G36*
X7737551Y4638040D02*
G01*
X7792110Y4638040D01*
X7792110Y4656124D01*
X7791348Y4662424D01*
X7789468Y4667859D01*
X7786370Y4672787D01*
X7782306Y4676851D01*
X7777378Y4679950D01*
X7771942Y4681880D01*
X7765592Y4682591D01*
X7737551Y4682591D01*
G37*
G36*
X7600340Y4638040D02*
G01*
X7654848Y4638040D01*
X7654848Y4682591D01*
X7626807Y4682591D01*
X7620457Y4681880D01*
X7615021Y4679950D01*
X7610094Y4676851D01*
X7606030Y4672787D01*
X7602931Y4667859D01*
X7601051Y4662424D01*
X7600340Y4656124D01*
G37*

%LPD*%
D10*
X10591800Y4799736D02*
G01*
X10600207Y4791329D01*
X10795000Y4791329D01*
X10756900Y6150229D02*
G01*
X10723092Y6184036D01*
X10566400Y6184036D01*
X9537700Y7010400D02*
G01*
X9639300Y7010400D01*
X9652000Y6997700D01*
X9537700Y7137400D02*
G01*
X9619615Y7137400D01*
X9632315Y7124700D01*
X7696200Y4816729D02*
G01*
X7730007Y4850536D01*
X7937500Y4850536D01*
X7696200Y5283200D02*
G01*
X7696200Y5524500D01*
X7696200Y5524500D02*
G01*
X7759700Y5588000D01*
X7759700Y5899200D01*
X7759700Y5899200D02*
G01*
X7759700Y6197600D01*
X8051800Y6489700D01*
X8763000Y6489700D01*
X8902700Y6350000D01*
X8535593Y6668312D02*
G01*
X8535593Y6489700D01*
X8144964Y6489700D02*
G01*
X8140700Y6493964D01*
X8140700Y6609842D01*
X8140700Y6609842D02*
G01*
X8356600Y6825742D01*
X8356600Y6844436D01*
X8356600Y6844537D02*
G01*
X8509254Y6844537D01*
X8509355Y6794500D02*
G01*
X8509355Y6744487D01*
X8509355Y6744487D02*
G01*
X8458631Y6693763D01*
X8356600Y6693763D01*
X8356600Y6693763D02*
G01*
X8356600Y6578600D01*
X7759700Y6699199D02*
G01*
X7759700Y6858000D01*
X8140700Y6731000D02*
G01*
X8140700Y6928358D01*
X8711844Y6794500D02*
G01*
X8775700Y6794500D01*
X8813800Y6756400D01*
X8878163Y6756400D01*
X8711839Y6844487D02*
G01*
X8813800Y6844487D01*
X8878163Y6908850D01*
X8878163Y6921500D01*
X9028836Y6921500D02*
G01*
X9028836Y6756405D01*
X9028831Y6756400D01*
X9028836Y6756400D02*
G01*
X9028836Y6476136D01*
X8902700Y6350000D01*
X9131300Y6603136D02*
G01*
X9362539Y6371897D01*
X9410700Y6371897D01*
X9410700Y6371894D02*
G01*
X9410700Y6426200D01*
X9321800Y6515100D01*
X9410700Y7521905D02*
G01*
X9410700Y7353300D01*
X9537700Y7264400D02*
G01*
X9563100Y7239000D01*
X9626600Y7239000D01*
X10299700Y7353300D02*
G01*
X10299700Y7521905D01*
X10172700Y7289800D02*
G01*
X10172700Y7521905D01*
X9791700Y7521905D02*
G01*
X9791700Y7340600D01*
X9664700Y7521905D02*
G01*
X9664700Y7378700D01*
X9537700Y7521905D02*
G01*
X9537700Y7378700D01*
X9525000Y6527800D02*
G01*
X9537700Y6540500D01*
X9537700Y6629400D01*
X9537700Y6756400D02*
G01*
X9512300Y6781800D01*
X9398000Y6781800D01*
X9537700Y6883400D02*
G01*
X9398000Y6883400D01*
X10426700Y6371897D02*
G01*
X10426700Y6502400D01*
X10388600Y6540500D01*
X10160000Y6540500D01*
X8509360Y6794500D02*
G01*
X8610600Y6794500D01*
X9664700Y6371894D02*
G01*
X9664700Y6883400D01*
X9791700Y6371894D02*
G01*
X9791700Y6629400D01*
X9918700Y6371894D02*
G01*
X9918700Y6629400D01*
X10045700Y6371894D02*
G01*
X10045700Y6642100D01*
X7759700Y6142151D02*
G01*
X7726248Y6142151D01*
X7645400Y6223000D01*
X9028836Y6476136D02*
G01*
X9052509Y6452463D01*
X9131300Y6452463D01*
X9131300Y6452463D02*
G01*
X9131300Y6413500D01*
X9296400Y6248400D01*
X9525000Y6248400D01*
X9537700Y6261100D01*
X9537700Y6371894D01*
X7696200Y4606670D02*
G01*
X7594600Y4708270D01*
X7594600Y4787900D01*
X7594600Y5905500D01*
X7594600Y5969000D01*
X7670800Y6045200D01*
D11*
G01*
X8140700Y6928350D03*
D12*
G01*
X8140700Y6609842D03*
D13*
G01*
X7696200Y4606670D03*
G01*
X7696200Y4816729D03*
G01*
X10795000Y4581270D03*
G01*
X10795000Y4791329D03*
G01*
X10756900Y5940170D03*
G01*
X10756900Y6150229D03*
D14*
G01*
X10566400Y6184024D03*
D15*
G01*
X10566400Y6033363D03*
D14*
G01*
X10591800Y4799724D03*
D15*
G01*
X10591800Y4649063D03*
D16*
G01*
X9028824Y6756400D03*
G01*
X8878175Y6756400D03*
G01*
X9028824Y6921500D03*
G01*
X8878175Y6921500D03*
D14*
G01*
X9131300Y6603124D03*
D15*
G01*
X9131300Y6452463D03*
D14*
G01*
X8356600Y6844424D03*
D15*
G01*
X8356600Y6693763D03*
D17*
G01*
X7759700Y6699199D03*
G01*
X7759700Y5899200D03*
D18*
G01*
X10426700Y7521905D03*
G01*
X10299700Y7521905D03*
G01*
X10172700Y7521905D03*
G01*
X10045700Y7521905D03*
G01*
X9918700Y7521905D03*
G01*
X9791700Y7521905D03*
G01*
X9664700Y7521905D03*
G01*
X9537700Y7521905D03*
G01*
X9410700Y7521905D03*
D19*
G01*
X9537700Y7264400D03*
G01*
X9537700Y7137400D03*
G01*
X9537700Y7010400D03*
G01*
X9537700Y6883400D03*
G01*
X9537700Y6756400D03*
G01*
X9537700Y6629400D03*
D18*
G01*
X9410700Y6371894D03*
G01*
X9537700Y6371894D03*
G01*
X9664700Y6371894D03*
G01*
X9791700Y6371894D03*
G01*
X9918700Y6371894D03*
G01*
X10045700Y6371894D03*
G01*
X10172700Y6371894D03*
G01*
X10299700Y6371894D03*
G01*
X10426700Y6371894D03*
D20*
G01*
X8685606Y6920712D03*
G01*
X8635593Y6920712D03*
G01*
X8585606Y6920712D03*
G01*
X8535593Y6920712D03*
D21*
G01*
X8509355Y6844487D03*
G01*
X8509355Y6794500D03*
G01*
X8509355Y6744487D03*
D20*
G01*
X8535593Y6668312D03*
G01*
X8585606Y6668312D03*
G01*
X8635593Y6668312D03*
G01*
X8685606Y6668312D03*
D21*
G01*
X8711844Y6744487D03*
G01*
X8711844Y6794500D03*
G01*
X8711844Y6844487D03*
D14*
G01*
X7937500Y4850524D03*
D15*
G01*
X7937500Y4699863D03*
D22*
G01*
X8894699Y7200900D03*
G01*
X8694699Y7200900D03*
G01*
X8494699Y7200900D03*
G01*
X8294700Y7200900D03*
G01*
X8094700Y7200900D03*
G01*
X7894700Y7200900D03*
D23*
G01*
X10795000Y4581270D03*
G01*
X10769600Y5930900D03*
G01*
X10566400Y6033363D03*
G01*
X9652000Y6997700D03*
G01*
X10591800Y4649063D03*
G01*
X9632315Y7124700D03*
G01*
X7696200Y4606670D03*
G01*
X7696200Y5524500D03*
G01*
X7696200Y5295900D03*
G01*
X8140700Y6731000D03*
G01*
X8356600Y6578600D03*
G01*
X7759700Y6844537D03*
G01*
X8877300Y6921500D03*
G01*
X8878163Y6756400D03*
G01*
X9144000Y6769100D03*
G01*
X9321800Y6515100D03*
G01*
X9410700Y7353300D03*
G01*
X7937500Y4686300D03*
G01*
X9626600Y7239000D03*
G01*
X10172700Y7289800D03*
G01*
X10299700Y7353300D03*
G01*
X9791700Y7340600D03*
G01*
X9664700Y7378700D03*
G01*
X9537700Y7378700D03*
G01*
X9525000Y6527800D03*
G01*
X9398000Y6781800D03*
G01*
X9398000Y6883400D03*
G01*
X8445500Y6565900D03*
G01*
X8420100Y6946900D03*
G01*
X10299700Y6299200D03*
G01*
X10160000Y6540500D03*
G01*
X8610600Y6794500D03*
G01*
X9664700Y6883400D03*
G01*
X9791700Y6629400D03*
G01*
X10045700Y6642100D03*
G01*
X9918700Y6629400D03*
G01*
X9918700Y7521905D03*
G01*
X10045700Y7521905D03*
G01*
X7645400Y6223000D03*
G01*
X7645400Y6426200D03*
G01*
X8902700Y6350000D03*
G01*
X7670800Y6045200D03*
G01*
X7696200Y5448300D03*
G01*
X7696200Y5372100D03*
G01*
X7772400Y5524500D03*
G01*
X7772400Y5448300D03*
G01*
X7772400Y5372100D03*
G01*
X7772400Y5295900D03*
G01*
X7696200Y5219700D03*
G01*
X7772400Y5219700D03*
G01*
X7962900Y5905500D03*
G01*
X8775700Y6591300D03*
G01*
X10795000Y5524500D03*
G01*
X10795000Y5448300D03*
G01*
X10795000Y5372100D03*
G01*
X10795000Y5295900D03*
G01*
X10795000Y5219700D03*
G01*
X8394700Y6350000D03*
G01*
X8648700Y6350000D03*
G01*
X10210800Y6896100D03*
G01*
X9982200Y7340600D03*
M02*
