G04 Layer: BottomSilkscreenLayer*
G04 EasyEDA v6.5.40, 2024-06-15 16:39:10*
G04 e63031535b224d068feaf967c7116de5,10*
G04 Gerber Generator version 0.2*
G04 Scale: 100 percent, Rotated: No, Reflected: No *
G04 Dimensions in millimeters *
G04 leading zeros omitted , absolute positions ,4 integer and 5 decimal *
%FSLAX45Y45*%
%MOMM*%

%ADD10C,0.1030*%
%ADD11C,0.1524*%
%ADD12C,0.2540*%
%ADD13C,0.1520*%
%ADD14C,0.1520*%
%ADD15C,0.0188*%

%LPD*%
D10*
X8672471Y6527937D02*
G01*
X8681562Y6518846D01*
X8686109Y6505209D01*
X8686109Y6487027D01*
X8681562Y6473390D01*
X8672471Y6464300D01*
X8663381Y6464300D01*
X8654290Y6468846D01*
X8649746Y6473390D01*
X8645199Y6482481D01*
X8636109Y6509753D01*
X8631562Y6518846D01*
X8627018Y6523390D01*
X8617927Y6527937D01*
X8604290Y6527937D01*
X8595199Y6518846D01*
X8590653Y6505209D01*
X8590653Y6487027D01*
X8595199Y6473390D01*
X8604290Y6464300D01*
X8686109Y6557937D02*
G01*
X8590653Y6580662D01*
X8686109Y6603390D02*
G01*
X8590653Y6580662D01*
X8686109Y6603390D02*
G01*
X8590653Y6626118D01*
X8686109Y6648846D02*
G01*
X8590653Y6626118D01*
X8686109Y6678846D02*
G01*
X8590653Y6678846D01*
X8590653Y6678846D02*
G01*
X8590653Y6733390D01*
X8663381Y6831571D02*
G01*
X8672471Y6827027D01*
X8681562Y6817936D01*
X8686109Y6808845D01*
X8686109Y6790662D01*
X8681562Y6781571D01*
X8672471Y6772480D01*
X8663381Y6767936D01*
X8649746Y6763390D01*
X8627018Y6763390D01*
X8613381Y6767936D01*
X8604290Y6772480D01*
X8595199Y6781571D01*
X8590653Y6790662D01*
X8590653Y6808845D01*
X8595199Y6817936D01*
X8604290Y6827027D01*
X8613381Y6831571D01*
X8686109Y6861571D02*
G01*
X8590653Y6861571D01*
X8686109Y6925208D02*
G01*
X8622471Y6861571D01*
X8645199Y6884299D02*
G01*
X8590653Y6925208D01*
X8418471Y6527937D02*
G01*
X8427562Y6518846D01*
X8432109Y6505209D01*
X8432109Y6487027D01*
X8427562Y6473390D01*
X8418471Y6464300D01*
X8409381Y6464300D01*
X8400290Y6468846D01*
X8395746Y6473390D01*
X8391199Y6482481D01*
X8382109Y6509753D01*
X8377562Y6518846D01*
X8373018Y6523390D01*
X8363927Y6527937D01*
X8350290Y6527937D01*
X8341199Y6518846D01*
X8336653Y6505209D01*
X8336653Y6487027D01*
X8341199Y6473390D01*
X8350290Y6464300D01*
X8432109Y6557937D02*
G01*
X8336653Y6580662D01*
X8432109Y6603390D02*
G01*
X8336653Y6580662D01*
X8432109Y6603390D02*
G01*
X8336653Y6626118D01*
X8432109Y6648846D02*
G01*
X8336653Y6626118D01*
X8432109Y6678846D02*
G01*
X8336653Y6678846D01*
X8432109Y6678846D02*
G01*
X8432109Y6710662D01*
X8427562Y6724299D01*
X8418471Y6733390D01*
X8409381Y6737936D01*
X8395746Y6742480D01*
X8373018Y6742480D01*
X8359381Y6737936D01*
X8350290Y6733390D01*
X8341199Y6724299D01*
X8336653Y6710662D01*
X8336653Y6678846D01*
X8432109Y6772480D02*
G01*
X8336653Y6772480D01*
X8432109Y6829752D02*
G01*
X8427562Y6820662D01*
X8418471Y6811571D01*
X8409381Y6807027D01*
X8395746Y6802480D01*
X8373018Y6802480D01*
X8359381Y6807027D01*
X8350290Y6811571D01*
X8341199Y6820662D01*
X8336653Y6829752D01*
X8336653Y6847936D01*
X8341199Y6857027D01*
X8350290Y6866117D01*
X8359381Y6870661D01*
X8373018Y6875208D01*
X8395746Y6875208D01*
X8409381Y6870661D01*
X8418471Y6866117D01*
X8427562Y6857027D01*
X8432109Y6847936D01*
X8432109Y6829752D01*
X8168081Y6532481D02*
G01*
X8177171Y6527937D01*
X8186262Y6518846D01*
X8190809Y6509753D01*
X8190809Y6491571D01*
X8186262Y6482481D01*
X8177171Y6473390D01*
X8168081Y6468846D01*
X8154446Y6464300D01*
X8131718Y6464300D01*
X8118081Y6468846D01*
X8108990Y6473390D01*
X8099899Y6482481D01*
X8095353Y6491571D01*
X8095353Y6509753D01*
X8099899Y6518846D01*
X8108990Y6527937D01*
X8118081Y6532481D01*
X8131718Y6532481D01*
X8131718Y6509753D02*
G01*
X8131718Y6532481D01*
X8190809Y6562481D02*
G01*
X8095353Y6562481D01*
X8190809Y6562481D02*
G01*
X8095353Y6626118D01*
X8190809Y6626118D02*
G01*
X8095353Y6626118D01*
X8190809Y6656118D02*
G01*
X8095353Y6656118D01*
X8190809Y6656118D02*
G01*
X8190809Y6687936D01*
X8186262Y6701571D01*
X8177171Y6710662D01*
X8168081Y6715208D01*
X8154446Y6719752D01*
X8131718Y6719752D01*
X8118081Y6715208D01*
X8108990Y6710662D01*
X8099899Y6701571D01*
X8095353Y6687936D01*
X8095353Y6656118D01*
X8026400Y6082609D02*
G01*
X7990037Y5987153D01*
X7953672Y6082609D02*
G01*
X7990037Y5987153D01*
X7855491Y6059881D02*
G01*
X7860037Y6068971D01*
X7869128Y6078062D01*
X7878218Y6082609D01*
X7896400Y6082609D01*
X7905490Y6078062D01*
X7914581Y6068971D01*
X7919128Y6059881D01*
X7923672Y6046246D01*
X7923672Y6023518D01*
X7919128Y6009881D01*
X7914581Y6000790D01*
X7905490Y5991699D01*
X7896400Y5987153D01*
X7878218Y5987153D01*
X7869128Y5991699D01*
X7860037Y6000790D01*
X7855491Y6009881D01*
X7757309Y6059881D02*
G01*
X7761853Y6068971D01*
X7770947Y6078062D01*
X7780037Y6082609D01*
X7798219Y6082609D01*
X7807309Y6078062D01*
X7816400Y6068971D01*
X7820947Y6059881D01*
X7825491Y6046246D01*
X7825491Y6023518D01*
X7820947Y6009881D01*
X7816400Y6000790D01*
X7807309Y5991699D01*
X7798219Y5987153D01*
X7780037Y5987153D01*
X7770947Y5991699D01*
X7761853Y6000790D01*
X7757309Y6009881D01*
X7945518Y6250381D02*
G01*
X7950062Y6259471D01*
X7959153Y6268562D01*
X7968246Y6273109D01*
X7986428Y6273109D01*
X7995518Y6268562D01*
X8004609Y6259471D01*
X8009153Y6250381D01*
X8013700Y6236746D01*
X8013700Y6214018D01*
X8009153Y6200381D01*
X8004609Y6191290D01*
X7995518Y6182199D01*
X7986428Y6177653D01*
X7968246Y6177653D01*
X7959153Y6182199D01*
X7950062Y6191290D01*
X7945518Y6200381D01*
X7945518Y6214018D01*
X7968246Y6214018D02*
G01*
X7945518Y6214018D01*
X7915518Y6273109D02*
G01*
X7915518Y6177653D01*
X7915518Y6273109D02*
G01*
X7851881Y6177653D01*
X7851881Y6273109D02*
G01*
X7851881Y6177653D01*
X7821881Y6273109D02*
G01*
X7821881Y6177653D01*
X7821881Y6273109D02*
G01*
X7790063Y6273109D01*
X7776428Y6268562D01*
X7767337Y6259471D01*
X7762791Y6250381D01*
X7758247Y6236746D01*
X7758247Y6214018D01*
X7762791Y6200381D01*
X7767337Y6191290D01*
X7776428Y6182199D01*
X7790063Y6177653D01*
X7821881Y6177653D01*
X7937362Y6449971D02*
G01*
X7946453Y6459062D01*
X7960090Y6463609D01*
X7978272Y6463609D01*
X7991909Y6459062D01*
X8001000Y6449971D01*
X8001000Y6440881D01*
X7996453Y6431790D01*
X7991909Y6427246D01*
X7982818Y6422699D01*
X7955546Y6413609D01*
X7946453Y6409062D01*
X7941909Y6404518D01*
X7937362Y6395427D01*
X7937362Y6381790D01*
X7946453Y6372699D01*
X7960090Y6368153D01*
X7978272Y6368153D01*
X7991909Y6372699D01*
X8001000Y6381790D01*
X7907362Y6463609D02*
G01*
X7907362Y6368153D01*
X7907362Y6368153D02*
G01*
X7852818Y6368153D01*
X7754637Y6440881D02*
G01*
X7759181Y6449971D01*
X7768272Y6459062D01*
X7777363Y6463609D01*
X7795547Y6463609D01*
X7804637Y6459062D01*
X7813728Y6449971D01*
X7818272Y6440881D01*
X7822818Y6427246D01*
X7822818Y6404518D01*
X7818272Y6390881D01*
X7813728Y6381790D01*
X7804637Y6372699D01*
X7795547Y6368153D01*
X7777363Y6368153D01*
X7768272Y6372699D01*
X7759181Y6381790D01*
X7754637Y6390881D01*
X7937362Y6665871D02*
G01*
X7946453Y6674962D01*
X7960090Y6679509D01*
X7978272Y6679509D01*
X7991909Y6674962D01*
X8001000Y6665871D01*
X8001000Y6656781D01*
X7996453Y6647690D01*
X7991909Y6643146D01*
X7982818Y6638599D01*
X7955546Y6629509D01*
X7946453Y6624962D01*
X7941909Y6620418D01*
X7937362Y6611327D01*
X7937362Y6597690D01*
X7946453Y6588599D01*
X7960090Y6584053D01*
X7978272Y6584053D01*
X7991909Y6588599D01*
X8001000Y6597690D01*
X7907362Y6679509D02*
G01*
X7907362Y6584053D01*
X7907362Y6679509D02*
G01*
X7875546Y6679509D01*
X7861909Y6674962D01*
X7852818Y6665871D01*
X7848272Y6656781D01*
X7843728Y6643146D01*
X7843728Y6620418D01*
X7848272Y6606781D01*
X7852818Y6597690D01*
X7861909Y6588599D01*
X7875546Y6584053D01*
X7907362Y6584053D01*
X7777363Y6679509D02*
G01*
X7813728Y6584053D01*
X7777363Y6679509D02*
G01*
X7741000Y6584053D01*
X7800091Y6615871D02*
G01*
X7754637Y6615871D01*
X8951412Y6477000D02*
G01*
X8855956Y6513362D01*
X8951412Y6549727D02*
G01*
X8855956Y6513362D01*
X8928684Y6647908D02*
G01*
X8937774Y6643362D01*
X8946865Y6634271D01*
X8951412Y6625181D01*
X8951412Y6606999D01*
X8946865Y6597909D01*
X8937774Y6588818D01*
X8928684Y6584271D01*
X8915049Y6579727D01*
X8892321Y6579727D01*
X8878684Y6584271D01*
X8869593Y6588818D01*
X8860502Y6597909D01*
X8855956Y6606999D01*
X8855956Y6625181D01*
X8860502Y6634271D01*
X8869593Y6643362D01*
X8878684Y6647908D01*
X8928684Y6746090D02*
G01*
X8937774Y6741546D01*
X8946865Y6732452D01*
X8951412Y6723362D01*
X8951412Y6705180D01*
X8946865Y6696090D01*
X8937774Y6686999D01*
X8928684Y6682452D01*
X8915049Y6677908D01*
X8892321Y6677908D01*
X8878684Y6682452D01*
X8869593Y6686999D01*
X8860502Y6696090D01*
X8855956Y6705180D01*
X8855956Y6723362D01*
X8860502Y6732452D01*
X8869593Y6741546D01*
X8878684Y6746090D01*
X9864153Y6355590D02*
G01*
X9864153Y6282862D01*
X9868700Y6269228D01*
X9873246Y6264681D01*
X9882337Y6260137D01*
X9895972Y6260137D01*
X9905062Y6264681D01*
X9864153Y6341953D02*
G01*
X9873246Y6351046D01*
X9882337Y6355590D01*
X9895972Y6355590D01*
X9905062Y6351046D01*
X9914153Y6341953D01*
X9918700Y6328318D01*
X9918700Y6319227D01*
X9914153Y6305590D01*
X9905062Y6296499D01*
X9895972Y6291953D01*
X9882337Y6291953D01*
X9873246Y6296499D01*
X9864153Y6305590D01*
X9834153Y6355590D02*
G01*
X9834153Y6260137D01*
X9834153Y6341953D02*
G01*
X9825062Y6351046D01*
X9815972Y6355590D01*
X9802337Y6355590D01*
X9793246Y6351046D01*
X9784153Y6341953D01*
X9779609Y6328318D01*
X9779609Y6319227D01*
X9784153Y6305590D01*
X9793246Y6296499D01*
X9802337Y6291953D01*
X9815972Y6291953D01*
X9825062Y6296499D01*
X9834153Y6305590D01*
X9749609Y6387409D02*
G01*
X9745063Y6382862D01*
X9740518Y6387409D01*
X9745063Y6391953D01*
X9749609Y6387409D01*
X9745063Y6355590D02*
G01*
X9745063Y6291953D01*
X9687791Y6355590D02*
G01*
X9696881Y6351046D01*
X9705972Y6341953D01*
X9710519Y6328318D01*
X9710519Y6319227D01*
X9705972Y6305590D01*
X9696881Y6296499D01*
X9687791Y6291953D01*
X9674153Y6291953D01*
X9665063Y6296499D01*
X9655972Y6305590D01*
X9651428Y6319227D01*
X9651428Y6328318D01*
X9655972Y6341953D01*
X9665063Y6351046D01*
X9674153Y6355590D01*
X9687791Y6355590D01*
X9546882Y6364681D02*
G01*
X9546882Y6369227D01*
X9542338Y6378318D01*
X9537791Y6382862D01*
X9528700Y6387409D01*
X9510519Y6387409D01*
X9501428Y6382862D01*
X9496882Y6378318D01*
X9492338Y6369227D01*
X9492338Y6360137D01*
X9496882Y6351046D01*
X9505972Y6337409D01*
X9551428Y6291953D01*
X9487791Y6291953D01*
X9430519Y6387409D02*
G01*
X9444154Y6382862D01*
X9453247Y6369227D01*
X9457791Y6346499D01*
X9457791Y6332862D01*
X9453247Y6310137D01*
X9444154Y6296499D01*
X9430519Y6291953D01*
X9421428Y6291953D01*
X9407791Y6296499D01*
X9398701Y6310137D01*
X9394154Y6332862D01*
X9394154Y6346499D01*
X9398701Y6369227D01*
X9407791Y6382862D01*
X9421428Y6387409D01*
X9430519Y6387409D01*
X9864153Y6495290D02*
G01*
X9864153Y6422562D01*
X9868700Y6408928D01*
X9873246Y6404381D01*
X9882337Y6399837D01*
X9895972Y6399837D01*
X9905062Y6404381D01*
X9864153Y6481653D02*
G01*
X9873246Y6490746D01*
X9882337Y6495290D01*
X9895972Y6495290D01*
X9905062Y6490746D01*
X9914153Y6481653D01*
X9918700Y6468018D01*
X9918700Y6458927D01*
X9914153Y6445290D01*
X9905062Y6436199D01*
X9895972Y6431653D01*
X9882337Y6431653D01*
X9873246Y6436199D01*
X9864153Y6445290D01*
X9834153Y6495290D02*
G01*
X9834153Y6399837D01*
X9834153Y6481653D02*
G01*
X9825062Y6490746D01*
X9815972Y6495290D01*
X9802337Y6495290D01*
X9793246Y6490746D01*
X9784153Y6481653D01*
X9779609Y6468018D01*
X9779609Y6458927D01*
X9784153Y6445290D01*
X9793246Y6436199D01*
X9802337Y6431653D01*
X9815972Y6431653D01*
X9825062Y6436199D01*
X9834153Y6445290D01*
X9749609Y6527109D02*
G01*
X9745063Y6522562D01*
X9740518Y6527109D01*
X9745063Y6531653D01*
X9749609Y6527109D01*
X9745063Y6495290D02*
G01*
X9745063Y6431653D01*
X9687791Y6495290D02*
G01*
X9696881Y6490746D01*
X9705972Y6481653D01*
X9710519Y6468018D01*
X9710519Y6458927D01*
X9705972Y6445290D01*
X9696881Y6436199D01*
X9687791Y6431653D01*
X9674153Y6431653D01*
X9665063Y6436199D01*
X9655972Y6445290D01*
X9651428Y6458927D01*
X9651428Y6468018D01*
X9655972Y6481653D01*
X9665063Y6490746D01*
X9674153Y6495290D01*
X9687791Y6495290D01*
X9551428Y6508927D02*
G01*
X9542338Y6513471D01*
X9528700Y6527109D01*
X9528700Y6431653D01*
X9439610Y6495290D02*
G01*
X9444154Y6481653D01*
X9453247Y6472562D01*
X9466882Y6468018D01*
X9471428Y6468018D01*
X9485063Y6472562D01*
X9494154Y6481653D01*
X9498700Y6495290D01*
X9498700Y6499837D01*
X9494154Y6513471D01*
X9485063Y6522562D01*
X9471428Y6527109D01*
X9466882Y6527109D01*
X9453247Y6522562D01*
X9444154Y6513471D01*
X9439610Y6495290D01*
X9439610Y6472562D01*
X9444154Y6449837D01*
X9453247Y6436199D01*
X9466882Y6431653D01*
X9475972Y6431653D01*
X9489610Y6436199D01*
X9494154Y6445290D01*
X9864153Y6622290D02*
G01*
X9864153Y6549562D01*
X9868700Y6535928D01*
X9873246Y6531381D01*
X9882337Y6526837D01*
X9895972Y6526837D01*
X9905062Y6531381D01*
X9864153Y6608653D02*
G01*
X9873246Y6617746D01*
X9882337Y6622290D01*
X9895972Y6622290D01*
X9905062Y6617746D01*
X9914153Y6608653D01*
X9918700Y6595018D01*
X9918700Y6585927D01*
X9914153Y6572290D01*
X9905062Y6563199D01*
X9895972Y6558653D01*
X9882337Y6558653D01*
X9873246Y6563199D01*
X9864153Y6572290D01*
X9834153Y6622290D02*
G01*
X9834153Y6526837D01*
X9834153Y6608653D02*
G01*
X9825062Y6617746D01*
X9815972Y6622290D01*
X9802337Y6622290D01*
X9793246Y6617746D01*
X9784153Y6608653D01*
X9779609Y6595018D01*
X9779609Y6585927D01*
X9784153Y6572290D01*
X9793246Y6563199D01*
X9802337Y6558653D01*
X9815972Y6558653D01*
X9825062Y6563199D01*
X9834153Y6572290D01*
X9749609Y6654109D02*
G01*
X9745063Y6649562D01*
X9740518Y6654109D01*
X9745063Y6658653D01*
X9749609Y6654109D01*
X9745063Y6622290D02*
G01*
X9745063Y6558653D01*
X9687791Y6622290D02*
G01*
X9696881Y6617746D01*
X9705972Y6608653D01*
X9710519Y6595018D01*
X9710519Y6585927D01*
X9705972Y6572290D01*
X9696881Y6563199D01*
X9687791Y6558653D01*
X9674153Y6558653D01*
X9665063Y6563199D01*
X9655972Y6572290D01*
X9651428Y6585927D01*
X9651428Y6595018D01*
X9655972Y6608653D01*
X9665063Y6617746D01*
X9674153Y6622290D01*
X9687791Y6622290D01*
X9551428Y6635927D02*
G01*
X9542338Y6640471D01*
X9528700Y6654109D01*
X9528700Y6558653D01*
X9475972Y6654109D02*
G01*
X9489610Y6649562D01*
X9494154Y6640471D01*
X9494154Y6631381D01*
X9489610Y6622290D01*
X9480519Y6617746D01*
X9462338Y6613199D01*
X9448700Y6608653D01*
X9439610Y6599562D01*
X9435063Y6590471D01*
X9435063Y6576837D01*
X9439610Y6567746D01*
X9444154Y6563199D01*
X9457791Y6558653D01*
X9475972Y6558653D01*
X9489610Y6563199D01*
X9494154Y6567746D01*
X9498700Y6576837D01*
X9498700Y6590471D01*
X9494154Y6599562D01*
X9485063Y6608653D01*
X9471428Y6613199D01*
X9453247Y6617746D01*
X9444154Y6622290D01*
X9439610Y6631381D01*
X9439610Y6640471D01*
X9444154Y6649562D01*
X9457791Y6654109D01*
X9475972Y6654109D01*
X9864153Y6749290D02*
G01*
X9864153Y6676562D01*
X9868700Y6662928D01*
X9873246Y6658381D01*
X9882337Y6653837D01*
X9895972Y6653837D01*
X9905062Y6658381D01*
X9864153Y6735653D02*
G01*
X9873246Y6744746D01*
X9882337Y6749290D01*
X9895972Y6749290D01*
X9905062Y6744746D01*
X9914153Y6735653D01*
X9918700Y6722018D01*
X9918700Y6712927D01*
X9914153Y6699290D01*
X9905062Y6690199D01*
X9895972Y6685653D01*
X9882337Y6685653D01*
X9873246Y6690199D01*
X9864153Y6699290D01*
X9834153Y6749290D02*
G01*
X9834153Y6653837D01*
X9834153Y6735653D02*
G01*
X9825062Y6744746D01*
X9815972Y6749290D01*
X9802337Y6749290D01*
X9793246Y6744746D01*
X9784153Y6735653D01*
X9779609Y6722018D01*
X9779609Y6712927D01*
X9784153Y6699290D01*
X9793246Y6690199D01*
X9802337Y6685653D01*
X9815972Y6685653D01*
X9825062Y6690199D01*
X9834153Y6699290D01*
X9749609Y6781109D02*
G01*
X9745063Y6776562D01*
X9740518Y6781109D01*
X9745063Y6785653D01*
X9749609Y6781109D01*
X9745063Y6749290D02*
G01*
X9745063Y6685653D01*
X9687791Y6749290D02*
G01*
X9696881Y6744746D01*
X9705972Y6735653D01*
X9710519Y6722018D01*
X9710519Y6712927D01*
X9705972Y6699290D01*
X9696881Y6690199D01*
X9687791Y6685653D01*
X9674153Y6685653D01*
X9665063Y6690199D01*
X9655972Y6699290D01*
X9651428Y6712927D01*
X9651428Y6722018D01*
X9655972Y6735653D01*
X9665063Y6744746D01*
X9674153Y6749290D01*
X9687791Y6749290D01*
X9551428Y6762927D02*
G01*
X9542338Y6767471D01*
X9528700Y6781109D01*
X9528700Y6685653D01*
X9453247Y6781109D02*
G01*
X9498700Y6717471D01*
X9430519Y6717471D01*
X9453247Y6781109D02*
G01*
X9453247Y6685653D01*
X9876853Y6876290D02*
G01*
X9876853Y6803562D01*
X9881400Y6789928D01*
X9885946Y6785381D01*
X9895037Y6780837D01*
X9908672Y6780837D01*
X9917762Y6785381D01*
X9876853Y6862653D02*
G01*
X9885946Y6871746D01*
X9895037Y6876290D01*
X9908672Y6876290D01*
X9917762Y6871746D01*
X9926853Y6862653D01*
X9931400Y6849018D01*
X9931400Y6839927D01*
X9926853Y6826290D01*
X9917762Y6817199D01*
X9908672Y6812653D01*
X9895037Y6812653D01*
X9885946Y6817199D01*
X9876853Y6826290D01*
X9846853Y6876290D02*
G01*
X9846853Y6780837D01*
X9846853Y6862653D02*
G01*
X9837762Y6871746D01*
X9828672Y6876290D01*
X9815037Y6876290D01*
X9805946Y6871746D01*
X9796853Y6862653D01*
X9792309Y6849018D01*
X9792309Y6839927D01*
X9796853Y6826290D01*
X9805946Y6817199D01*
X9815037Y6812653D01*
X9828672Y6812653D01*
X9837762Y6817199D01*
X9846853Y6826290D01*
X9762309Y6908109D02*
G01*
X9757763Y6903562D01*
X9753218Y6908109D01*
X9757763Y6912653D01*
X9762309Y6908109D01*
X9757763Y6876290D02*
G01*
X9757763Y6812653D01*
X9700491Y6876290D02*
G01*
X9709581Y6871746D01*
X9718672Y6862653D01*
X9723219Y6849018D01*
X9723219Y6839927D01*
X9718672Y6826290D01*
X9709581Y6817199D01*
X9700491Y6812653D01*
X9686853Y6812653D01*
X9677763Y6817199D01*
X9668672Y6826290D01*
X9664128Y6839927D01*
X9664128Y6849018D01*
X9668672Y6862653D01*
X9677763Y6871746D01*
X9686853Y6876290D01*
X9700491Y6876290D01*
X9559582Y6885381D02*
G01*
X9559582Y6889927D01*
X9555038Y6899018D01*
X9550491Y6903562D01*
X9541400Y6908109D01*
X9523219Y6908109D01*
X9514128Y6903562D01*
X9509582Y6899018D01*
X9505038Y6889927D01*
X9505038Y6880837D01*
X9509582Y6871746D01*
X9518672Y6858109D01*
X9564128Y6812653D01*
X9500491Y6812653D01*
X9406854Y6908109D02*
G01*
X9452310Y6812653D01*
X9470491Y6908109D02*
G01*
X9406854Y6908109D01*
X9876853Y7003290D02*
G01*
X9876853Y6930562D01*
X9881400Y6916928D01*
X9885946Y6912381D01*
X9895037Y6907837D01*
X9908672Y6907837D01*
X9917762Y6912381D01*
X9876853Y6989653D02*
G01*
X9885946Y6998746D01*
X9895037Y7003290D01*
X9908672Y7003290D01*
X9917762Y6998746D01*
X9926853Y6989653D01*
X9931400Y6976018D01*
X9931400Y6966927D01*
X9926853Y6953290D01*
X9917762Y6944199D01*
X9908672Y6939653D01*
X9895037Y6939653D01*
X9885946Y6944199D01*
X9876853Y6953290D01*
X9846853Y7003290D02*
G01*
X9846853Y6907837D01*
X9846853Y6989653D02*
G01*
X9837762Y6998746D01*
X9828672Y7003290D01*
X9815037Y7003290D01*
X9805946Y6998746D01*
X9796853Y6989653D01*
X9792309Y6976018D01*
X9792309Y6966927D01*
X9796853Y6953290D01*
X9805946Y6944199D01*
X9815037Y6939653D01*
X9828672Y6939653D01*
X9837762Y6944199D01*
X9846853Y6953290D01*
X9762309Y7035109D02*
G01*
X9757763Y7030562D01*
X9753218Y7035109D01*
X9757763Y7039653D01*
X9762309Y7035109D01*
X9757763Y7003290D02*
G01*
X9757763Y6939653D01*
X9700491Y7003290D02*
G01*
X9709581Y6998746D01*
X9718672Y6989653D01*
X9723219Y6976018D01*
X9723219Y6966927D01*
X9718672Y6953290D01*
X9709581Y6944199D01*
X9700491Y6939653D01*
X9686853Y6939653D01*
X9677763Y6944199D01*
X9668672Y6953290D01*
X9664128Y6966927D01*
X9664128Y6976018D01*
X9668672Y6989653D01*
X9677763Y6998746D01*
X9686853Y7003290D01*
X9700491Y7003290D01*
X9559582Y7012381D02*
G01*
X9559582Y7016927D01*
X9555038Y7026018D01*
X9550491Y7030562D01*
X9541400Y7035109D01*
X9523219Y7035109D01*
X9514128Y7030562D01*
X9509582Y7026018D01*
X9505038Y7016927D01*
X9505038Y7007837D01*
X9509582Y6998746D01*
X9518672Y6985109D01*
X9564128Y6939653D01*
X9500491Y6939653D01*
X9447763Y7035109D02*
G01*
X9461400Y7030562D01*
X9465947Y7021471D01*
X9465947Y7012381D01*
X9461400Y7003290D01*
X9452310Y6998746D01*
X9434128Y6994199D01*
X9420491Y6989653D01*
X9411401Y6980562D01*
X9406854Y6971471D01*
X9406854Y6957837D01*
X9411401Y6948746D01*
X9415947Y6944199D01*
X9429582Y6939653D01*
X9447763Y6939653D01*
X9461400Y6944199D01*
X9465947Y6948746D01*
X9470491Y6957837D01*
X9470491Y6971471D01*
X9465947Y6980562D01*
X9456854Y6989653D01*
X9443219Y6994199D01*
X9425038Y6998746D01*
X9415947Y7003290D01*
X9411401Y7012381D01*
X9411401Y7021471D01*
X9415947Y7030562D01*
X9429582Y7035109D01*
X9447763Y7035109D01*
D11*
X9283700Y4393184D02*
G01*
X9283700Y4502150D01*
X9283700Y4393184D02*
G01*
X9330436Y4393184D01*
X9345929Y4398263D01*
X9351263Y4403597D01*
X9356343Y4414012D01*
X9356343Y4424426D01*
X9351263Y4434839D01*
X9345929Y4439920D01*
X9330436Y4445000D01*
X9283700Y4445000D02*
G01*
X9330436Y4445000D01*
X9345929Y4450334D01*
X9351263Y4455413D01*
X9356343Y4465828D01*
X9356343Y4481576D01*
X9351263Y4491989D01*
X9345929Y4497070D01*
X9330436Y4502150D01*
X9283700Y4502150D01*
X9453118Y4408678D02*
G01*
X9447784Y4398263D01*
X9432290Y4393184D01*
X9421875Y4393184D01*
X9406381Y4398263D01*
X9395968Y4414012D01*
X9390634Y4439920D01*
X9390634Y4465828D01*
X9395968Y4486655D01*
X9406381Y4497070D01*
X9421875Y4502150D01*
X9427209Y4502150D01*
X9442704Y4497070D01*
X9453118Y4486655D01*
X9458197Y4471162D01*
X9458197Y4465828D01*
X9453118Y4450334D01*
X9442704Y4439920D01*
X9427209Y4434839D01*
X9421875Y4434839D01*
X9406381Y4439920D01*
X9395968Y4450334D01*
X9390634Y4465828D01*
G36*
X8148726Y5572099D02*
G01*
X8148218Y5178856D01*
X8148218Y4556861D01*
X8178698Y4556861D01*
X8178698Y5567121D01*
G37*
G36*
X8148218Y6187338D02*
G01*
X8148218Y5565343D01*
X8178698Y5565343D01*
X8178698Y6187338D01*
G37*
G36*
X10396321Y4711700D02*
G01*
X10248900Y4564481D01*
X10396321Y4564481D01*
G37*
D12*
X8039100Y5943600D02*
G01*
X7734300Y5943600D01*
X7721600Y5943600D01*
X7696200Y5918200D01*
X7581900Y5918200D01*
X8039100Y6146800D02*
G01*
X7734300Y6146800D01*
X7721600Y6146800D01*
X7696200Y6121400D01*
X7581900Y6121400D01*
X8030827Y6350000D02*
G01*
X7726027Y6350000D01*
X7713327Y6350000D01*
X7687927Y6324600D01*
X7573627Y6324600D01*
X8026400Y6565900D02*
G01*
X7721600Y6565900D01*
X7708900Y6565900D01*
X7683500Y6540500D01*
X7569200Y6540500D01*
X8216900Y6743700D02*
G01*
X8216900Y6438900D01*
X8216900Y6426200D01*
X8242300Y6400800D01*
X8242300Y6286500D01*
X8470900Y6743700D02*
G01*
X8470900Y6438900D01*
X8470900Y6426200D01*
X8496300Y6400800D01*
X8496300Y6286500D01*
X8724900Y6743700D02*
G01*
X8724900Y6438900D01*
X8724900Y6426200D01*
X8750300Y6400800D01*
X8750300Y6286500D01*
X8978900Y6743700D02*
G01*
X8978900Y6438900D01*
X8978900Y6426200D01*
X9004300Y6400800D01*
X9004300Y6286500D01*
X9944100Y6311900D02*
G01*
X10223500Y6311900D01*
X10223500Y6604000D01*
X10274300Y6604000D01*
X9944100Y6451600D02*
G01*
X10172700Y6451600D01*
X10172700Y6794500D01*
X10287000Y6794500D01*
X9944100Y6578600D02*
G01*
X10121900Y6578600D01*
X10121900Y6946900D01*
X10121900Y6959600D01*
X10147300Y6985000D01*
X10274300Y6985000D01*
X9944100Y6705600D02*
G01*
X10058400Y6705600D01*
X10071100Y6718300D01*
X10071100Y7035800D01*
X10071100Y7061200D01*
X10185400Y7175500D01*
X10274300Y7175500D01*
X9994900Y7124700D02*
G01*
X9994900Y7073900D01*
X10020300Y7073900D01*
X10020300Y6832600D01*
X9956800Y6832600D01*
X9969500Y6972300D02*
G01*
X9969500Y7023100D01*
X9817100Y7023100D01*
X9791700Y7048500D01*
X9791700Y7124700D01*
D11*
X10396319Y6179720D02*
G01*
X10396319Y5570420D01*
D13*
X8363704Y4707102D02*
G01*
X8253699Y4707102D01*
X10203695Y6037097D02*
G01*
X10313695Y6037097D01*
X10258696Y6092098D02*
G01*
X10258696Y5982098D01*
X10396319Y5173779D02*
G01*
X10396319Y5577794D01*
D11*
X8103702Y4567102D02*
G01*
X8103702Y6177343D01*
D13*
X8103702Y4564725D02*
G01*
X8118703Y4564725D01*
X8118703Y6179723D01*
X8103702Y6179723D01*
X7858691Y5722099D02*
G01*
X8171073Y5722099D01*
X7858691Y5722099D02*
G01*
X7858688Y5580113D01*
X7858691Y5022100D02*
G01*
X7858688Y5164086D01*
X7858691Y5022100D02*
G01*
X8171073Y5022100D01*
X10708698Y5722099D02*
G01*
X10396319Y5722099D01*
X10708698Y5722099D02*
G01*
X10708698Y5580113D01*
X10708698Y5022100D02*
G01*
X10708698Y5164086D01*
X10708698Y5022100D02*
G01*
X10396319Y5022100D01*
X10247721Y4564479D02*
G01*
X10250147Y4564479D01*
X10396319Y4710650D01*
D11*
X8171080Y4564479D02*
G01*
X10396319Y4564479D01*
X10396319Y4564479D02*
G01*
X10396319Y5173779D01*
X8171080Y6179720D02*
G01*
X10396319Y6179720D01*
D13*
G75*
G01*
X8694057Y4564438D02*
G02*
X8693191Y6179129I589642J807662D01*
G75*
G01*
X9873338Y6179762D02*
G02*
X9874207Y4565071I-589641J-807663D01*
D14*
G75*
G01
X10350500Y6037097D02*
G03X10350500Y6037097I-91796J0D01*
G75*
G01
X8400491Y4707103D02*
G03X8400491Y4707103I-91796J0D01*
M02*
