G04 Layer: InnerLayer2*
G04 EasyEDA v6.5.40, 2024-06-15 16:39:10*
G04 e63031535b224d068feaf967c7116de5,10*
G04 Gerber Generator version 0.2*
G04 Scale: 100 percent, Rotated: No, Reflected: No *
G04 Dimensions in millimeters *
G04 leading zeros omitted , absolute positions ,4 integer and 5 decimal *
%FSLAX45Y45*%
%MOMM*%

%ADD10C,0.2540*%
%ADD11O,1.1999976X1.9999959999999999*%
%ADD12C,0.6200*%

%LPD*%
D10*
X8648700Y6350000D02*
G01*
X8775700Y6477000D01*
X8928100Y6477000D01*
X9105900Y6299200D01*
X10299700Y6299200D01*
X8445500Y6565900D02*
G01*
X8445500Y6578600D01*
X8094700Y6929399D01*
X8094700Y7200900D01*
X8294700Y7200900D02*
G01*
X8917000Y6578600D01*
X9410700Y6578600D01*
X9461500Y6527800D01*
X9525000Y6527800D01*
X9537700Y7378700D02*
G01*
X9194800Y7035800D01*
X8659799Y7035800D01*
X8494699Y7200900D01*
X8877300Y6921500D02*
G01*
X9105900Y6921500D01*
X9321800Y6705600D01*
X9601200Y6705600D01*
X10096500Y7200900D01*
X10096500Y7353300D01*
X10299700Y7353300D01*
X8878056Y6756400D02*
G01*
X8992356Y6642100D01*
X9639300Y6642100D01*
X10172700Y7175500D01*
X10172700Y7289800D01*
D11*
G01*
X8894699Y7200900D03*
G01*
X8694699Y7200900D03*
G01*
X8494699Y7200900D03*
G01*
X8294700Y7200900D03*
G01*
X8094700Y7200900D03*
G01*
X7894700Y7200900D03*
D12*
G01*
X10795000Y4581270D03*
G01*
X10769600Y5930900D03*
G01*
X10566400Y6033363D03*
G01*
X9652000Y6997700D03*
G01*
X10591800Y4649063D03*
G01*
X9632315Y7124700D03*
G01*
X7696200Y4606670D03*
G01*
X7696200Y5524500D03*
G01*
X7696200Y5295900D03*
G01*
X8140700Y6731000D03*
G01*
X8356600Y6578600D03*
G01*
X7759700Y6844537D03*
G01*
X8877300Y6921500D03*
G01*
X8878163Y6756400D03*
G01*
X9144000Y6769100D03*
G01*
X9321800Y6515100D03*
G01*
X9410700Y7353300D03*
G01*
X7937500Y4686300D03*
G01*
X9626600Y7239000D03*
G01*
X10172700Y7289800D03*
G01*
X10299700Y7353300D03*
G01*
X9791700Y7340600D03*
G01*
X9664700Y7378700D03*
G01*
X9537700Y7378700D03*
G01*
X9525000Y6527800D03*
G01*
X9398000Y6781800D03*
G01*
X9398000Y6883400D03*
G01*
X8445500Y6565900D03*
G01*
X8420100Y6946900D03*
G01*
X10299700Y6299200D03*
G01*
X10160000Y6540500D03*
G01*
X8610600Y6794500D03*
G01*
X9664700Y6883400D03*
G01*
X9791700Y6629400D03*
G01*
X10045700Y6642100D03*
G01*
X9918700Y6629400D03*
G01*
X9918700Y7521905D03*
G01*
X10045700Y7521905D03*
G01*
X7645400Y6223000D03*
G01*
X7645400Y6426200D03*
G01*
X8902700Y6350000D03*
G01*
X7670800Y6045200D03*
G01*
X7696200Y5448300D03*
G01*
X7696200Y5372100D03*
G01*
X7772400Y5524500D03*
G01*
X7772400Y5448300D03*
G01*
X7772400Y5372100D03*
G01*
X7772400Y5295900D03*
G01*
X7696200Y5219700D03*
G01*
X7772400Y5219700D03*
G01*
X7962900Y5905500D03*
G01*
X8775700Y6591300D03*
G01*
X10795000Y5524500D03*
G01*
X10795000Y5448300D03*
G01*
X10795000Y5372100D03*
G01*
X10795000Y5295900D03*
G01*
X10795000Y5219700D03*
G01*
X8394700Y6350000D03*
G01*
X8648700Y6350000D03*
G01*
X10210800Y6896100D03*
G01*
X9982200Y7340600D03*
M02*
