G04 Layer: TopPasteMaskLayer*
G04 EasyEDA v6.5.40, 2024-06-15 16:39:10*
G04 e63031535b224d068feaf967c7116de5,10*
G04 Gerber Generator version 0.2*
G04 Scale: 100 percent, Rotated: No, Reflected: No *
G04 Dimensions in millimeters *
G04 leading zeros omitted , absolute positions ,4 integer and 5 decimal *
%FSLAX45Y45*%
%MOMM*%

%ADD10R,1.3995X1.0000*%
%ADD11R,1.3800X2.0000*%
%ADD12R,0.8000X1.8000*%
%ADD13R,1.0000X1.0000*%
%ADD14R,0.2800X0.6750*%
%ADD15R,0.6750X0.2800*%

%LPD*%
G36*
X8064296Y7002576D02*
G01*
X8054289Y6992620D01*
X8054289Y6864096D01*
X8064296Y6854088D01*
X8101330Y6854088D01*
X8111337Y6864096D01*
X8111337Y6894575D01*
X8121345Y6904583D01*
X8160054Y6904583D01*
X8170062Y6894575D01*
X8170062Y6864096D01*
X8180070Y6854088D01*
X8217103Y6854088D01*
X8227110Y6864096D01*
X8227110Y6992620D01*
X8217103Y7002576D01*
G37*
G36*
X8064296Y6684111D02*
G01*
X8054289Y6674103D01*
X8054289Y6545580D01*
X8064296Y6535623D01*
X8217103Y6535623D01*
X8227110Y6545580D01*
X8227110Y6674103D01*
X8217103Y6684111D01*
X8180070Y6684111D01*
X8170062Y6674103D01*
X8170062Y6643624D01*
X8160054Y6633616D01*
X8121345Y6633616D01*
X8111337Y6643624D01*
X8111337Y6674103D01*
X8101330Y6684111D01*
G37*
G36*
X10526420Y6233210D02*
G01*
X10521391Y6228181D01*
X10521391Y6148222D01*
X10526420Y6143193D01*
X10549178Y6143193D01*
X10549178Y6180226D01*
X10582198Y6180226D01*
X10582198Y6143193D01*
X10606379Y6143193D01*
X10611408Y6148222D01*
X10611408Y6228181D01*
X10606379Y6233210D01*
G37*
G36*
X10526420Y6073190D02*
G01*
X10521391Y6068212D01*
X10521391Y5989218D01*
X10526420Y5984189D01*
X10606379Y5984189D01*
X10611408Y5989218D01*
X10611408Y6068212D01*
X10606379Y6073190D01*
X10582198Y6073190D01*
X10582198Y6035192D01*
X10549178Y6035192D01*
X10549178Y6073190D01*
G37*
G36*
X10551820Y4848910D02*
G01*
X10546791Y4843881D01*
X10546791Y4763922D01*
X10551820Y4758893D01*
X10574578Y4758893D01*
X10574578Y4795926D01*
X10607598Y4795926D01*
X10607598Y4758893D01*
X10631779Y4758893D01*
X10636808Y4763922D01*
X10636808Y4843881D01*
X10631779Y4848910D01*
G37*
G36*
X10551820Y4688890D02*
G01*
X10546791Y4683912D01*
X10546791Y4604918D01*
X10551820Y4599889D01*
X10631779Y4599889D01*
X10636808Y4604918D01*
X10636808Y4683912D01*
X10631779Y4688890D01*
X10607598Y4688890D01*
X10607598Y4650892D01*
X10574578Y4650892D01*
X10574578Y4688890D01*
G37*
G36*
X8993022Y6801408D02*
G01*
X8987993Y6796379D01*
X8987993Y6773621D01*
X9024975Y6773621D01*
X9024975Y6740601D01*
X8987993Y6740601D01*
X8987993Y6716420D01*
X8993022Y6711391D01*
X9072981Y6711391D01*
X9078010Y6716420D01*
X9078010Y6796379D01*
X9072981Y6801408D01*
G37*
G36*
X8834018Y6801408D02*
G01*
X8828989Y6796379D01*
X8828989Y6716420D01*
X8834018Y6711391D01*
X8913012Y6711391D01*
X8917990Y6716420D01*
X8917990Y6740601D01*
X8879992Y6740601D01*
X8879992Y6773621D01*
X8917990Y6773621D01*
X8917990Y6796379D01*
X8913012Y6801408D01*
G37*
G36*
X8993022Y6966508D02*
G01*
X8987993Y6961479D01*
X8987993Y6938721D01*
X9024975Y6938721D01*
X9024975Y6905701D01*
X8987993Y6905701D01*
X8987993Y6881520D01*
X8993022Y6876491D01*
X9072981Y6876491D01*
X9078010Y6881520D01*
X9078010Y6961479D01*
X9072981Y6966508D01*
G37*
G36*
X8834018Y6966508D02*
G01*
X8828989Y6961479D01*
X8828989Y6881520D01*
X8834018Y6876491D01*
X8913012Y6876491D01*
X8917990Y6881520D01*
X8917990Y6905701D01*
X8879992Y6905701D01*
X8879992Y6938721D01*
X8917990Y6938721D01*
X8917990Y6961479D01*
X8913012Y6966508D01*
G37*
G36*
X9091320Y6652310D02*
G01*
X9086291Y6647281D01*
X9086291Y6567322D01*
X9091320Y6562293D01*
X9114078Y6562293D01*
X9114078Y6599326D01*
X9147098Y6599326D01*
X9147098Y6562293D01*
X9171279Y6562293D01*
X9176308Y6567322D01*
X9176308Y6647281D01*
X9171279Y6652310D01*
G37*
G36*
X9091320Y6492290D02*
G01*
X9086291Y6487312D01*
X9086291Y6408318D01*
X9091320Y6403289D01*
X9171279Y6403289D01*
X9176308Y6408318D01*
X9176308Y6487312D01*
X9171279Y6492290D01*
X9147098Y6492290D01*
X9147098Y6454292D01*
X9114078Y6454292D01*
X9114078Y6492290D01*
G37*
G36*
X8316620Y6893610D02*
G01*
X8311591Y6888581D01*
X8311591Y6808622D01*
X8316620Y6803593D01*
X8339378Y6803593D01*
X8339378Y6840626D01*
X8372398Y6840626D01*
X8372398Y6803593D01*
X8396579Y6803593D01*
X8401608Y6808622D01*
X8401608Y6888581D01*
X8396579Y6893610D01*
G37*
G36*
X8316620Y6733590D02*
G01*
X8311591Y6728612D01*
X8311591Y6649618D01*
X8316620Y6644589D01*
X8396579Y6644589D01*
X8401608Y6649618D01*
X8401608Y6728612D01*
X8396579Y6733590D01*
X8372398Y6733590D01*
X8372398Y6695592D01*
X8339378Y6695592D01*
X8339378Y6733590D01*
G37*
G36*
X7897520Y4899710D02*
G01*
X7892491Y4894681D01*
X7892491Y4814722D01*
X7897520Y4809693D01*
X7920278Y4809693D01*
X7920278Y4846726D01*
X7953298Y4846726D01*
X7953298Y4809693D01*
X7977479Y4809693D01*
X7982508Y4814722D01*
X7982508Y4894681D01*
X7977479Y4899710D01*
G37*
G36*
X7897520Y4739690D02*
G01*
X7892491Y4734712D01*
X7892491Y4655718D01*
X7897520Y4650689D01*
X7977479Y4650689D01*
X7982508Y4655718D01*
X7982508Y4734712D01*
X7977479Y4739690D01*
X7953298Y4739690D01*
X7953298Y4701692D01*
X7920278Y4701692D01*
X7920278Y4739690D01*
G37*
D10*
G01*
X7696200Y4606670D03*
G01*
X7696200Y4816729D03*
G01*
X10795000Y4581270D03*
G01*
X10795000Y4791329D03*
G01*
X10756900Y5940170D03*
G01*
X10756900Y6150229D03*
D11*
G01*
X7759700Y6699199D03*
G01*
X7759700Y5899200D03*
D12*
G01*
X10426700Y7521905D03*
G01*
X10299700Y7521905D03*
G01*
X10172700Y7521905D03*
G01*
X10045700Y7521905D03*
G01*
X9918700Y7521905D03*
G01*
X9791700Y7521905D03*
G01*
X9664700Y7521905D03*
G01*
X9537700Y7521905D03*
G01*
X9410700Y7521905D03*
D13*
G01*
X9537700Y7264400D03*
G01*
X9537700Y7137400D03*
G01*
X9537700Y7010400D03*
G01*
X9537700Y6883400D03*
G01*
X9537700Y6756400D03*
G01*
X9537700Y6629400D03*
D12*
G01*
X9410700Y6371894D03*
G01*
X9537700Y6371894D03*
G01*
X9664700Y6371894D03*
G01*
X9791700Y6371894D03*
G01*
X9918700Y6371894D03*
G01*
X10045700Y6371894D03*
G01*
X10172700Y6371894D03*
G01*
X10299700Y6371894D03*
G01*
X10426700Y6371894D03*
D14*
G01*
X8685606Y6920712D03*
G01*
X8635593Y6920712D03*
G01*
X8585606Y6920712D03*
G01*
X8535593Y6920712D03*
D15*
G01*
X8509355Y6844487D03*
G01*
X8509355Y6794500D03*
G01*
X8509355Y6744487D03*
D14*
G01*
X8535593Y6668312D03*
G01*
X8585606Y6668312D03*
G01*
X8635593Y6668312D03*
G01*
X8685606Y6668312D03*
D15*
G01*
X8711844Y6744487D03*
G01*
X8711844Y6794500D03*
G01*
X8711844Y6844487D03*
M02*
